<svg width="37" height="40" viewBox="0 0 37 40" fill="none" xmlns="http://www.w3.org/2000/svg">
<path d="M11.3846 23.7209C11.3846 22.9503 12.0217 22.3256 12.8077 22.3256H24.1923C24.9783 22.3256 25.6154 22.9503 25.6154 23.7209C25.6154 24.4916 24.9783 25.1163 24.1923 25.1163H12.8077C12.0217 25.1163 11.3846 24.4916 11.3846 23.7209Z" fill="#282828"/>
<path fill-rule="evenodd" clip-rule="evenodd" d="M12.8077 0C13.5936 0 14.2308 0.624719 14.2308 1.39535V3.74066C15.5006 3.72093 16.9115 3.72093 18.479 3.72093H18.521C20.0885 3.72093 21.4994 3.72093 22.7692 3.74066V1.39535C22.7692 0.624719 23.4064 0 24.1923 0C24.9783 0 25.6154 0.624719 25.6154 1.39535V3.83922C28.4841 4.01557 30.6881 4.47134 32.5026 5.764C33.4289 6.42383 34.2434 7.22249 34.9163 8.13067C36.4378 10.184 36.8225 12.7458 36.9443 16.2313C37 17.8261 37 19.6817 37 21.84V21.881C37 24.0392 37 25.8948 36.9443 27.4896C36.8225 30.9751 36.4378 33.5369 34.9163 35.5903C34.2434 36.4984 33.4289 37.2971 32.5026 37.9569C30.4085 39.4487 27.7958 39.8259 24.241 39.9454C22.6144 40 20.7218 40 18.5205 40H18.4141C14.9294 40 12.1979 40 10.0307 39.7698C7.81922 39.5349 6.02732 39.0468 4.49737 37.9569C3.57115 37.2971 2.75661 36.4984 2.08367 35.5903C0.972102 34.0901 0.474371 32.3331 0.234766 30.1647C-2.77921e-05 28.0398 -1.54638e-05 25.3615 2.5658e-07 21.9447L4.82772e-07 21.8399C-8.27078e-08 19.6816 -5.34747e-07 17.8261 0.0557248 16.2313C0.177515 12.7458 0.562203 10.184 2.08367 8.13067C2.75661 7.22249 3.57115 6.42383 4.49737 5.764C6.31192 4.47134 8.51585 4.01557 11.3846 3.83922V1.39535C11.3846 0.624719 12.0217 0 12.8077 0ZM11.3846 6.63674C8.80021 6.81101 7.3085 7.21089 6.1703 8.02173C5.4857 8.50943 4.88365 9.09974 4.38626 9.771C3.55931 10.887 3.15149 12.3497 2.97376 14.8837H34.0262C33.8485 12.3497 33.4407 10.887 32.6137 9.771C32.1164 9.09974 31.5143 8.50943 30.8297 8.02173C29.6915 7.21089 28.1998 6.81101 25.6154 6.63674V6.97674C25.6154 7.74737 24.9783 8.37209 24.1923 8.37209C23.4064 8.37209 22.7692 7.74737 22.7692 6.97674V6.53169C21.5177 6.51172 20.1082 6.51163 18.5 6.51163C16.8918 6.51163 15.4823 6.51172 14.2308 6.53169V6.97674C14.2308 7.74737 13.5936 8.37209 12.8077 8.37209C12.0217 8.37209 11.3846 7.74737 11.3846 6.97674V6.63674ZM34.1334 17.6744H2.86662C2.84625 18.9016 2.84615 20.2836 2.84615 21.8605C2.84615 25.3797 2.84811 27.907 3.06436 29.8641C3.27773 31.7951 3.68594 33.0048 4.38626 33.9499C4.88365 34.6212 5.4857 35.2115 6.1703 35.6992C7.1342 36.3859 8.36795 36.7861 10.3373 36.9953C12.3333 37.2074 14.9109 37.2093 18.5 37.2093C20.1097 37.2093 21.5203 37.2092 22.7727 37.1892C22.781 36.3061 22.809 35.656 22.9036 35.0707C23.643 30.4932 27.3043 26.9032 31.9727 26.1782C32.5697 26.0855 33.2327 26.058 34.1333 26.0499C34.1538 24.8219 34.1538 23.4388 34.1538 21.8605C34.1538 20.2836 34.1538 18.9016 34.1334 17.6744ZM34.0259 28.8424C33.2575 28.8511 32.807 28.8741 32.418 28.9346C28.9674 29.4704 26.2612 32.1239 25.7147 35.5073C25.6531 35.8887 25.6295 36.3304 25.6207 37.0838C28.2018 36.9094 29.6923 36.5095 30.8297 35.6992C31.5143 35.2115 32.1164 34.6212 32.6137 33.9499C33.4401 32.8347 33.8479 31.3733 34.0259 28.8424Z" fill="#282828"/>
</svg>
