<svg width="40" height="38" viewBox="0 0 40 38" fill="none" xmlns="http://www.w3.org/2000/svg">
<path fill-rule="evenodd" clip-rule="evenodd" d="M7.77809 1.90411C9.0218 0.631777 10.8326 0 13.3486 0H26.2543C28.7704 0 30.5811 0.631777 31.8248 1.90411C33.0183 3.12506 33.4792 4.73736 33.7806 6.16878L33.781 6.17092L35.8584 16.1167C35.9433 16.5231 35.8406 16.9461 35.5788 17.2682C35.3169 17.5904 34.9239 17.7775 34.5088 17.7775H5.09415C4.67902 17.7775 4.28597 17.5904 4.02415 17.2682C3.76233 16.9461 3.65959 16.5231 3.74447 16.1167L5.82233 6.16878C6.12368 4.73736 6.58462 3.12506 7.77809 1.90411ZM8.5208 6.73688C8.52073 6.73721 8.52087 6.73655 8.5208 6.73688L6.79072 15.0198H32.8122L31.0821 6.73688C31.082 6.73644 31.0822 6.73732 31.0821 6.73688C30.7952 5.37464 30.4562 4.44901 29.8528 3.83174C29.2995 3.26566 28.3159 2.75762 26.2543 2.75762H13.3486C11.287 2.75762 10.3034 3.26566 9.75008 3.83173C9.14665 4.44905 8.80769 5.37446 8.5208 6.73688Z" fill="#282828"/>
<path fill-rule="evenodd" clip-rule="evenodd" d="M3.83758 21.5457C3.83755 21.5461 3.83761 21.5454 3.83758 21.5457L2.80825 32.7398L2.80799 32.7426C2.68465 34.0544 3.74293 35.2425 5.16721 35.2425H8.62342C9.43212 35.2425 9.59007 35.0707 9.59307 35.0674C9.65852 35.0053 9.72563 34.8925 9.92592 34.2917L10.2936 33.1886C10.3033 33.1597 10.3131 33.1299 10.3232 33.0993C10.5297 32.476 10.8374 31.5472 11.5817 30.8452C12.4241 30.0507 13.5896 29.7272 15.0946 29.7272H24.5073C25.9735 29.7272 27.1379 30.0015 27.9887 30.7869C28.7264 31.4678 29.0408 32.3979 29.2635 33.0562C29.2777 33.0983 29.2916 33.1394 29.3051 33.1791L29.3084 33.1886L29.676 34.2917C29.8763 34.8925 29.9434 35.0052 30.0088 35.0673C30.0093 35.0678 30.163 35.2425 30.9785 35.2425H34.4347C35.859 35.2425 36.9173 34.0544 36.794 32.7426L35.7644 21.5457C35.7643 21.5451 35.7643 21.5445 35.7642 21.5439C35.6326 20.1354 35.4449 19.3031 34.9894 18.763C34.5997 18.301 33.7549 17.7775 31.5301 17.7775H8.0719C5.84703 17.7775 5.00223 18.301 4.61257 18.763C4.15698 19.3032 3.96914 20.1367 3.83758 21.5457ZM2.50462 16.9851C3.65004 15.6271 5.48013 15.0199 8.0719 15.0199H31.5301C34.1218 15.0199 35.9519 15.6271 37.0973 16.9851C38.1767 18.2648 38.3842 19.9414 38.5101 21.2895L38.5102 21.2913L39.5395 32.4845C39.5395 32.4847 39.5395 32.4842 39.5395 32.4845C39.8202 35.4742 37.4224 38.0001 34.4347 38.0001H30.9785C29.8085 38.0001 28.8317 37.752 28.1105 37.0676C27.4941 36.4826 27.2402 35.711 27.0881 35.249C27.0783 35.2193 27.0689 35.1908 27.0599 35.1637L26.6939 34.0657C26.4061 33.223 26.2891 32.9709 26.1183 32.8132C26.0132 32.7162 25.6884 32.4848 24.5073 32.4848H15.0946C13.9524 32.4848 13.6011 32.7312 13.4738 32.8514C13.2848 33.0296 13.1622 33.3031 12.9097 34.0607L12.542 35.1637C12.533 35.1908 12.5236 35.2193 12.5138 35.2491C12.3618 35.711 12.1078 36.4826 11.4914 37.0676C10.7703 37.752 9.79342 38.0001 8.62342 38.0001H5.16721C2.17983 38.0001 -0.217799 35.4754 0.0623257 32.4861C0.062375 32.4855 0.0622762 32.4866 0.0623257 32.4861L1.0919 21.2895C1.21772 19.9414 1.42525 18.2648 2.50462 16.9851Z" fill="#282828"/>
<path fill-rule="evenodd" clip-rule="evenodd" d="M1.87646 10.8835C1.87646 10.122 2.49378 9.50468 3.25527 9.50468H5.09369C5.85518 9.50468 6.4725 10.122 6.4725 10.8835C6.4725 11.645 5.85518 12.2623 5.09369 12.2623H3.25527C2.49378 12.2623 1.87646 11.645 1.87646 10.8835Z" fill="#282828"/>
<path fill-rule="evenodd" clip-rule="evenodd" d="M33.1294 10.8835C33.1294 10.122 33.7467 9.50468 34.5082 9.50468H36.3466C37.1081 9.50468 37.7254 10.122 37.7254 10.8835C37.7254 11.645 37.1081 12.2623 36.3466 12.2623H34.5082C33.7467 12.2623 33.1294 11.645 33.1294 10.8835Z" fill="#282828"/>
<path fill-rule="evenodd" clip-rule="evenodd" d="M19.8012 0.312611C20.5627 0.312611 21.18 0.929925 21.18 1.69142V5.36825C21.18 6.12974 20.5627 6.74706 19.8012 6.74706C19.0397 6.74706 18.4224 6.12974 18.4224 5.36825V1.69142C18.4224 0.929925 19.0397 0.312611 19.8012 0.312611Z" fill="#282828"/>
<path fill-rule="evenodd" clip-rule="evenodd" d="M15.665 5.36825C15.665 4.60676 16.2824 3.98944 17.0438 3.98944H22.5591C23.3206 3.98944 23.9379 4.60676 23.9379 5.36825C23.9379 6.12975 23.3206 6.74706 22.5591 6.74706H17.0438C16.2824 6.74706 15.665 6.12975 15.665 5.36825Z" fill="#282828"/>
<path fill-rule="evenodd" clip-rule="evenodd" d="M7.39209 23.7524C7.39209 22.9909 8.0094 22.3736 8.7709 22.3736H14.2861C15.0476 22.3736 15.6649 22.9909 15.6649 23.7524C15.6649 24.5139 15.0476 25.1312 14.2861 25.1312H8.7709C8.0094 25.1312 7.39209 24.5139 7.39209 23.7524Z" fill="#282828"/>
<path fill-rule="evenodd" clip-rule="evenodd" d="M23.9375 23.7524C23.9375 22.9909 24.5548 22.3736 25.3163 22.3736H30.8315C31.593 22.3736 32.2104 22.9909 32.2104 23.7524C32.2104 24.5139 31.593 25.1312 30.8315 25.1312H25.3163C24.5548 25.1312 23.9375 24.5139 23.9375 23.7524Z" fill="#282828"/>
</svg>
