<svg width="36" height="36" viewBox="0 0 36 36" fill="none" xmlns="http://www.w3.org/2000/svg">
<path fill-rule="evenodd" clip-rule="evenodd" d="M28.0481 2.44286C26.8735 2.4457 25.9199 3.37132 25.9199 4.49485V14.6571H30.4055C31.463 14.6571 32.2036 14.338 32.6771 13.879C33.1507 13.4199 33.4799 12.7019 33.4799 11.6769V7.73571C33.4799 6.28576 32.8696 4.96146 31.8803 3.98759C30.9025 3.04122 29.5406 2.4577 28.0481 2.44286ZM23.3999 4.49485C23.3999 2.00469 25.501 0 28.0535 0H28.0651L28.0651 5.14473e-05C30.231 0.019314 32.2254 0.867436 33.6653 2.26317L33.6714 2.26913L33.6714 2.26915C35.0994 3.67272 35.9999 5.60432 35.9999 7.73571V11.6769C35.9999 13.2249 35.4891 14.6078 34.4591 15.6063C33.429 16.6048 32.0025 17.1 30.4055 17.1H24.6599C23.964 17.1 23.3999 16.5531 23.3999 15.8786V4.49485Z" fill="#292D32"/>
<path fill-rule="evenodd" clip-rule="evenodd" d="M1.74011 2.33299C3.06456 0.813689 5.09589 0 7.81714 0H27.5657C28.2474 0 28.8 0.547416 28.8 1.22269C28.8 1.89796 28.2474 2.44538 27.5657 2.44538C26.4371 2.44538 25.5086 3.36518 25.5086 4.48319V32.1974C25.5086 34.5479 22.7988 35.8759 20.9054 34.4834L20.9015 34.4805L18.0744 32.3841C17.9325 32.276 17.7056 32.2823 17.5603 32.4262L14.7955 35.165C13.6717 36.2783 11.8369 36.2783 10.7131 35.165L10.7104 35.1624L7.98117 32.4425C7.98087 32.4422 7.98148 32.4428 7.98117 32.4425C7.81786 32.2816 7.58287 32.2737 7.42217 32.3931L4.61276 34.4762C4.61164 34.4771 4.61051 34.4779 4.60939 34.4788C2.70336 35.9052 0 34.5506 0 32.1974V7.74369C0 5.78271 0.44489 3.81876 1.74011 2.33299ZM23.5366 2.44538H7.81714C5.60125 2.44538 4.34115 3.09076 3.60846 3.93125C2.84654 4.80526 2.46857 6.10181 2.46857 7.74369V32.1974C2.46857 32.5491 2.85596 32.7268 3.1221 32.5271L3.12778 32.5228L5.94103 30.4368C7.0966 29.5782 8.70515 29.7014 9.72672 30.7134L9.72934 30.716L12.4586 33.4359C12.4589 33.4362 12.4583 33.4356 12.4586 33.4359C12.6185 33.5933 12.8905 33.5939 13.05 33.4359L15.8148 30.6971C16.8193 29.702 18.4308 29.5763 19.5721 30.4402L22.3769 32.5199C22.3773 32.5203 22.3778 32.5206 22.3782 32.5209C22.657 32.7244 23.04 32.5201 23.04 32.1974V4.48319C23.04 3.75029 23.2193 3.05741 23.5366 2.44538Z" fill="#292D32"/>
<path fill-rule="evenodd" clip-rule="evenodd" d="M11.7 19.35C11.7 18.6044 12.2372 18 12.9 18H17.7C18.3627 18 18.9 18.6044 18.9 19.35C18.9 20.0956 18.3627 20.7 17.7 20.7H12.9C12.2372 20.7 11.7 20.0956 11.7 19.35Z" fill="#292D32"/>
<path fill-rule="evenodd" clip-rule="evenodd" d="M11.7 13.05C11.7 12.3044 12.2372 11.7 12.9 11.7H17.7C18.3627 11.7 18.9 12.3044 18.9 13.05C18.9 13.7956 18.3627 14.4 17.7 14.4H12.9C12.2372 14.4 11.7 13.7956 11.7 13.05Z" fill="#292D32"/>
<path fill-rule="evenodd" clip-rule="evenodd" d="M6.30005 19.35C6.30005 18.6044 6.90176 18 7.64401 18H7.65608C8.39834 18 9.00005 18.6044 9.00005 19.35C9.00005 20.0956 8.39834 20.7 7.65608 20.7H7.64401C6.90176 20.7 6.30005 20.0956 6.30005 19.35Z" fill="#292D32"/>
<path fill-rule="evenodd" clip-rule="evenodd" d="M6.30005 13.05C6.30005 12.3044 6.90176 11.7 7.64401 11.7H7.65608C8.39834 11.7 9.00005 12.3044 9.00005 13.05C9.00005 13.7956 8.39834 14.4 7.65608 14.4H7.64401C6.90176 14.4 6.30005 13.7956 6.30005 13.05Z" fill="#292D32"/>
</svg>
