<svg width="47" height="30" viewBox="0 0 47 30" fill="none" xmlns="http://www.w3.org/2000/svg">
<path d="M47.0002 21.2763C46.7317 21.831 46.2854 22.0163 45.6931 22.0101C43.9802 21.99 42.2673 22.0038 40.5532 22.0026C39.5821 22.0026 39.381 21.846 39.0929 20.8806C39.0487 20.7341 38.9948 20.5901 38.9188 20.3685C38.4259 20.7091 37.9587 21.0184 37.5099 21.354C37.4413 21.4053 37.4315 21.5743 37.4364 21.6858C37.5185 23.5828 36.3304 25.0327 34.474 25.2556C34.181 25.2907 34.0363 25.4021 33.883 25.6525C33.0775 26.971 31.8612 27.507 30.38 27.4293C30.0673 27.4131 29.93 27.4869 29.7743 27.7449C28.9246 29.146 27.2632 29.856 25.9144 29.4002C25.8262 29.3701 25.6925 29.3689 25.6189 29.4165C24.2788 30.2779 22.908 30.0588 21.5188 29.5717C20.4741 29.2049 19.5901 28.5638 18.733 27.8814C16.3224 25.9593 13.8861 24.0686 11.5307 22.0789C10.345 21.0772 9.31141 19.8889 8.20912 18.7858C8.1564 18.7332 8.09999 18.6831 8.04359 18.6305C8.01171 18.6719 7.98719 18.6919 7.97738 18.7182C7.47344 19.9891 7.47344 19.9891 6.11612 19.9891C4.49517 19.9891 2.873 19.9904 1.25206 19.9879C0.328785 19.9866 0.00140788 19.6561 0.00140788 18.727C0.000181749 12.8983 0.000181749 7.06955 0.00140788 1.2421C0.00140788 0.328037 0.383961 -0.061378 1.26923 0.00748966C4.07339 0.229118 6.88 0.45826 9.58729 1.31597C10.0937 1.47625 10.5805 1.71916 11.0525 1.96959C11.6178 2.26885 11.8544 2.75719 11.7146 3.41456C11.6791 3.57984 11.6742 3.75138 11.6496 3.97677C11.8409 3.98553 12.0015 3.99931 12.1609 3.99931C14.455 4.00056 16.7503 4.00807 19.0444 3.98929C19.2958 3.98679 19.5864 3.88662 19.7899 3.73511C21.2551 2.64324 22.8344 1.95081 24.6969 2.1499C25.8519 2.27261 26.9186 2.68832 27.9768 3.14535C29.6088 3.84905 31.2493 4.52896 32.8874 5.21764C33.0272 5.27649 33.1719 5.31906 33.2688 5.35287C33.3521 5.02982 33.3583 4.67045 33.5299 4.43881C33.7065 4.1984 34.0265 4.03437 34.3146 3.91917C36.9275 2.87364 39.6618 2.39031 42.4427 2.15491C43.5241 2.0635 44.6117 2.05724 45.6944 1.98712C46.2927 1.9483 46.7317 2.15616 47.0002 2.71211C47.0002 8.90018 47.0002 15.0883 47.0002 21.2763ZM11.4437 6.01525C10.5461 9.39227 9.66454 12.7017 8.79766 16.0148C8.75107 16.1926 8.76088 16.4769 8.86878 16.5908C10.014 17.8054 11.0954 19.1064 12.3645 20.1719C15.1625 22.5209 18.0402 24.7723 20.9302 27.0036C21.5065 27.4481 22.2716 27.651 22.968 27.9152C23.2329 28.0153 23.5505 27.9753 23.9588 28.0078C23.8055 27.8325 23.7491 27.7624 23.6878 27.6985C22.7645 26.7419 21.8376 25.789 20.9167 24.8299C20.5526 24.4505 20.1884 24.0698 19.8488 23.6692C19.476 23.2297 19.5067 22.6549 19.8929 22.278C20.273 21.9061 20.8432 21.9137 21.2564 22.3006C21.3912 22.427 21.5102 22.571 21.6401 22.7038C23.1262 24.2113 24.6123 25.7177 26.1008 27.2227C26.4809 27.6071 26.9174 27.6021 27.3674 27.3742C27.7916 27.1601 28.0994 26.8321 28.3103 26.2861C27.0412 25.0177 25.7612 23.743 24.4872 22.4608C24.215 22.1866 23.9465 21.9049 23.7111 21.5994C23.3898 21.1812 23.4438 20.6365 23.8043 20.2809C24.1733 19.9177 24.7337 19.9065 25.1346 20.2646C25.2842 20.3973 25.4117 20.5563 25.5515 20.6991C26.9542 22.1365 28.3422 23.5915 29.7694 25.0027C30.4094 25.635 31.3413 25.5649 31.9838 24.9363C32.2511 24.6746 32.3308 24.4693 32.0022 24.1362C30.2525 22.3669 28.5273 20.5726 26.8034 18.7771C26.3338 18.2875 26.324 17.6977 26.7408 17.282C27.1614 16.8625 27.7242 16.8976 28.2024 17.3872C28.6769 17.8743 29.1355 18.3776 29.61 18.8647C30.9379 20.2258 32.2719 21.5793 33.601 22.9392C33.872 23.2171 34.1736 23.3398 34.5537 23.2196C35.3385 22.9717 35.7051 22.1829 35.336 21.4366C35.1521 21.0647 34.9191 20.6991 34.6371 20.4011C33.8622 19.5822 33.091 18.7508 32.2449 18.0132C29.6627 15.7644 27.0462 13.5544 24.4333 11.3418C24.329 11.2542 24.0998 11.2454 23.9588 11.2918C23.4806 11.4495 23.0257 11.6874 22.5426 11.8202C22.2115 11.9103 21.9822 12.0693 21.7628 12.3273C20.3895 13.9438 18.695 14.5974 16.6277 14.0314C15.0681 13.6045 14.3422 12.3824 14.6451 10.7546C14.8695 9.54753 15.4212 8.49198 16.1054 7.5053C16.4536 7.00319 16.846 6.53364 17.2445 6.01525C15.2532 6.01525 13.3037 6.01525 11.4437 6.01525ZM36.5511 19.5834C37.0698 19.2278 37.5958 18.8847 38.0985 18.5078C38.188 18.4402 38.2432 18.2086 38.2027 18.0934C37.0489 14.8228 35.8829 11.5572 34.7046 8.2954C34.6506 8.14389 34.4949 7.98236 34.349 7.92226C31.7054 6.82413 29.0496 5.75731 26.4098 4.64792C24.4615 3.82902 22.6358 3.94922 20.9903 5.34035C20.0511 6.13421 19.1401 6.97815 18.3063 7.88595C17.4762 8.78874 16.8386 9.84554 16.5738 11.0864C16.4377 11.72 16.5701 11.9579 17.1819 12.1019C17.5486 12.1883 17.9385 12.2459 18.31 12.2133C19.3215 12.1219 19.9738 11.447 20.5685 10.682C20.761 10.4353 21.0001 10.1661 21.2748 10.0572C22.1527 9.71156 23.0649 9.45738 23.9489 9.12431C24.4725 8.92647 24.8796 9.00786 25.2867 9.39352C26.0493 10.1148 26.8291 10.8172 27.6224 11.5034C30.6522 14.1191 33.9162 16.4643 36.5511 19.5834ZM35.6989 5.55572C35.8301 5.86249 35.9577 6.14422 36.0741 6.43096C37.8312 10.722 39.3295 15.1095 40.7261 19.5346C40.8438 19.9065 41.002 20.0054 41.3637 19.9966C42.4181 19.9716 43.4751 19.9891 44.5295 19.9866C44.6902 19.9866 44.852 19.9703 45.0139 19.9603C45.0139 14.6225 45.0139 9.33467 45.0139 4.04939C42.9993 3.86533 37.6068 4.73431 35.6989 5.55572ZM1.97793 17.9757C3.3843 17.9757 4.75511 17.9757 6.14554 17.9757C6.43859 16.9953 6.74022 16.0286 7.01732 15.0569C8.06199 11.3882 9.10174 7.71816 9.68048 3.93169C9.73933 3.54854 9.65228 3.37574 9.31018 3.30061C8.01294 3.01638 6.72305 2.68957 5.416 2.46168C4.29164 2.2651 3.14766 2.18245 1.97916 2.04597C1.97793 7.37883 1.97793 12.6516 1.97793 17.9757Z" fill="#282828"/>
</svg>
