<svg width="36" height="40" viewBox="0 0 36 40" fill="none" xmlns="http://www.w3.org/2000/svg">
<path d="M8.76923 0C8.00453 0 7.38462 0.624719 7.38462 1.39535C7.38462 2.16598 8.00453 2.7907 8.76923 2.7907H23.5385C24.3032 2.7907 24.9231 2.16598 24.9231 1.39535C24.9231 0.624719 24.3032 0 23.5385 0H8.76923Z" fill="#282828"/>
<path d="M17.5385 12.5581C17.5385 11.7875 16.9186 11.1628 16.1539 11.1628C15.3892 11.1628 14.7692 11.7875 14.7692 12.5581V19.0698C14.7692 21.3817 16.629 23.2558 18.9231 23.2558H21.6923C22.457 23.2558 23.0769 22.6311 23.0769 21.8605C23.0769 21.0898 22.457 20.4651 21.6923 20.4651H18.9231C18.1584 20.4651 17.5385 19.8404 17.5385 19.0698V12.5581Z" fill="#282828"/>
<path fill-rule="evenodd" clip-rule="evenodd" d="M22.3293 3.8523C20.7336 3.72091 18.7482 3.72092 16.2158 3.72093H16.0919C13.5595 3.72092 11.5741 3.72091 9.97834 3.8523C8.35347 3.98609 7.01111 4.26303 5.7961 4.88691C3.79869 5.91253 2.17474 7.54907 1.15701 9.56196C0.53793 10.7864 0.263118 12.1392 0.130361 13.7766C-1.50419e-05 15.3847 -8.33676e-06 17.3855 1.36265e-07 19.9376V20.0624C-8.33676e-06 22.6145 -1.50419e-05 24.6153 0.130361 26.2234C0.263118 27.8608 0.53793 29.2136 1.15701 30.438C2.17474 32.4509 3.79869 34.0875 5.7961 35.1131C7.01111 35.737 8.35347 36.0139 9.97834 36.1477C11.574 36.2791 13.5594 36.2791 16.0918 36.2791H16.2158C18.7482 36.2791 20.7337 36.2791 22.3293 36.1477C23.9542 36.0139 25.2966 35.737 26.5116 35.1131C28.509 34.0875 30.1329 32.4509 31.1507 30.438C31.7698 29.2136 32.0446 27.8608 32.1773 26.2234C32.2841 24.9064 32.3034 23.3261 32.3069 21.3953H34.6154C35.3801 21.3953 36 20.7706 36 20C36 19.2294 35.3801 18.6047 34.6154 18.6047H32.3069C32.3034 16.6739 32.2841 15.0936 32.1773 13.7766C32.0446 12.1392 31.7698 10.7864 31.1507 9.56196C30.1329 7.54907 28.509 5.91253 26.5116 4.88691C25.2966 4.26303 23.9542 3.98609 22.3293 3.8523ZM7.05331 7.37344C7.81287 6.98342 8.75022 6.75342 10.2038 6.63373C11.6736 6.51271 13.5461 6.51163 16.1538 6.51163C18.7616 6.51163 20.6341 6.51271 22.1038 6.63373C23.5575 6.75342 24.4948 6.98342 25.2544 7.37344C26.7307 8.13151 27.931 9.34112 28.6833 10.8289C29.0703 11.5944 29.2985 12.539 29.4173 14.0039C29.5374 15.4851 29.5385 17.3721 29.5385 20C29.5385 22.6279 29.5374 24.5149 29.4173 25.9961C29.2985 27.461 29.0703 28.4056 28.6833 29.1711C27.931 30.6589 26.7307 31.8685 25.2544 32.6266C24.4948 33.0166 23.5575 33.2466 22.1038 33.3663C20.6341 33.4873 18.7616 33.4884 16.1538 33.4884C13.5461 33.4884 11.6736 33.4873 10.2038 33.3663C8.75022 33.2466 7.81287 33.0166 7.05331 32.6266C5.57696 31.8685 4.37665 30.6589 3.62441 29.1711C3.2374 28.4056 3.00916 27.461 2.89039 25.9961C2.77031 24.5149 2.76923 22.6279 2.76923 20C2.76923 17.3721 2.77031 15.4851 2.89039 14.0039C3.00916 12.539 3.2374 11.5944 3.62441 10.8289C4.37665 9.34112 5.57696 8.13151 7.05331 7.37344Z" fill="#282828"/>
<path d="M8.76923 37.2093C8.00453 37.2093 7.38462 37.834 7.38462 38.6047C7.38462 39.3753 8.00453 40 8.76923 40H23.5385C24.3032 40 24.9231 39.3753 24.9231 38.6047C24.9231 37.834 24.3032 37.2093 23.5385 37.2093H8.76923Z" fill="#282828"/>
</svg>
