<svg width="40" height="40" viewBox="0 0 40 40" fill="none" xmlns="http://www.w3.org/2000/svg">
<path fill-rule="evenodd" clip-rule="evenodd" d="M15.1667 0.395874C10.1386 0.395874 6.0625 4.47195 6.0625 9.50004C6.0625 14.5281 10.1386 18.6042 15.1667 18.6042C20.1948 18.6042 24.2708 14.5281 24.2708 9.50004C24.2708 4.47195 20.1948 0.395874 15.1667 0.395874ZM8.9375 9.50004C8.9375 6.05977 11.7264 3.27087 15.1667 3.27087C18.6069 3.27087 21.3958 6.05977 21.3958 9.50004C21.3958 12.9403 18.6069 15.7292 15.1667 15.7292C11.7264 15.7292 8.9375 12.9403 8.9375 9.50004Z" fill="#282828"/>
<path d="M39.2377 23.8756C39.7672 23.2841 39.717 22.3753 39.1255 21.8457C38.534 21.3162 37.6252 21.3664 37.0957 21.9579L30.6381 29.1706C29.3296 30.6321 28.4484 31.6112 27.695 32.2445C26.9773 32.8477 26.5557 32.9792 26.1875 32.9792C25.8193 32.9792 25.3977 32.8477 24.68 32.2445C23.9266 31.6112 23.0454 30.6321 21.7369 29.1706L20.071 27.3099C19.5414 26.7184 18.6326 26.6682 18.0411 27.1978C17.4497 27.7273 17.3995 28.6361 17.929 29.2276L19.6661 31.1678C20.8848 32.5291 21.9013 33.6646 22.8302 34.4453C23.8127 35.2712 24.8725 35.8542 26.1875 35.8542C27.5025 35.8542 28.5623 35.2712 29.5448 34.4453C30.4737 33.6646 31.4902 32.5292 32.7089 31.1678L39.2377 23.8756Z" fill="#282828"/>
<path d="M9.41667 21.4792C4.38857 21.4792 0.3125 25.5553 0.3125 30.5834C0.3125 35.6115 4.38857 39.6875 9.41667 39.6875H20.9167C21.7106 39.6875 22.3542 39.0439 22.3542 38.25C22.3542 37.4561 21.7106 36.8125 20.9167 36.8125H9.41667C5.97639 36.8125 3.1875 34.0237 3.1875 30.5834C3.1875 27.1431 5.97639 24.3542 9.41667 24.3542H20.9167C21.7106 24.3542 22.3542 23.7106 22.3542 22.9167C22.3542 22.1228 21.7106 21.4792 20.9167 21.4792H9.41667Z" fill="#282828"/>
</svg>
