<svg width="37" height="37" viewBox="0 0 37 37" fill="none" xmlns="http://www.w3.org/2000/svg">
<path d="M10.9103 12.8077C10.9103 13.8556 11.7598 14.7051 12.8077 14.7051C13.8556 14.7051 14.7051 13.8556 14.7051 12.8077C14.7051 11.7598 13.8556 10.9103 12.8077 10.9103C11.7598 10.9103 10.9103 11.7598 10.9103 12.8077Z" fill="#282828"/>
<path d="M22.2949 24.1923C22.2949 25.2402 23.1444 26.0897 24.1923 26.0897C25.2402 26.0897 26.0897 25.2402 26.0897 24.1923C26.0897 23.1444 25.2402 22.2949 24.1923 22.2949C23.1444 22.2949 22.2949 23.1444 22.2949 24.1923Z" fill="#282828"/>
<path d="M24.5475 14.4651C25.1032 13.9093 25.1032 13.0083 24.5475 12.4525C23.9917 11.8968 23.0907 11.8968 22.5349 12.4525L11.8014 23.186C11.2457 23.7418 11.2457 24.6428 11.8014 25.1986C12.3572 25.7543 13.2582 25.7543 13.814 25.1986L24.5475 14.4651Z" fill="#282828"/>
<path fill-rule="evenodd" clip-rule="evenodd" d="M26.9692 0.234766C24.8021 -2.75671e-05 22.0706 -1.52431e-05 18.5859 2.51101e-07H18.4141C14.9294 -1.52431e-05 12.1979 -2.75671e-05 10.0307 0.234766C7.81922 0.474371 6.02732 0.972102 4.49737 2.08367C3.57115 2.75661 2.75661 3.57115 2.08367 4.49737C0.972102 6.02732 0.474371 7.81922 0.234766 10.0307C-2.75671e-05 12.1979 -1.52431e-05 14.9294 2.511e-07 18.4141V18.5859C-1.52431e-05 22.0706 -2.75671e-05 24.8021 0.234766 26.9692C0.474371 29.1808 0.972102 30.9727 2.08367 32.5026C2.75661 33.4289 3.57115 34.2434 4.49737 34.9163C6.02732 36.0279 7.81922 36.5256 10.0307 36.7652C12.1978 37 14.9293 37 18.414 37H18.5859C22.0705 37 24.8022 37 26.9692 36.7652C29.1808 36.5256 30.9727 36.0279 32.5026 34.9163C33.4289 34.2434 34.2434 33.4289 34.9163 32.5026C36.0279 30.9727 36.5256 29.1808 36.7652 26.9692C37 24.8022 37 22.0707 37 18.586V18.4141C37 14.9295 37 12.1978 36.7652 10.0307C36.5256 7.81922 36.0279 6.02732 34.9163 4.49737C34.2434 3.57115 33.4289 2.75661 32.5026 2.08367C30.9727 0.972102 29.1808 0.474371 26.9692 0.234766ZM6.1703 4.38626C7.1342 3.68594 8.36795 3.27773 10.3373 3.06436C12.3333 2.84811 14.9109 2.84615 18.5 2.84615C22.0891 2.84615 24.6667 2.84811 26.6627 3.06436C28.6321 3.27773 29.8658 3.68594 30.8297 4.38626C31.5143 4.88365 32.1164 5.4857 32.6137 6.1703C33.3141 7.1342 33.7223 8.36795 33.9356 10.3373C34.1519 12.3333 34.1538 14.9109 34.1538 18.5C34.1538 22.0891 34.1519 24.6667 33.9356 26.6627C33.7223 28.6321 33.3141 29.8658 32.6137 30.8297C32.1164 31.5143 31.5143 32.1164 30.8297 32.6137C29.8658 33.3141 28.6321 33.7223 26.6627 33.9356C24.6667 34.1519 22.0891 34.1538 18.5 34.1538C14.9109 34.1538 12.3333 34.1519 10.3373 33.9356C8.36795 33.7223 7.1342 33.3141 6.1703 32.6137C5.4857 32.1164 4.88365 31.5143 4.38626 30.8297C3.68594 29.8658 3.27773 28.6321 3.06436 26.6627C2.84811 24.6667 2.84615 22.0891 2.84615 18.5C2.84615 14.9109 2.84811 12.3333 3.06436 10.3373C3.27773 8.36795 3.68594 7.1342 4.38626 6.1703C4.88365 5.4857 5.4857 4.88365 6.1703 4.38626Z" fill="#282828"/>
</svg>
