<svg width="41" height="41" viewBox="0 0 41 41" fill="none" xmlns="http://www.w3.org/2000/svg">
<path d="M1 34.5875C1.03765 34.4298 1.08001 34.2745 1.11531 34.1168C1.32944 33.1211 1.81184 32.2832 2.53192 31.563C7.56064 26.5449 12.58 21.522 17.611 16.5063C17.8228 16.2968 17.884 16.1297 17.7852 15.826C15.6367 9.24977 20.023 2.16744 26.8708 1.13887C27.1579 1.0965 27.4426 1.04707 27.7297 1C28.3392 1 28.9486 1 29.5581 1C30.2146 1.12475 30.8782 1.23066 31.5277 1.38601C31.9701 1.49193 32.4007 1.64963 32.8243 1.81674C33.5232 2.09212 33.655 2.72763 33.1255 3.25957C31.5959 4.79889 30.064 6.33587 28.518 7.86108C28.3062 8.0682 28.2662 8.24708 28.3415 8.52247C28.6098 9.52515 28.8451 10.5396 29.1181 11.5423C29.1534 11.6764 29.3134 11.8412 29.4475 11.8765C30.4735 12.1542 31.5112 12.392 32.5396 12.6674C32.7843 12.7333 32.9278 12.6815 33.0996 12.5073C34.6104 10.9845 36.1282 9.46866 37.646 7.95287C38.3001 7.29854 38.8931 7.42799 39.2343 8.29651C41.8111 14.8751 37.6154 22.3482 30.6735 23.558C28.7863 23.8875 26.9343 23.7887 25.1177 23.1861C24.847 23.0967 24.7106 23.172 24.5341 23.3485C20.4019 27.491 16.2674 31.6312 12.1305 35.7691C11.2339 36.6658 10.3397 37.5697 9.43848 38.4617C8.00304 39.8834 6.28758 40.3494 4.3721 39.7351C2.47779 39.1278 1.38827 37.7603 1.0706 35.7879C1.06354 35.7408 1.03059 35.6985 1.00941 35.6561C1 35.2983 1 34.9429 1 34.5875ZM31.1441 3.07598C31.1112 3.0289 31.0759 2.98183 31.0429 2.93711C29.8664 2.62406 28.671 2.54639 27.4661 2.69232C21.1502 3.45257 17.2345 9.96294 19.5336 15.8967C19.7313 16.4098 19.6418 16.7769 19.2583 17.1559C14.4484 21.9481 9.64791 26.7496 4.84744 31.5488C4.38151 32.0149 3.8944 32.4644 3.45671 32.9587C1.90126 34.7122 2.64251 37.4967 4.8592 38.1934C6.19345 38.6123 7.34886 38.2546 8.33484 37.2684C13.4718 32.1208 18.6158 26.9826 23.7434 21.8257C24.2023 21.3643 24.6141 21.2514 25.2259 21.5008C26.8261 22.1505 28.5062 22.2893 30.1982 21.9881C34.8598 21.1596 38.0978 17.476 38.3543 12.745C38.406 11.7965 38.3025 10.855 37.9519 9.86409C37.8295 9.94411 37.7918 10.0924 37.6977 10.1865C36.4105 11.4834 35.1116 12.7686 33.8291 14.0725C33.4973 14.4091 33.1537 14.508 32.6996 14.3903C31.3018 14.0255 29.9017 13.6747 28.4968 13.3358C28.0379 13.2252 27.7744 12.9733 27.6638 12.5144C27.3202 11.0974 26.9649 9.6852 26.6002 8.27533C26.4872 7.83519 26.586 7.4986 26.9108 7.1785C28.2121 5.89572 29.4969 4.59647 30.7935 3.30899C30.8876 3.20778 31.0241 3.15129 31.1441 3.07598Z" fill="#282828" stroke="#282828"/>
</svg>
