<svg width="42" height="33" viewBox="0 0 42 33" fill="none" xmlns="http://www.w3.org/2000/svg">
<g clip-path="url(#clip0_144_44)">
<path d="M0 19.4942C0.106713 18.7216 0.185081 17.9423 0.323475 17.1746C1.24888 12.0115 3.81667 7.80066 7.93179 4.51565C10.8431 2.1911 14.1745 0.764412 17.8745 0.232287C21.9012 -0.347614 25.7996 0.151562 29.5312 1.79077C30.4383 2.18945 30.8218 3.07743 30.4683 3.92092C30.1148 4.76276 29.1961 5.14991 28.2873 4.77924C26.8817 4.20593 25.4478 3.73476 23.9454 3.49094C23.5286 3.42339 23.1084 3.38385 22.6415 3.32454C22.6415 4.14662 22.6532 4.94069 22.6382 5.73311C22.6215 6.65568 21.9479 7.33772 21.0525 7.36573C20.1255 7.39538 19.3868 6.70181 19.3651 5.75288C19.3484 4.95881 19.3618 4.16474 19.3618 3.30477C13.5276 3.99176 9.08396 6.76606 5.86756 11.6161C6.61122 11.9703 7.31986 12.3097 8.03017 12.6425C8.49537 12.86 8.8572 13.173 9.0156 13.6672C9.22236 14.3064 9.07063 14.8781 8.58541 15.3361C8.07186 15.8221 7.44658 15.9226 6.8013 15.6458C6.01429 15.3081 5.24729 14.9242 4.47028 14.5585C2.7512 18.6886 2.7462 24.4497 5.55909 29.2554C6.13768 28.9786 6.7146 28.6853 7.30652 28.4234C7.58831 28.2982 7.89344 28.1812 8.19691 28.1532C8.9389 28.084 9.60252 28.5486 9.83596 29.2405C10.0694 29.9325 9.83763 30.7381 9.18568 31.0791C7.95681 31.7216 6.70293 32.3245 5.43237 32.8814C4.72706 33.1911 3.96673 32.8764 3.51653 32.196C1.91584 29.7875 0.823693 27.173 0.333479 24.3278C0.19175 23.5058 0.110048 22.6738 0 21.8468C0 21.0626 0 20.2784 0 19.4942Z" fill="#282828"/>
<path d="M21.0076 25.6046C19.0167 25.6079 17.246 24.4497 16.4673 22.6326C15.7053 20.855 16.0604 18.7133 17.4761 17.3904C18.3548 16.57 19.3519 15.8633 20.3456 15.173C24.7042 12.1499 29.0828 9.1532 33.4514 6.14332C34.0516 5.72981 34.6786 5.61449 35.3339 5.97198C35.9091 6.285 36.2142 6.79735 36.1576 7.44315C36.1292 7.76276 36.0042 8.11202 35.8174 8.37561C32.3976 13.224 28.9644 18.0642 25.5246 22.8979C25.1794 23.3822 24.8026 23.8534 24.3791 24.2702C23.4837 25.1516 22.2815 25.6013 21.0076 25.6046ZM28.0107 13.9061C27.989 13.8814 27.9673 13.8567 27.9456 13.8319C27.3237 14.2636 26.6951 14.6886 26.0781 15.1285C24.0839 16.5486 22.0914 17.9736 20.1022 19.4003C19.5186 19.8188 19.2518 20.3838 19.4102 21.0922C19.5553 21.7446 19.9772 22.173 20.6341 22.3163C21.3594 22.4745 21.9447 22.2158 22.3865 21.6244C22.7033 21.201 23.0435 20.7957 23.3536 20.3674C24.9093 18.2175 26.4583 16.0609 28.0107 13.9061Z" fill="#282828"/>
<path d="M36.4458 29.2702C37.2611 27.8468 37.8514 26.374 38.2232 24.8188C39.1253 21.0296 38.8035 17.3443 37.2478 13.7677C37.0427 13.2949 36.9293 12.8221 37.1278 12.3179C37.3679 11.7067 37.9464 11.2883 38.6067 11.2801C39.3571 11.2718 39.9173 11.6178 40.1758 12.3015C40.6226 13.486 41.1145 14.6705 41.4046 15.8962C42.7769 21.7133 41.7681 27.14 38.51 32.1647C38.0048 32.9423 37.1894 33.1927 36.3374 32.8072C35.2086 32.2982 34.0848 31.771 32.9726 31.229C32.0922 30.799 31.7638 29.8665 32.1656 29.0461C32.5658 28.2306 33.5028 27.9176 34.4016 28.3179C35.0785 28.6211 35.7522 28.9456 36.4458 29.2702Z" fill="#282828"/>
</g>
<defs>
<clipPath id="clip0_144_44">
<rect width="42" height="33" fill="white"/>
</clipPath>
</defs>
</svg>
