<svg width="38" height="43" viewBox="0 0 38 43" fill="none" xmlns="http://www.w3.org/2000/svg">
<path d="M37.988 36.4676C37.9383 32.5345 35.63 29.3437 31.9645 28.1426C30.0175 27.5048 28.0257 26.8951 26.1002 26.307C25.6246 26.1612 25.149 26.017 24.6734 25.8696C24.3917 25.7834 24.0736 25.7553 23.7769 25.7867C23.767 25.7553 23.7554 25.7188 23.7471 25.6907C23.7455 25.6873 23.7455 25.6824 23.7438 25.6791C25.2352 25.3096 26.6072 24.9534 27.9378 24.5889C29.86 24.0638 30.9719 22.6788 31.0714 20.689C31.1045 20.023 31.0912 19.3537 31.0797 18.706V18.6861C31.078 18.6049 31.0863 18.5784 31.0863 18.5784C31.0879 18.5767 31.0995 18.5618 31.1443 18.5353C31.8137 18.1344 32.1899 17.4883 32.2015 16.7162C32.2181 15.6427 32.2181 14.5874 32.2015 13.5801C32.1899 12.8064 31.8154 12.1586 31.1459 11.7594C31.1029 11.7328 31.0863 11.7179 31.0863 11.7179C31.0846 11.713 31.078 11.6914 31.078 11.6351C31.0647 10.9973 31.0299 10.434 30.9703 9.91212C30.9023 9.32233 30.44 8.95951 29.8136 9.01418C29.2618 9.06222 28.894 9.44658 28.8525 10.0198C28.8459 10.1225 28.8509 10.2186 28.8559 10.3014C28.8575 10.3412 28.8608 10.3826 28.8608 10.4224C28.8608 10.9111 28.8608 11.3982 28.8608 11.8985C27.4009 11.3684 26.41 10.4671 25.8433 9.155C25.6494 8.70769 25.3959 8.44427 25.0695 8.35149C24.7414 8.25872 24.3884 8.34984 23.9924 8.62817L23.6891 8.84188C23.2666 9.14009 22.8291 9.44989 22.3867 9.7216C19.0974 11.7544 16.3682 12.7981 13.5395 13.1079C11.7632 13.3018 10.1773 13.1344 8.69261 12.596C8.66113 12.5844 8.63958 12.5761 8.62467 12.5678C8.62467 12.5612 8.62467 12.5546 8.62633 12.5463C8.65284 12.1918 8.6661 11.8356 8.6777 11.491C8.69758 10.9443 8.71747 10.4274 8.78375 9.91377C9.22287 6.5639 11.9521 3.46253 15.2745 2.5414C16.7973 2.11894 18.3782 2.12059 19.8563 2.18521C23.5797 2.34922 26.3305 4.1219 28.034 7.45853C28.0489 7.49 28.0654 7.51982 28.0804 7.5513C28.1433 7.67887 28.2129 7.823 28.3173 7.95885C28.6421 8.38131 29.1409 8.50722 29.6165 8.28522C30.092 8.06322 30.3157 7.61757 30.2163 7.09571C30.1848 6.93003 30.1169 6.78756 30.0606 6.67324L30.0456 6.64177C28.5046 3.40123 25.9593 1.28561 22.4828 0.354537C22.0784 0.24685 21.6675 0.175612 21.2698 0.10603C21.0908 0.0745521 20.9102 0.0430746 20.7312 0.00994028L20.6848 0H17.0244L16.6482 0.057985C16.4378 0.092776 16.2273 0.129224 16.0169 0.165671C12.3249 0.825043 9.54269 2.84458 7.74808 6.16795C6.85989 7.81472 6.43899 9.66195 6.46219 11.819C6.46385 11.9664 6.42574 12.0708 6.30477 12.2497C6.13244 12.5049 5.83913 13.0135 5.80765 13.5668C5.74634 14.7 5.74634 15.7255 5.80931 16.7013C5.83251 17.0708 5.99655 17.4021 6.14072 17.6937C6.20037 17.8146 6.25672 17.9273 6.2998 18.0366C6.323 18.0946 6.35117 18.1543 6.37768 18.2123C6.40419 18.2702 6.44562 18.3564 6.45059 18.3846C6.46385 18.8004 6.46219 19.2295 6.46054 19.642C6.45888 19.9038 6.45888 20.1655 6.46054 20.4273C6.47876 22.5528 7.66854 24.0721 9.72497 24.5956C11.4069 25.0247 12.885 25.3924 14.2388 25.7172C14.2322 25.7437 14.2239 25.7702 14.2156 25.7934C13.8743 25.7934 13.513 25.8099 13.1733 25.9143C11.798 26.3335 10.4011 26.7692 9.0522 27.1916C8.14081 27.4766 7.22942 27.7599 6.31803 28.0415C4.35771 28.6479 2.8332 29.6949 1.78594 31.1578C1.33687 31.7841 0.997169 32.4799 0.669069 33.1525L0.544789 33.406C0.402281 33.6959 0.387367 34.0123 0.503362 34.2973C0.6177 34.5773 0.84969 34.7976 1.13968 34.9036C1.69645 35.1024 2.23666 34.8539 2.5167 34.2691C2.54985 34.1979 2.57967 34.125 2.6095 34.0521C2.62276 34.0173 2.63767 33.9825 2.65093 33.9494C3.41981 32.1469 4.70238 30.9192 6.46054 30.3046C7.15982 30.0594 7.88562 29.8358 8.58656 29.6187C9.15493 29.4431 9.74485 29.2609 10.3215 29.067C10.3629 29.0538 10.3878 29.0488 10.4011 29.0472C10.4127 29.0571 10.4375 29.0786 10.4773 29.125C11.3439 30.1307 12.2653 31.1827 13.2181 32.2496C13.4186 32.4749 13.692 32.7632 14.0234 32.9885C15.1187 33.7357 16.2472 33.4491 17.0012 33.1691C17.1768 33.1045 17.3525 33.0316 17.5298 32.9587C18.0567 32.7416 18.5555 32.5362 19.0195 32.5312C19.4205 32.5246 19.8497 32.7068 20.3103 32.8974C20.5224 32.9852 20.7428 33.0763 20.9649 33.1508C22.5606 33.6893 23.8217 33.348 24.9319 32.0773C25.2335 31.7327 25.5367 31.3864 25.84 31.0418C26.4133 30.3874 26.9883 29.7347 27.5584 29.077C27.5733 29.0604 27.5849 29.0472 27.5932 29.0389C28.1135 29.2062 28.6355 29.3686 29.1591 29.5293C29.9363 29.7695 30.7416 30.018 31.5204 30.2847C33.9994 31.1346 35.7178 33.4573 35.794 36.0667C35.8272 37.2148 35.8222 38.3877 35.8172 39.5226C35.8156 39.9467 35.8139 40.3708 35.8139 40.7949H33.3515V40.3791C33.3515 38.9112 33.3515 37.4633 33.3498 36.0153V35.9408C33.3515 35.7983 33.3532 35.6376 33.3167 35.4669C33.2007 34.9219 32.8013 34.5872 32.2744 34.5872C32.2645 34.5872 32.2545 34.5872 32.2446 34.5872C31.6762 34.6005 31.2735 34.9699 31.1923 35.5514C31.1741 35.679 31.1758 35.7983 31.1774 35.9043V40.8082H6.81681V39.6186C6.81681 38.5534 6.81681 37.4865 6.81681 36.4212C6.81681 36.3533 6.81846 36.2837 6.81846 36.2141C6.82178 36.0004 6.82509 35.7784 6.80023 35.5498C6.74058 34.9964 6.34454 34.6187 5.79108 34.5889C5.24424 34.559 4.82003 34.8821 4.68913 35.4321C4.64604 35.6127 4.64604 35.785 4.6477 35.9374V35.9888C4.64604 37.238 4.64604 38.4855 4.64604 39.7346V40.7999H2.17866V39.8937C2.17866 38.9626 2.17866 38.0315 2.177 37.1021C2.177 37.0723 2.177 37.0408 2.17866 37.0093C2.18529 36.8006 2.19192 36.514 2.00467 36.287C1.86879 36.123 1.50258 35.7403 1.05848 35.7353C1.05517 35.7353 1.05351 35.7353 1.0502 35.7353C0.667412 35.7353 0.370796 36.0468 0.155377 36.3185C-0.0136445 36.5322 -0.00370207 36.794 0.00292621 36.9679C0.00458329 36.9961 0.00458329 37.0242 0.00458329 37.0507C0.00126914 38.343 -0.002045 39.6816 0.00458329 40.997C0.0095545 42.2893 0.723752 43 2.01295 43C7.36695 43 12.7193 43 18.0716 43C24.0437 43 30.0175 43 35.9912 43C37.2754 43 37.9863 42.3009 37.993 41.0318L37.9946 40.7071C37.9996 39.3204 38.0062 37.8824 37.988 36.4676ZM13.866 27.9802C14.8785 28.9312 15.8876 29.8871 16.9316 30.8778L16.9415 30.8878C16.5455 31.0187 16.1677 31.1446 15.7882 31.2655C15.5098 31.355 15.2795 31.292 15.0839 31.0733C14.3996 30.3129 13.7351 29.5541 13.0325 28.7506C12.9148 28.6148 12.7955 28.4789 12.6746 28.3431C13.0822 28.2155 13.4749 28.0946 13.866 27.9802ZM29.0928 16.7394V14.2262C29.111 14.2295 29.1276 14.2345 29.1458 14.2378C29.4093 14.2991 29.7126 14.3703 30.039 14.3438V15.979C30.039 16.2507 30.039 16.582 30.0092 16.7096C29.8816 16.7394 29.5485 16.7394 29.2751 16.7394H29.0928ZM7.95853 14.7597V14.6222C8.27503 14.7216 8.57993 14.8193 8.88317 14.9237C8.89146 15.4803 8.8898 16.037 8.8898 16.6235V16.7394C8.62467 16.7428 8.35291 16.7444 8.08944 16.7312C8.01321 16.7278 7.97676 16.7096 7.97178 16.708C7.97178 16.708 7.96184 16.6881 7.96184 16.6351C7.95687 16.0121 7.95687 15.3925 7.95853 14.7597ZM8.64621 19.2245C8.64787 19.1168 8.65118 19.0091 8.65284 18.9014C8.69592 18.8981 8.73901 18.8932 8.78209 18.8898C8.95277 18.8733 9.23779 18.8451 9.3107 18.8898C9.37201 18.9429 9.45486 19.1963 9.50458 19.3471C9.54435 19.4697 9.58577 19.5956 9.63714 19.7182C10.1409 20.9077 10.8269 21.9581 11.682 22.8544C11.1567 22.7268 10.6181 22.5926 10.0962 22.4485C9.22453 22.2049 8.74398 21.6466 8.66776 20.7884C8.62301 20.2798 8.63461 19.7679 8.64621 19.2245ZM28.7309 19.6327C30.2338 20.8415 27.804 23.7937 26.4133 22.755C26.4183 22.75 26.4233 22.745 26.4299 22.7417C26.4415 22.7318 27.3406 21.5025 27.5932 21.1915C28.1646 20.5487 28.6099 19.6625 28.7309 19.6327ZM20.6964 22.6821C20.5854 22.6821 20.5423 22.6638 20.5374 22.6638C20.5357 22.6605 20.5291 22.6473 20.5241 22.6175C20.5125 22.5545 20.5208 22.5247 20.5241 22.5214C20.5274 22.5181 20.549 22.5015 20.6003 22.4915C21.283 22.3524 21.9624 22.2364 22.622 22.1453C22.67 22.1387 22.6916 22.1354 22.7098 22.2381C22.7214 22.306 22.7214 22.3192 22.6418 22.3358C22.1663 22.4352 21.6841 22.5164 21.2168 22.5959C21.0428 22.6241 20.8688 22.6522 20.6964 22.6821ZM26.8955 14.2742C26.874 15.361 26.8508 16.486 26.7332 17.5695C26.6105 18.6944 26.0007 19.7016 25.4837 20.4554C25.3147 20.7023 25.2252 20.7222 25.1109 20.7222C24.8424 20.7238 24.5872 20.7868 24.3934 20.8415C24.3917 20.8398 24.3901 20.8381 24.3901 20.8381C23.8333 20.139 23.0594 19.8541 22.153 20.0148L22.037 20.0346C21.5217 20.1258 20.9881 20.2202 20.4661 20.2997C19.0742 20.5101 18.5853 21.3517 18.418 22.0194C18.2539 22.6771 18.3467 23.2835 18.6781 23.7937C16.8703 23.7755 14.9646 22.9803 13.518 21.5986C11.7946 19.9535 10.9363 17.7384 11.0705 15.3196C11.4086 15.3395 11.7416 15.3495 12.073 15.3495C16.9249 15.3495 20.9848 13.2388 24.3801 11.0403C24.9733 11.9979 25.7919 12.7683 26.8773 13.3896C26.8889 13.3962 26.9038 13.4078 26.9171 13.4194C26.9055 13.7043 26.9005 13.9893 26.8955 14.2742ZM16.0119 27.0094C16.2969 26.5671 16.4096 26.1015 16.4461 25.6675C18.1876 26.1015 19.8729 26.0999 21.5664 25.6608C21.6542 26.3484 21.7222 26.5869 21.989 27.0044L18.9996 29.8374L16.0119 27.0094ZM21.4189 30.5564C22.1513 29.8805 22.8423 29.2427 23.4919 28.5369C23.9973 27.9885 24.342 27.9057 24.9071 28.194C25.0363 28.2602 25.1689 28.3116 25.3031 28.3547C25.0313 28.6661 24.7662 28.9676 24.4994 29.2692C24.3818 29.4 24.2658 29.5326 24.1481 29.6651C23.7687 30.0959 23.3759 30.5415 22.9733 30.9557C22.7214 31.2141 22.4049 31.2937 22.032 31.191C21.7122 31.1031 21.3908 31.0004 21.0544 30.8894C21.1786 30.7784 21.2996 30.6674 21.4189 30.5564Z" fill="#282828"/>
<path d="M9.12673 39.4165C9.62717 39.4215 10.1276 39.4198 10.628 39.4182L11.266 39.4165C11.4947 39.4132 11.7234 39.4165 11.9504 39.4182C12.1691 39.4182 12.3895 39.4198 12.6132 39.4198C12.9049 39.4198 13.1982 39.4182 13.4898 39.4149C14.5122 39.4016 15.1353 38.782 15.1585 37.7565C15.1734 37.0623 15.1734 36.451 15.1568 35.8861C15.1286 34.902 14.4758 34.2642 13.4931 34.2608C11.9719 34.2559 10.4789 34.2559 9.05382 34.2608C8.07283 34.2642 7.42657 34.9103 7.41 35.9026C7.40172 36.4311 7.40172 36.9928 7.40835 37.7217C7.4216 38.7886 8.04798 39.4066 9.12673 39.4165ZM9.60728 37.2098V36.451H12.9629V37.2098H9.60728Z" fill="#282828"/>
</svg>
