<svg width="2130" height="125" viewBox="0 0 2130 125" fill="none" xmlns="http://www.w3.org/2000/svg">
<path d="M456.048 64.712L475.92 89H461.52L444.048 67.208V89H431.664V41H444.048V62.12L460.56 41H475.344L456.048 64.712ZM519.529 83.048C514.665 87.912 508.649 90.344 501.481 90.344C494.313 90.344 488.297 87.912 483.433 83.048C478.569 78.184 476.137 72.168 476.137 65C476.137 57.896 478.569 51.912 483.433 47.048C488.361 42.12 494.377 39.656 501.481 39.656C508.585 39.656 514.601 42.12 519.529 47.048C524.457 51.976 526.921 57.96 526.921 65C526.921 72.104 524.457 78.12 519.529 83.048ZM492.169 74.504C494.665 77 497.769 78.248 501.481 78.248C505.193 78.248 508.297 77 510.793 74.504C513.289 72.008 514.537 68.84 514.537 65C514.537 61.16 513.289 57.992 510.793 55.496C508.297 53 505.193 51.752 501.481 51.752C497.769 51.752 494.665 53 492.169 55.496C489.737 58.056 488.521 61.224 488.521 65C488.521 68.776 489.737 71.944 492.169 74.504ZM567.121 59.144V41H579.505V89H567.121V70.76H548.017V89H535.633V41H548.017V59.144H567.121ZM586.148 41H628.676V52.904H613.7V89H601.316V52.904H586.148V41ZM669.894 46.664V41H682.278V89H669.894V83.336C666.182 88.008 660.966 90.344 654.246 90.344C647.846 90.344 642.342 87.912 637.734 83.048C633.19 78.12 630.918 72.104 630.918 65C630.918 57.96 633.19 51.976 637.734 47.048C642.342 42.12 647.846 39.656 654.246 39.656C660.966 39.656 666.182 41.992 669.894 46.664ZM647.046 74.792C649.542 77.288 652.71 78.536 656.55 78.536C660.39 78.536 663.558 77.288 666.054 74.792C668.614 72.232 669.894 68.968 669.894 65C669.894 61.032 668.614 57.8 666.054 55.304C663.558 52.744 660.39 51.464 656.55 51.464C652.71 51.464 649.542 52.744 647.046 55.304C644.55 57.8 643.302 61.032 643.302 65C643.302 68.968 644.55 72.232 647.046 74.792ZM717.892 64.712L737.764 89H723.364L705.892 67.208V89H693.508V41H705.892V62.12L722.404 41H737.188L717.892 64.712ZM739.241 41H781.769V52.904H766.793V89H754.409V52.904H739.241V41ZM800.767 56.36H810.079C815.519 56.36 819.903 57.864 823.231 60.872C826.559 63.816 828.223 67.752 828.223 72.68C828.223 77.608 826.559 81.576 823.231 84.584C819.903 87.528 815.519 89 810.079 89H788.383V41H800.767V56.36ZM833.503 89V41H845.887V89H833.503ZM800.767 78.056H810.175C811.903 78.056 813.311 77.576 814.399 76.616C815.551 75.592 816.127 74.28 816.127 72.68C816.127 71.08 815.551 69.768 814.399 68.744C813.311 67.72 811.903 67.208 810.175 67.208H800.767V78.056Z" fill="#FF5C00"/>
<path opacity="0.8" d="M882.048 64.712L881.272 64.0808L880.757 64.7137L881.274 65.3452L882.048 64.712ZM901.92 89V90H904.03L902.694 88.3668L901.92 89ZM887.52 89L886.74 89.6255L887.04 90H887.52V89ZM870.048 67.208L870.828 66.5825L869.048 64.3621V67.208H870.048ZM870.048 89V90H871.048V89H870.048ZM857.664 89H856.664V90H857.664V89ZM857.664 41V40H856.664V41H857.664ZM870.048 41H871.048V40H870.048V41ZM870.048 62.12H869.048V65.0227L870.836 62.7359L870.048 62.12ZM886.56 41V40H886.072L885.772 40.3841L886.56 41ZM901.344 41L902.12 41.6312L903.447 40H901.344V41ZM881.274 65.3452L901.146 89.6332L902.694 88.3668L882.822 64.0788L881.274 65.3452ZM901.92 88H887.52V90H901.92V88ZM888.3 88.3745L870.828 66.5825L869.268 67.8335L886.74 89.6255L888.3 88.3745ZM869.048 67.208V89H871.048V67.208H869.048ZM870.048 88H857.664V90H870.048V88ZM858.664 89V41H856.664V89H858.664ZM857.664 42H870.048V40H857.664V42ZM869.048 41V62.12H871.048V41H869.048ZM870.836 62.7359L887.348 41.6159L885.772 40.3841L869.26 61.5041L870.836 62.7359ZM886.56 42H901.344V40H886.56V42ZM900.568 40.3688L881.272 64.0808L882.824 65.3432L902.12 41.6312L900.568 40.3688ZM945.529 83.048L944.822 82.3409L945.529 83.048ZM909.433 83.048L910.14 82.3409L909.433 83.048ZM909.433 47.048L910.14 47.7551L909.433 47.048ZM945.529 47.048L944.822 47.7551L945.529 47.048ZM918.169 74.504L917.444 75.1927L917.453 75.202L917.462 75.2111L918.169 74.504ZM918.169 55.496L917.462 54.7889L917.453 54.798L917.444 54.8073L918.169 55.496ZM944.822 82.3409C940.154 87.0087 934.396 89.344 927.481 89.344V91.344C934.902 91.344 941.176 88.8153 946.236 83.7551L944.822 82.3409ZM927.481 89.344C920.566 89.344 914.808 87.0087 910.14 82.3409L908.726 83.7551C913.786 88.8153 920.06 91.344 927.481 91.344V89.344ZM910.14 82.3409C905.472 77.673 903.137 71.9152 903.137 65H901.137C901.137 72.4208 903.665 78.695 908.726 83.7551L910.14 82.3409ZM903.137 65C903.137 58.1515 905.47 52.4248 910.14 47.7551L908.726 46.3409C903.667 51.3992 901.137 57.6405 901.137 65H903.137ZM910.14 47.7551C914.876 43.0187 920.636 40.656 927.481 40.656V38.656C920.117 38.656 913.845 41.2213 908.726 46.3409L910.14 47.7551ZM927.481 40.656C934.325 40.656 940.085 43.0187 944.822 47.7551L946.236 46.3409C941.116 41.2213 934.844 38.656 927.481 38.656V40.656ZM944.822 47.7551C949.56 52.4934 951.921 58.2222 951.921 65H953.921C953.921 57.6978 951.354 51.4586 946.236 46.3409L944.822 47.7551ZM951.921 65C951.921 71.8445 949.558 77.6045 944.822 82.3409L946.236 83.7551C951.355 78.6355 953.921 72.3635 953.921 65H951.921ZM917.462 75.2111C920.156 77.9051 923.519 79.248 927.481 79.248V77.248C924.019 77.248 921.174 76.0949 918.876 73.7969L917.462 75.2111ZM927.481 79.248C931.443 79.248 934.806 77.9051 937.5 75.2111L936.086 73.7969C933.788 76.0949 930.943 77.248 927.481 77.248V79.248ZM937.5 75.2111C940.201 72.5102 941.537 69.0795 941.537 65H939.537C939.537 68.6005 938.377 71.5058 936.086 73.7969L937.5 75.2111ZM941.537 65C941.537 60.9205 940.201 57.4898 937.5 54.7889L936.086 56.2031C938.377 58.4942 939.537 61.3995 939.537 65H941.537ZM937.5 54.7889C934.806 52.0949 931.443 50.752 927.481 50.752V52.752C930.943 52.752 933.788 53.9051 936.086 56.2031L937.5 54.7889ZM927.481 50.752C923.519 50.752 920.156 52.0949 917.462 54.7889L918.876 56.2031C921.174 53.9051 924.019 52.752 927.481 52.752V50.752ZM917.444 54.8073C914.822 57.5668 913.521 60.9872 913.521 65H915.521C915.521 61.4608 916.651 58.5452 918.894 56.1847L917.444 54.8073ZM913.521 65C913.521 69.0128 914.822 72.4332 917.444 75.1927L918.894 73.8152C916.651 71.4548 915.521 68.5392 915.521 65H913.521ZM993.121 59.144V60.144H994.121V59.144H993.121ZM993.121 41V40H992.121V41H993.121ZM1005.5 41H1006.5V40H1005.5V41ZM1005.5 89V90H1006.5V89H1005.5ZM993.121 89H992.121V90H993.121V89ZM993.121 70.76H994.121V69.76H993.121V70.76ZM974.017 70.76V69.76H973.017V70.76H974.017ZM974.017 89V90H975.017V89H974.017ZM961.633 89H960.633V90H961.633V89ZM961.633 41V40H960.633V41H961.633ZM974.017 41H975.017V40H974.017V41ZM974.017 59.144H973.017V60.144H974.017V59.144ZM994.121 59.144V41H992.121V59.144H994.121ZM993.121 42H1005.5V40H993.121V42ZM1004.5 41V89H1006.5V41H1004.5ZM1005.5 88H993.121V90H1005.5V88ZM994.121 89V70.76H992.121V89H994.121ZM993.121 69.76H974.017V71.76H993.121V69.76ZM973.017 70.76V89H975.017V70.76H973.017ZM974.017 88H961.633V90H974.017V88ZM962.633 89V41H960.633V89H962.633ZM961.633 42H974.017V40H961.633V42ZM973.017 41V59.144H975.017V41H973.017ZM974.017 60.144H993.121V58.144H974.017V60.144ZM1012.15 41V40H1011.15V41H1012.15ZM1054.68 41H1055.68V40H1054.68V41ZM1054.68 52.904V53.904H1055.68V52.904H1054.68ZM1039.7 52.904V51.904H1038.7V52.904H1039.7ZM1039.7 89V90H1040.7V89H1039.7ZM1027.32 89H1026.32V90H1027.32V89ZM1027.32 52.904H1028.32V51.904H1027.32V52.904ZM1012.15 52.904H1011.15V53.904H1012.15V52.904ZM1012.15 42H1054.68V40H1012.15V42ZM1053.68 41V52.904H1055.68V41H1053.68ZM1054.68 51.904H1039.7V53.904H1054.68V51.904ZM1038.7 52.904V89H1040.7V52.904H1038.7ZM1039.7 88H1027.32V90H1039.7V88ZM1028.32 89V52.904H1026.32V89H1028.32ZM1027.32 51.904H1012.15V53.904H1027.32V51.904ZM1013.15 52.904V41H1011.15V52.904H1013.15ZM1095.89 46.664L1095.11 47.2861L1096.89 49.5301V46.664H1095.89ZM1095.89 41V40H1094.89V41H1095.89ZM1108.28 41H1109.28V40H1108.28V41ZM1108.28 89V90H1109.28V89H1108.28ZM1095.89 89H1094.89V90H1095.89V89ZM1095.89 83.336H1096.89V80.4699L1095.11 82.7139L1095.89 83.336ZM1063.73 83.048L1063 83.7259L1063.01 83.7357L1063.73 83.048ZM1063.73 47.048L1063 46.365L1063 46.3701L1063.73 47.048ZM1073.05 74.792L1072.33 75.4902L1072.34 75.4991L1073.05 74.792ZM1092.05 74.792L1092.76 75.4991L1092.05 74.792ZM1092.05 55.304L1091.34 56.0021L1091.35 56.0112L1091.36 56.02L1092.05 55.304ZM1073.05 55.304L1073.75 56.0112L1073.76 56.0021L1073.05 55.304ZM1096.89 46.664V41H1094.89V46.664H1096.89ZM1095.89 42H1108.28V40H1095.89V42ZM1107.28 41V89H1109.28V41H1107.28ZM1108.28 88H1095.89V90H1108.28V88ZM1096.89 89V83.336H1094.89V89H1096.89ZM1095.11 82.7139C1091.61 87.115 1086.7 89.344 1080.25 89.344V91.344C1087.23 91.344 1092.75 88.901 1096.68 83.9581L1095.11 82.7139ZM1080.25 89.344C1074.13 89.344 1068.89 87.0354 1064.46 82.3603L1063.01 83.7357C1067.79 88.7886 1073.56 91.344 1080.25 91.344V89.344ZM1064.47 82.3701C1060.11 77.6385 1057.92 71.8693 1057.92 65H1055.92C1055.92 72.3387 1058.27 78.6014 1063 83.7259L1064.47 82.3701ZM1057.92 65C1057.92 58.1973 1060.1 52.4593 1064.47 47.7259L1063 46.3701C1058.28 51.4927 1055.92 57.7227 1055.92 65H1057.92ZM1064.46 47.731C1068.89 42.9929 1074.14 40.656 1080.25 40.656V38.656C1073.55 38.656 1067.79 41.2471 1063 46.365L1064.46 47.731ZM1080.25 40.656C1086.7 40.656 1091.61 42.8851 1095.11 47.2861L1096.68 46.0419C1092.75 41.0989 1087.23 38.656 1080.25 38.656V40.656ZM1072.34 75.4991C1075.04 78.2001 1078.47 79.536 1082.55 79.536V77.536C1078.95 77.536 1076.04 76.3759 1073.75 74.0849L1072.34 75.4991ZM1082.55 79.536C1086.63 79.536 1090.06 78.2001 1092.76 75.4991L1091.35 74.0849C1089.06 76.3759 1086.15 77.536 1082.55 77.536V79.536ZM1092.76 75.4991C1095.53 72.7327 1096.89 69.2052 1096.89 65H1094.89C1094.89 68.7308 1093.7 71.7313 1091.35 74.0849L1092.76 75.4991ZM1096.89 65C1096.89 60.795 1095.53 57.2938 1092.75 54.588L1091.36 56.02C1093.7 58.3062 1094.89 61.269 1094.89 65H1096.89ZM1092.77 54.6059C1090.07 51.8376 1086.64 50.464 1082.55 50.464V52.464C1086.14 52.464 1089.05 53.6504 1091.34 56.0021L1092.77 54.6059ZM1082.55 50.464C1078.46 50.464 1075.03 51.8376 1072.33 54.6059L1073.76 56.0021C1076.05 53.6504 1078.96 52.464 1082.55 52.464V50.464ZM1072.34 54.5969C1069.63 57.3044 1068.3 60.8027 1068.3 65H1070.3C1070.3 61.2613 1071.47 58.2956 1073.75 56.0111L1072.34 54.5969ZM1068.3 65C1068.3 69.1976 1069.63 72.7221 1072.33 75.4901L1073.76 74.0939C1071.47 71.7419 1070.3 68.7384 1070.3 65H1068.3ZM1143.89 64.712L1143.12 64.0808L1142.6 64.7137L1143.12 65.3452L1143.89 64.712ZM1163.76 89V90H1165.87L1164.54 88.3668L1163.76 89ZM1149.36 89L1148.58 89.6255L1148.88 90H1149.36V89ZM1131.89 67.208L1132.67 66.5825L1130.89 64.3621V67.208H1131.89ZM1131.89 89V90H1132.89V89H1131.89ZM1119.51 89H1118.51V90H1119.51V89ZM1119.51 41V40H1118.51V41H1119.51ZM1131.89 41H1132.89V40H1131.89V41ZM1131.89 62.12H1130.89V65.0227L1132.68 62.7359L1131.89 62.12ZM1148.4 41V40H1147.92L1147.62 40.3841L1148.4 41ZM1163.19 41L1163.96 41.6312L1165.29 40H1163.19V41ZM1143.12 65.3452L1162.99 89.6332L1164.54 88.3668L1144.67 64.0788L1143.12 65.3452ZM1163.76 88H1149.36V90H1163.76V88ZM1150.14 88.3745L1132.67 66.5825L1131.11 67.8335L1148.58 89.6255L1150.14 88.3745ZM1130.89 67.208V89H1132.89V67.208H1130.89ZM1131.89 88H1119.51V90H1131.89V88ZM1120.51 89V41H1118.51V89H1120.51ZM1119.51 42H1131.89V40H1119.51V42ZM1130.89 41V62.12H1132.89V41H1130.89ZM1132.68 62.7359L1149.19 41.6159L1147.62 40.3841L1131.1 61.5041L1132.68 62.7359ZM1148.4 42H1163.19V40H1148.4V42ZM1162.41 40.3688L1143.12 64.0808L1144.67 65.3432L1163.96 41.6312L1162.41 40.3688ZM1165.24 41V40H1164.24V41H1165.24ZM1207.77 41H1208.77V40H1207.77V41ZM1207.77 52.904V53.904H1208.77V52.904H1207.77ZM1192.79 52.904V51.904H1191.79V52.904H1192.79ZM1192.79 89V90H1193.79V89H1192.79ZM1180.41 89H1179.41V90H1180.41V89ZM1180.41 52.904H1181.41V51.904H1180.41V52.904ZM1165.24 52.904H1164.24V53.904H1165.24V52.904ZM1165.24 42H1207.77V40H1165.24V42ZM1206.77 41V52.904H1208.77V41H1206.77ZM1207.77 51.904H1192.79V53.904H1207.77V51.904ZM1191.79 52.904V89H1193.79V52.904H1191.79ZM1192.79 88H1180.41V90H1192.79V88ZM1181.41 89V52.904H1179.41V89H1181.41ZM1180.41 51.904H1165.24V53.904H1180.41V51.904ZM1166.24 52.904V41H1164.24V52.904H1166.24ZM1226.77 56.36H1225.77V57.36H1226.77V56.36ZM1249.23 60.872L1248.56 61.6139L1248.57 61.621L1249.23 60.872ZM1249.23 84.584L1249.89 85.333L1249.9 85.3259L1249.23 84.584ZM1214.38 89H1213.38V90H1214.38V89ZM1214.38 41V40H1213.38V41H1214.38ZM1226.77 41H1227.77V40H1226.77V41ZM1259.5 89H1258.5V90H1259.5V89ZM1259.5 41V40H1258.5V41H1259.5ZM1271.89 41H1272.89V40H1271.89V41ZM1271.89 89V90H1272.89V89H1271.89ZM1226.77 78.056H1225.77V79.056H1226.77V78.056ZM1240.4 76.616L1241.06 77.3658L1241.06 77.3634L1240.4 76.616ZM1240.4 68.744L1239.71 69.4722L1239.72 69.482L1239.73 69.4914L1240.4 68.744ZM1226.77 67.208V66.208H1225.77V67.208H1226.77ZM1226.77 57.36H1236.08V55.36H1226.77V57.36ZM1236.08 57.36C1241.33 57.36 1245.45 58.8057 1248.56 61.6139L1249.9 60.1301C1246.35 56.9223 1241.71 55.36 1236.08 55.36V57.36ZM1248.57 61.621C1251.66 64.3532 1253.22 68.0035 1253.22 72.68H1255.22C1255.22 67.5005 1253.46 63.2788 1249.89 60.123L1248.57 61.621ZM1253.22 72.68C1253.22 77.3564 1251.66 81.0436 1248.56 83.8421L1249.9 85.3259C1253.46 82.1084 1255.22 77.8596 1255.22 72.68H1253.22ZM1248.57 83.835C1245.46 86.583 1241.33 88 1236.08 88V90C1241.71 90 1246.34 88.473 1249.89 85.333L1248.57 83.835ZM1236.08 88H1214.38V90H1236.08V88ZM1215.38 89V41H1213.38V89H1215.38ZM1214.38 42H1226.77V40H1214.38V42ZM1225.77 41V56.36H1227.77V41H1225.77ZM1260.5 89V41H1258.5V89H1260.5ZM1259.5 42H1271.89V40H1259.5V42ZM1270.89 41V89H1272.89V41H1270.89ZM1271.89 88H1259.5V90H1271.89V88ZM1226.77 79.056H1236.17V77.056H1226.77V79.056ZM1236.17 79.056C1238.1 79.056 1239.76 78.5167 1241.06 77.3658L1239.74 75.8662C1238.87 76.6353 1237.71 77.056 1236.17 77.056V79.056ZM1241.06 77.3634C1242.44 76.1416 1243.13 74.5533 1243.13 72.68H1241.13C1241.13 74.0067 1240.66 75.0424 1239.73 75.8686L1241.06 77.3634ZM1243.13 72.68C1243.13 70.8067 1242.44 69.2184 1241.06 67.9966L1239.73 69.4914C1240.66 70.3176 1241.13 71.3533 1241.13 72.68H1243.13ZM1241.08 68.0158C1239.78 66.7899 1238.11 66.208 1236.17 66.208V68.208C1237.69 68.208 1238.84 68.65 1239.71 69.4722L1241.08 68.0158ZM1236.17 66.208H1226.77V68.208H1236.17V66.208ZM1225.77 67.208V78.056H1227.77V67.208H1225.77Z" fill="#FF5C00"/>
<path opacity="0.6" d="M1308.05 64.712L1307.27 64.0808L1306.76 64.7137L1307.27 65.3452L1308.05 64.712ZM1327.92 89V90H1330.03L1328.69 88.3668L1327.92 89ZM1313.52 89L1312.74 89.6255L1313.04 90H1313.52V89ZM1296.05 67.208L1296.83 66.5825L1295.05 64.3621V67.208H1296.05ZM1296.05 89V90H1297.05V89H1296.05ZM1283.66 89H1282.66V90H1283.66V89ZM1283.66 41V40H1282.66V41H1283.66ZM1296.05 41H1297.05V40H1296.05V41ZM1296.05 62.12H1295.05V65.0227L1296.84 62.7359L1296.05 62.12ZM1312.56 41V40H1312.07L1311.77 40.3841L1312.56 41ZM1327.34 41L1328.12 41.6312L1329.45 40H1327.34V41ZM1307.27 65.3452L1327.15 89.6332L1328.69 88.3668L1308.82 64.0788L1307.27 65.3452ZM1327.92 88H1313.52V90H1327.92V88ZM1314.3 88.3745L1296.83 66.5825L1295.27 67.8335L1312.74 89.6255L1314.3 88.3745ZM1295.05 67.208V89H1297.05V67.208H1295.05ZM1296.05 88H1283.66V90H1296.05V88ZM1284.66 89V41H1282.66V89H1284.66ZM1283.66 42H1296.05V40H1283.66V42ZM1295.05 41V62.12H1297.05V41H1295.05ZM1296.84 62.7359L1313.35 41.6159L1311.77 40.3841L1295.26 61.5041L1296.84 62.7359ZM1312.56 42H1327.34V40H1312.56V42ZM1326.57 40.3688L1307.27 64.0808L1308.82 65.3432L1328.12 41.6312L1326.57 40.3688ZM1371.53 83.048L1370.82 82.3409L1371.53 83.048ZM1335.43 83.048L1336.14 82.3409L1335.43 83.048ZM1335.43 47.048L1336.14 47.7551L1335.43 47.048ZM1371.53 47.048L1370.82 47.7551L1371.53 47.048ZM1344.17 74.504L1343.44 75.1927L1343.45 75.202L1343.46 75.2111L1344.17 74.504ZM1344.17 55.496L1343.46 54.7889L1343.45 54.798L1343.44 54.8073L1344.17 55.496ZM1370.82 82.3409C1366.15 87.0087 1360.4 89.344 1353.48 89.344V91.344C1360.9 91.344 1367.18 88.8153 1372.24 83.7551L1370.82 82.3409ZM1353.48 89.344C1346.57 89.344 1340.81 87.0087 1336.14 82.3409L1334.73 83.7551C1339.79 88.8153 1346.06 91.344 1353.48 91.344V89.344ZM1336.14 82.3409C1331.47 77.673 1329.14 71.9152 1329.14 65H1327.14C1327.14 72.4208 1329.67 78.695 1334.73 83.7551L1336.14 82.3409ZM1329.14 65C1329.14 58.1515 1331.47 52.4248 1336.14 47.7551L1334.73 46.3409C1329.67 51.3992 1327.14 57.6405 1327.14 65H1329.14ZM1336.14 47.7551C1340.88 43.0187 1346.64 40.656 1353.48 40.656V38.656C1346.12 38.656 1339.85 41.2213 1334.73 46.3409L1336.14 47.7551ZM1353.48 40.656C1360.33 40.656 1366.09 43.0187 1370.82 47.7551L1372.24 46.3409C1367.12 41.2213 1360.84 38.656 1353.48 38.656V40.656ZM1370.82 47.7551C1375.56 52.4934 1377.92 58.2222 1377.92 65H1379.92C1379.92 57.6978 1377.35 51.4586 1372.24 46.3409L1370.82 47.7551ZM1377.92 65C1377.92 71.8445 1375.56 77.6045 1370.82 82.3409L1372.24 83.7551C1377.36 78.6355 1379.92 72.3635 1379.92 65H1377.92ZM1343.46 75.2111C1346.16 77.9051 1349.52 79.248 1353.48 79.248V77.248C1350.02 77.248 1347.17 76.0949 1344.88 73.7969L1343.46 75.2111ZM1353.48 79.248C1357.44 79.248 1360.81 77.9051 1363.5 75.2111L1362.09 73.7969C1359.79 76.0949 1356.94 77.248 1353.48 77.248V79.248ZM1363.5 75.2111C1366.2 72.5102 1367.54 69.0795 1367.54 65H1365.54C1365.54 68.6005 1364.38 71.5058 1362.09 73.7969L1363.5 75.2111ZM1367.54 65C1367.54 60.9205 1366.2 57.4898 1363.5 54.7889L1362.09 56.2031C1364.38 58.4942 1365.54 61.3995 1365.54 65H1367.54ZM1363.5 54.7889C1360.81 52.0949 1357.44 50.752 1353.48 50.752V52.752C1356.94 52.752 1359.79 53.9051 1362.09 56.2031L1363.5 54.7889ZM1353.48 50.752C1349.52 50.752 1346.16 52.0949 1343.46 54.7889L1344.88 56.2031C1347.17 53.9051 1350.02 52.752 1353.48 52.752V50.752ZM1343.44 54.8073C1340.82 57.5668 1339.52 60.9872 1339.52 65H1341.52C1341.52 61.4608 1342.65 58.5452 1344.89 56.1847L1343.44 54.8073ZM1339.52 65C1339.52 69.0128 1340.82 72.4332 1343.44 75.1927L1344.89 73.8152C1342.65 71.4548 1341.52 68.5392 1341.52 65H1339.52ZM1419.12 59.144V60.144H1420.12V59.144H1419.12ZM1419.12 41V40H1418.12V41H1419.12ZM1431.5 41H1432.5V40H1431.5V41ZM1431.5 89V90H1432.5V89H1431.5ZM1419.12 89H1418.12V90H1419.12V89ZM1419.12 70.76H1420.12V69.76H1419.12V70.76ZM1400.02 70.76V69.76H1399.02V70.76H1400.02ZM1400.02 89V90H1401.02V89H1400.02ZM1387.63 89H1386.63V90H1387.63V89ZM1387.63 41V40H1386.63V41H1387.63ZM1400.02 41H1401.02V40H1400.02V41ZM1400.02 59.144H1399.02V60.144H1400.02V59.144ZM1420.12 59.144V41H1418.12V59.144H1420.12ZM1419.12 42H1431.5V40H1419.12V42ZM1430.5 41V89H1432.5V41H1430.5ZM1431.5 88H1419.12V90H1431.5V88ZM1420.12 89V70.76H1418.12V89H1420.12ZM1419.12 69.76H1400.02V71.76H1419.12V69.76ZM1399.02 70.76V89H1401.02V70.76H1399.02ZM1400.02 88H1387.63V90H1400.02V88ZM1388.63 89V41H1386.63V89H1388.63ZM1387.63 42H1400.02V40H1387.63V42ZM1399.02 41V59.144H1401.02V41H1399.02ZM1400.02 60.144H1419.12V58.144H1400.02V60.144ZM1438.15 41V40H1437.15V41H1438.15ZM1480.68 41H1481.68V40H1480.68V41ZM1480.68 52.904V53.904H1481.68V52.904H1480.68ZM1465.7 52.904V51.904H1464.7V52.904H1465.7ZM1465.7 89V90H1466.7V89H1465.7ZM1453.32 89H1452.32V90H1453.32V89ZM1453.32 52.904H1454.32V51.904H1453.32V52.904ZM1438.15 52.904H1437.15V53.904H1438.15V52.904ZM1438.15 42H1480.68V40H1438.15V42ZM1479.68 41V52.904H1481.68V41H1479.68ZM1480.68 51.904H1465.7V53.904H1480.68V51.904ZM1464.7 52.904V89H1466.7V52.904H1464.7ZM1465.7 88H1453.32V90H1465.7V88ZM1454.32 89V52.904H1452.32V89H1454.32ZM1453.32 51.904H1438.15V53.904H1453.32V51.904ZM1439.15 52.904V41H1437.15V52.904H1439.15ZM1521.89 46.664L1521.11 47.2861L1522.89 49.5301V46.664H1521.89ZM1521.89 41V40H1520.89V41H1521.89ZM1534.28 41H1535.28V40H1534.28V41ZM1534.28 89V90H1535.28V89H1534.28ZM1521.89 89H1520.89V90H1521.89V89ZM1521.89 83.336H1522.89V80.4699L1521.11 82.7139L1521.89 83.336ZM1489.73 83.048L1489 83.7259L1489.01 83.7357L1489.73 83.048ZM1489.73 47.048L1489 46.365L1489 46.3701L1489.73 47.048ZM1499.05 74.792L1498.33 75.4902L1498.34 75.4991L1499.05 74.792ZM1518.05 74.792L1518.76 75.4991L1518.05 74.792ZM1518.05 55.304L1517.34 56.0021L1517.35 56.0112L1517.36 56.02L1518.05 55.304ZM1499.05 55.304L1499.75 56.0112L1499.76 56.0021L1499.05 55.304ZM1522.89 46.664V41H1520.89V46.664H1522.89ZM1521.89 42H1534.28V40H1521.89V42ZM1533.28 41V89H1535.28V41H1533.28ZM1534.28 88H1521.89V90H1534.28V88ZM1522.89 89V83.336H1520.89V89H1522.89ZM1521.11 82.7139C1517.61 87.115 1512.7 89.344 1506.25 89.344V91.344C1513.23 91.344 1518.75 88.901 1522.68 83.9581L1521.11 82.7139ZM1506.25 89.344C1500.13 89.344 1494.89 87.0354 1490.46 82.3603L1489.01 83.7357C1493.79 88.7886 1499.56 91.344 1506.25 91.344V89.344ZM1490.47 82.3701C1486.11 77.6385 1483.92 71.8693 1483.92 65H1481.92C1481.92 72.3387 1484.27 78.6014 1489 83.7259L1490.47 82.3701ZM1483.92 65C1483.92 58.1973 1486.1 52.4593 1490.47 47.7259L1489 46.3701C1484.28 51.4927 1481.92 57.7227 1481.92 65H1483.92ZM1490.46 47.731C1494.89 42.9929 1500.14 40.656 1506.25 40.656V38.656C1499.55 38.656 1493.79 41.2471 1489 46.365L1490.46 47.731ZM1506.25 40.656C1512.7 40.656 1517.61 42.8851 1521.11 47.2861L1522.68 46.0419C1518.75 41.0989 1513.23 38.656 1506.25 38.656V40.656ZM1498.34 75.4991C1501.04 78.2001 1504.47 79.536 1508.55 79.536V77.536C1504.95 77.536 1502.04 76.3759 1499.75 74.0849L1498.34 75.4991ZM1508.55 79.536C1512.63 79.536 1516.06 78.2001 1518.76 75.4991L1517.35 74.0849C1515.06 76.3759 1512.15 77.536 1508.55 77.536V79.536ZM1518.76 75.4991C1521.53 72.7327 1522.89 69.2052 1522.89 65H1520.89C1520.89 68.7308 1519.7 71.7313 1517.35 74.0849L1518.76 75.4991ZM1522.89 65C1522.89 60.795 1521.53 57.2938 1518.75 54.588L1517.36 56.02C1519.7 58.3062 1520.89 61.269 1520.89 65H1522.89ZM1518.77 54.6059C1516.07 51.8376 1512.64 50.464 1508.55 50.464V52.464C1512.14 52.464 1515.05 53.6504 1517.34 56.0021L1518.77 54.6059ZM1508.55 50.464C1504.46 50.464 1501.03 51.8376 1498.33 54.6059L1499.76 56.0021C1502.05 53.6504 1504.96 52.464 1508.55 52.464V50.464ZM1498.34 54.5969C1495.63 57.3044 1494.3 60.8027 1494.3 65H1496.3C1496.3 61.2613 1497.47 58.2956 1499.75 56.0111L1498.34 54.5969ZM1494.3 65C1494.3 69.1976 1495.63 72.7221 1498.33 75.4901L1499.76 74.0939C1497.47 71.7419 1496.3 68.7384 1496.3 65H1494.3ZM1569.89 64.712L1569.12 64.0808L1568.6 64.7137L1569.12 65.3452L1569.89 64.712ZM1589.76 89V90H1591.87L1590.54 88.3668L1589.76 89ZM1575.36 89L1574.58 89.6255L1574.88 90H1575.36V89ZM1557.89 67.208L1558.67 66.5825L1556.89 64.3621V67.208H1557.89ZM1557.89 89V90H1558.89V89H1557.89ZM1545.51 89H1544.51V90H1545.51V89ZM1545.51 41V40H1544.51V41H1545.51ZM1557.89 41H1558.89V40H1557.89V41ZM1557.89 62.12H1556.89V65.0227L1558.68 62.7359L1557.89 62.12ZM1574.4 41V40H1573.92L1573.62 40.3841L1574.4 41ZM1589.19 41L1589.96 41.6312L1591.29 40H1589.19V41ZM1569.12 65.3452L1588.99 89.6332L1590.54 88.3668L1570.67 64.0788L1569.12 65.3452ZM1589.76 88H1575.36V90H1589.76V88ZM1576.14 88.3745L1558.67 66.5825L1557.11 67.8335L1574.58 89.6255L1576.14 88.3745ZM1556.89 67.208V89H1558.89V67.208H1556.89ZM1557.89 88H1545.51V90H1557.89V88ZM1546.51 89V41H1544.51V89H1546.51ZM1545.51 42H1557.89V40H1545.51V42ZM1556.89 41V62.12H1558.89V41H1556.89ZM1558.68 62.7359L1575.19 41.6159L1573.62 40.3841L1557.1 61.5041L1558.68 62.7359ZM1574.4 42H1589.19V40H1574.4V42ZM1588.41 40.3688L1569.12 64.0808L1570.67 65.3432L1589.96 41.6312L1588.41 40.3688ZM1591.24 41V40H1590.24V41H1591.24ZM1633.77 41H1634.77V40H1633.77V41ZM1633.77 52.904V53.904H1634.77V52.904H1633.77ZM1618.79 52.904V51.904H1617.79V52.904H1618.79ZM1618.79 89V90H1619.79V89H1618.79ZM1606.41 89H1605.41V90H1606.41V89ZM1606.41 52.904H1607.41V51.904H1606.41V52.904ZM1591.24 52.904H1590.24V53.904H1591.24V52.904ZM1591.24 42H1633.77V40H1591.24V42ZM1632.77 41V52.904H1634.77V41H1632.77ZM1633.77 51.904H1618.79V53.904H1633.77V51.904ZM1617.79 52.904V89H1619.79V52.904H1617.79ZM1618.79 88H1606.41V90H1618.79V88ZM1607.41 89V52.904H1605.41V89H1607.41ZM1606.41 51.904H1591.24V53.904H1606.41V51.904ZM1592.24 52.904V41H1590.24V52.904H1592.24ZM1652.77 56.36H1651.77V57.36H1652.77V56.36ZM1675.23 60.872L1674.56 61.6139L1674.57 61.621L1675.23 60.872ZM1675.23 84.584L1675.89 85.333L1675.9 85.3259L1675.23 84.584ZM1640.38 89H1639.38V90H1640.38V89ZM1640.38 41V40H1639.38V41H1640.38ZM1652.77 41H1653.77V40H1652.77V41ZM1685.5 89H1684.5V90H1685.5V89ZM1685.5 41V40H1684.5V41H1685.5ZM1697.89 41H1698.89V40H1697.89V41ZM1697.89 89V90H1698.89V89H1697.89ZM1652.77 78.056H1651.77V79.056H1652.77V78.056ZM1666.4 76.616L1667.06 77.3658L1667.06 77.3634L1666.4 76.616ZM1666.4 68.744L1665.71 69.4722L1665.72 69.482L1665.73 69.4914L1666.4 68.744ZM1652.77 67.208V66.208H1651.77V67.208H1652.77ZM1652.77 57.36H1662.08V55.36H1652.77V57.36ZM1662.08 57.36C1667.33 57.36 1671.45 58.8057 1674.56 61.6139L1675.9 60.1301C1672.35 56.9223 1667.71 55.36 1662.08 55.36V57.36ZM1674.57 61.621C1677.66 64.3532 1679.22 68.0035 1679.22 72.68H1681.22C1681.22 67.5005 1679.46 63.2788 1675.89 60.123L1674.57 61.621ZM1679.22 72.68C1679.22 77.3564 1677.66 81.0436 1674.56 83.8421L1675.9 85.3259C1679.46 82.1084 1681.22 77.8596 1681.22 72.68H1679.22ZM1674.57 83.835C1671.46 86.583 1667.33 88 1662.08 88V90C1667.71 90 1672.34 88.473 1675.89 85.333L1674.57 83.835ZM1662.08 88H1640.38V90H1662.08V88ZM1641.38 89V41H1639.38V89H1641.38ZM1640.38 42H1652.77V40H1640.38V42ZM1651.77 41V56.36H1653.77V41H1651.77ZM1686.5 89V41H1684.5V89H1686.5ZM1685.5 42H1697.89V40H1685.5V42ZM1696.89 41V89H1698.89V41H1696.89ZM1697.89 88H1685.5V90H1697.89V88ZM1652.77 79.056H1662.17V77.056H1652.77V79.056ZM1662.17 79.056C1664.1 79.056 1665.76 78.5167 1667.06 77.3658L1665.74 75.8662C1664.87 76.6353 1663.71 77.056 1662.17 77.056V79.056ZM1667.06 77.3634C1668.44 76.1416 1669.13 74.5533 1669.13 72.68H1667.13C1667.13 74.0067 1666.66 75.0424 1665.73 75.8686L1667.06 77.3634ZM1669.13 72.68C1669.13 70.8067 1668.44 69.2184 1667.06 67.9966L1665.73 69.4914C1666.66 70.3176 1667.13 71.3533 1667.13 72.68H1669.13ZM1667.08 68.0158C1665.78 66.7899 1664.11 66.208 1662.17 66.208V68.208C1663.69 68.208 1664.84 68.65 1665.71 69.4722L1667.08 68.0158ZM1662.17 66.208H1652.77V68.208H1662.17V66.208ZM1651.77 67.208V78.056H1653.77V67.208H1651.77Z" fill="#FF5C00"/>
<path opacity="0.4" d="M1734.05 64.712L1733.27 64.0808L1732.76 64.7137L1733.27 65.3452L1734.05 64.712ZM1753.92 89V90H1756.03L1754.69 88.3668L1753.92 89ZM1739.52 89L1738.74 89.6255L1739.04 90H1739.52V89ZM1722.05 67.208L1722.83 66.5825L1721.05 64.3621V67.208H1722.05ZM1722.05 89V90H1723.05V89H1722.05ZM1709.66 89H1708.66V90H1709.66V89ZM1709.66 41V40H1708.66V41H1709.66ZM1722.05 41H1723.05V40H1722.05V41ZM1722.05 62.12H1721.05V65.0227L1722.84 62.7359L1722.05 62.12ZM1738.56 41V40H1738.07L1737.77 40.3841L1738.56 41ZM1753.34 41L1754.12 41.6312L1755.45 40H1753.34V41ZM1733.27 65.3452L1753.15 89.6332L1754.69 88.3668L1734.82 64.0788L1733.27 65.3452ZM1753.92 88H1739.52V90H1753.92V88ZM1740.3 88.3745L1722.83 66.5825L1721.27 67.8335L1738.74 89.6255L1740.3 88.3745ZM1721.05 67.208V89H1723.05V67.208H1721.05ZM1722.05 88H1709.66V90H1722.05V88ZM1710.66 89V41H1708.66V89H1710.66ZM1709.66 42H1722.05V40H1709.66V42ZM1721.05 41V62.12H1723.05V41H1721.05ZM1722.84 62.7359L1739.35 41.6159L1737.77 40.3841L1721.26 61.5041L1722.84 62.7359ZM1738.56 42H1753.34V40H1738.56V42ZM1752.57 40.3688L1733.27 64.0808L1734.82 65.3432L1754.12 41.6312L1752.57 40.3688ZM1797.53 83.048L1796.82 82.3409L1797.53 83.048ZM1761.43 83.048L1762.14 82.3409L1761.43 83.048ZM1761.43 47.048L1762.14 47.7551L1761.43 47.048ZM1797.53 47.048L1796.82 47.7551L1797.53 47.048ZM1770.17 74.504L1769.44 75.1927L1769.45 75.202L1769.46 75.2111L1770.17 74.504ZM1770.17 55.496L1769.46 54.7889L1769.45 54.798L1769.44 54.8073L1770.17 55.496ZM1796.82 82.3409C1792.15 87.0087 1786.4 89.344 1779.48 89.344V91.344C1786.9 91.344 1793.18 88.8153 1798.24 83.7551L1796.82 82.3409ZM1779.48 89.344C1772.57 89.344 1766.81 87.0087 1762.14 82.3409L1760.73 83.7551C1765.79 88.8153 1772.06 91.344 1779.48 91.344V89.344ZM1762.14 82.3409C1757.47 77.673 1755.14 71.9152 1755.14 65H1753.14C1753.14 72.4208 1755.67 78.695 1760.73 83.7551L1762.14 82.3409ZM1755.14 65C1755.14 58.1515 1757.47 52.4248 1762.14 47.7551L1760.73 46.3409C1755.67 51.3992 1753.14 57.6405 1753.14 65H1755.14ZM1762.14 47.7551C1766.88 43.0187 1772.64 40.656 1779.48 40.656V38.656C1772.12 38.656 1765.85 41.2213 1760.73 46.3409L1762.14 47.7551ZM1779.48 40.656C1786.33 40.656 1792.09 43.0187 1796.82 47.7551L1798.24 46.3409C1793.12 41.2213 1786.84 38.656 1779.48 38.656V40.656ZM1796.82 47.7551C1801.56 52.4934 1803.92 58.2222 1803.92 65H1805.92C1805.92 57.6978 1803.35 51.4586 1798.24 46.3409L1796.82 47.7551ZM1803.92 65C1803.92 71.8445 1801.56 77.6045 1796.82 82.3409L1798.24 83.7551C1803.36 78.6355 1805.92 72.3635 1805.92 65H1803.92ZM1769.46 75.2111C1772.16 77.9051 1775.52 79.248 1779.48 79.248V77.248C1776.02 77.248 1773.17 76.0949 1770.88 73.7969L1769.46 75.2111ZM1779.48 79.248C1783.44 79.248 1786.81 77.9051 1789.5 75.2111L1788.09 73.7969C1785.79 76.0949 1782.94 77.248 1779.48 77.248V79.248ZM1789.5 75.2111C1792.2 72.5102 1793.54 69.0795 1793.54 65H1791.54C1791.54 68.6005 1790.38 71.5058 1788.09 73.7969L1789.5 75.2111ZM1793.54 65C1793.54 60.9205 1792.2 57.4898 1789.5 54.7889L1788.09 56.2031C1790.38 58.4942 1791.54 61.3995 1791.54 65H1793.54ZM1789.5 54.7889C1786.81 52.0949 1783.44 50.752 1779.48 50.752V52.752C1782.94 52.752 1785.79 53.9051 1788.09 56.2031L1789.5 54.7889ZM1779.48 50.752C1775.52 50.752 1772.16 52.0949 1769.46 54.7889L1770.88 56.2031C1773.17 53.9051 1776.02 52.752 1779.48 52.752V50.752ZM1769.44 54.8073C1766.82 57.5668 1765.52 60.9872 1765.52 65H1767.52C1767.52 61.4608 1768.65 58.5452 1770.89 56.1847L1769.44 54.8073ZM1765.52 65C1765.52 69.0128 1766.82 72.4332 1769.44 75.1927L1770.89 73.8152C1768.65 71.4548 1767.52 68.5392 1767.52 65H1765.52ZM1845.12 59.144V60.144H1846.12V59.144H1845.12ZM1845.12 41V40H1844.12V41H1845.12ZM1857.5 41H1858.5V40H1857.5V41ZM1857.5 89V90H1858.5V89H1857.5ZM1845.12 89H1844.12V90H1845.12V89ZM1845.12 70.76H1846.12V69.76H1845.12V70.76ZM1826.02 70.76V69.76H1825.02V70.76H1826.02ZM1826.02 89V90H1827.02V89H1826.02ZM1813.63 89H1812.63V90H1813.63V89ZM1813.63 41V40H1812.63V41H1813.63ZM1826.02 41H1827.02V40H1826.02V41ZM1826.02 59.144H1825.02V60.144H1826.02V59.144ZM1846.12 59.144V41H1844.12V59.144H1846.12ZM1845.12 42H1857.5V40H1845.12V42ZM1856.5 41V89H1858.5V41H1856.5ZM1857.5 88H1845.12V90H1857.5V88ZM1846.12 89V70.76H1844.12V89H1846.12ZM1845.12 69.76H1826.02V71.76H1845.12V69.76ZM1825.02 70.76V89H1827.02V70.76H1825.02ZM1826.02 88H1813.63V90H1826.02V88ZM1814.63 89V41H1812.63V89H1814.63ZM1813.63 42H1826.02V40H1813.63V42ZM1825.02 41V59.144H1827.02V41H1825.02ZM1826.02 60.144H1845.12V58.144H1826.02V60.144ZM1864.15 41V40H1863.15V41H1864.15ZM1906.68 41H1907.68V40H1906.68V41ZM1906.68 52.904V53.904H1907.68V52.904H1906.68ZM1891.7 52.904V51.904H1890.7V52.904H1891.7ZM1891.7 89V90H1892.7V89H1891.7ZM1879.32 89H1878.32V90H1879.32V89ZM1879.32 52.904H1880.32V51.904H1879.32V52.904ZM1864.15 52.904H1863.15V53.904H1864.15V52.904ZM1864.15 42H1906.68V40H1864.15V42ZM1905.68 41V52.904H1907.68V41H1905.68ZM1906.68 51.904H1891.7V53.904H1906.68V51.904ZM1890.7 52.904V89H1892.7V52.904H1890.7ZM1891.7 88H1879.32V90H1891.7V88ZM1880.32 89V52.904H1878.32V89H1880.32ZM1879.32 51.904H1864.15V53.904H1879.32V51.904ZM1865.15 52.904V41H1863.15V52.904H1865.15ZM1947.89 46.664L1947.11 47.2861L1948.89 49.5301V46.664H1947.89ZM1947.89 41V40H1946.89V41H1947.89ZM1960.28 41H1961.28V40H1960.28V41ZM1960.28 89V90H1961.28V89H1960.28ZM1947.89 89H1946.89V90H1947.89V89ZM1947.89 83.336H1948.89V80.4699L1947.11 82.7139L1947.89 83.336ZM1915.73 83.048L1915 83.7259L1915.01 83.7357L1915.73 83.048ZM1915.73 47.048L1915 46.365L1915 46.3701L1915.73 47.048ZM1925.05 74.792L1924.33 75.4902L1924.34 75.4991L1925.05 74.792ZM1944.05 74.792L1944.76 75.4991L1944.05 74.792ZM1944.05 55.304L1943.34 56.0021L1943.35 56.0112L1943.36 56.02L1944.05 55.304ZM1925.05 55.304L1925.75 56.0112L1925.76 56.0021L1925.05 55.304ZM1948.89 46.664V41H1946.89V46.664H1948.89ZM1947.89 42H1960.28V40H1947.89V42ZM1959.28 41V89H1961.28V41H1959.28ZM1960.28 88H1947.89V90H1960.28V88ZM1948.89 89V83.336H1946.89V89H1948.89ZM1947.11 82.7139C1943.61 87.115 1938.7 89.344 1932.25 89.344V91.344C1939.23 91.344 1944.75 88.901 1948.68 83.9581L1947.11 82.7139ZM1932.25 89.344C1926.13 89.344 1920.89 87.0354 1916.46 82.3603L1915.01 83.7357C1919.79 88.7886 1925.56 91.344 1932.25 91.344V89.344ZM1916.47 82.3701C1912.11 77.6385 1909.92 71.8693 1909.92 65H1907.92C1907.92 72.3387 1910.27 78.6014 1915 83.7259L1916.47 82.3701ZM1909.92 65C1909.92 58.1973 1912.1 52.4593 1916.47 47.7259L1915 46.3701C1910.28 51.4927 1907.92 57.7227 1907.92 65H1909.92ZM1916.46 47.731C1920.89 42.9929 1926.14 40.656 1932.25 40.656V38.656C1925.55 38.656 1919.79 41.2471 1915 46.365L1916.46 47.731ZM1932.25 40.656C1938.7 40.656 1943.61 42.8851 1947.11 47.2861L1948.68 46.0419C1944.75 41.0989 1939.23 38.656 1932.25 38.656V40.656ZM1924.34 75.4991C1927.04 78.2001 1930.47 79.536 1934.55 79.536V77.536C1930.95 77.536 1928.04 76.3759 1925.75 74.0849L1924.34 75.4991ZM1934.55 79.536C1938.63 79.536 1942.06 78.2001 1944.76 75.4991L1943.35 74.0849C1941.06 76.3759 1938.15 77.536 1934.55 77.536V79.536ZM1944.76 75.4991C1947.53 72.7327 1948.89 69.2052 1948.89 65H1946.89C1946.89 68.7308 1945.7 71.7313 1943.35 74.0849L1944.76 75.4991ZM1948.89 65C1948.89 60.795 1947.53 57.2938 1944.75 54.588L1943.36 56.02C1945.7 58.3062 1946.89 61.269 1946.89 65H1948.89ZM1944.77 54.6059C1942.07 51.8376 1938.64 50.464 1934.55 50.464V52.464C1938.14 52.464 1941.05 53.6504 1943.34 56.0021L1944.77 54.6059ZM1934.55 50.464C1930.46 50.464 1927.03 51.8376 1924.33 54.6059L1925.76 56.0021C1928.05 53.6504 1930.96 52.464 1934.55 52.464V50.464ZM1924.34 54.5969C1921.63 57.3044 1920.3 60.8027 1920.3 65H1922.3C1922.3 61.2613 1923.47 58.2956 1925.75 56.0111L1924.34 54.5969ZM1920.3 65C1920.3 69.1976 1921.63 72.7221 1924.33 75.4901L1925.76 74.0939C1923.47 71.7419 1922.3 68.7384 1922.3 65H1920.3ZM1995.89 64.712L1995.12 64.0808L1994.6 64.7137L1995.12 65.3452L1995.89 64.712ZM2015.76 89V90H2017.87L2016.54 88.3668L2015.76 89ZM2001.36 89L2000.58 89.6255L2000.88 90H2001.36V89ZM1983.89 67.208L1984.67 66.5825L1982.89 64.3621V67.208H1983.89ZM1983.89 89V90H1984.89V89H1983.89ZM1971.51 89H1970.51V90H1971.51V89ZM1971.51 41V40H1970.51V41H1971.51ZM1983.89 41H1984.89V40H1983.89V41ZM1983.89 62.12H1982.89V65.0227L1984.68 62.7359L1983.89 62.12ZM2000.4 41V40H1999.92L1999.62 40.3841L2000.4 41ZM2015.19 41L2015.96 41.6312L2017.29 40H2015.19V41ZM1995.12 65.3452L2014.99 89.6332L2016.54 88.3668L1996.67 64.0788L1995.12 65.3452ZM2015.76 88H2001.36V90H2015.76V88ZM2002.14 88.3745L1984.67 66.5825L1983.11 67.8335L2000.58 89.6255L2002.14 88.3745ZM1982.89 67.208V89H1984.89V67.208H1982.89ZM1983.89 88H1971.51V90H1983.89V88ZM1972.51 89V41H1970.51V89H1972.51ZM1971.51 42H1983.89V40H1971.51V42ZM1982.89 41V62.12H1984.89V41H1982.89ZM1984.68 62.7359L2001.19 41.6159L1999.62 40.3841L1983.1 61.5041L1984.68 62.7359ZM2000.4 42H2015.19V40H2000.4V42ZM2014.41 40.3688L1995.12 64.0808L1996.67 65.3432L2015.96 41.6312L2014.41 40.3688ZM2017.24 41V40H2016.24V41H2017.24ZM2059.77 41H2060.77V40H2059.77V41ZM2059.77 52.904V53.904H2060.77V52.904H2059.77ZM2044.79 52.904V51.904H2043.79V52.904H2044.79ZM2044.79 89V90H2045.79V89H2044.79ZM2032.41 89H2031.41V90H2032.41V89ZM2032.41 52.904H2033.41V51.904H2032.41V52.904ZM2017.24 52.904H2016.24V53.904H2017.24V52.904ZM2017.24 42H2059.77V40H2017.24V42ZM2058.77 41V52.904H2060.77V41H2058.77ZM2059.77 51.904H2044.79V53.904H2059.77V51.904ZM2043.79 52.904V89H2045.79V52.904H2043.79ZM2044.79 88H2032.41V90H2044.79V88ZM2033.41 89V52.904H2031.41V89H2033.41ZM2032.41 51.904H2017.24V53.904H2032.41V51.904ZM2018.24 52.904V41H2016.24V52.904H2018.24ZM2078.77 56.36H2077.77V57.36H2078.77V56.36ZM2101.23 60.872L2100.56 61.6139L2100.57 61.621L2101.23 60.872ZM2101.23 84.584L2101.89 85.333L2101.9 85.3259L2101.23 84.584ZM2066.38 89H2065.38V90H2066.38V89ZM2066.38 41V40H2065.38V41H2066.38ZM2078.77 41H2079.77V40H2078.77V41ZM2111.5 89H2110.5V90H2111.5V89ZM2111.5 41V40H2110.5V41H2111.5ZM2123.89 41H2124.89V40H2123.89V41ZM2123.89 89V90H2124.89V89H2123.89ZM2078.77 78.056H2077.77V79.056H2078.77V78.056ZM2092.4 76.616L2093.06 77.3658L2093.06 77.3634L2092.4 76.616ZM2092.4 68.744L2091.71 69.4722L2091.72 69.482L2091.73 69.4914L2092.4 68.744ZM2078.77 67.208V66.208H2077.77V67.208H2078.77ZM2078.77 57.36H2088.08V55.36H2078.77V57.36ZM2088.08 57.36C2093.33 57.36 2097.45 58.8057 2100.56 61.6139L2101.9 60.1301C2098.35 56.9223 2093.71 55.36 2088.08 55.36V57.36ZM2100.57 61.621C2103.66 64.3532 2105.22 68.0035 2105.22 72.68H2107.22C2107.22 67.5005 2105.46 63.2788 2101.89 60.123L2100.57 61.621ZM2105.22 72.68C2105.22 77.3564 2103.66 81.0436 2100.56 83.8421L2101.9 85.3259C2105.46 82.1084 2107.22 77.8596 2107.22 72.68H2105.22ZM2100.57 83.835C2097.46 86.583 2093.33 88 2088.08 88V90C2093.71 90 2098.34 88.473 2101.89 85.333L2100.57 83.835ZM2088.08 88H2066.38V90H2088.08V88ZM2067.38 89V41H2065.38V89H2067.38ZM2066.38 42H2078.77V40H2066.38V42ZM2077.77 41V56.36H2079.77V41H2077.77ZM2112.5 89V41H2110.5V89H2112.5ZM2111.5 42H2123.89V40H2111.5V42ZM2122.89 41V89H2124.89V41H2122.89ZM2123.89 88H2111.5V90H2123.89V88ZM2078.77 79.056H2088.17V77.056H2078.77V79.056ZM2088.17 79.056C2090.1 79.056 2091.76 78.5167 2093.06 77.3658L2091.74 75.8662C2090.87 76.6353 2089.71 77.056 2088.17 77.056V79.056ZM2093.06 77.3634C2094.44 76.1416 2095.13 74.5533 2095.13 72.68H2093.13C2093.13 74.0067 2092.66 75.0424 2091.73 75.8686L2093.06 77.3634ZM2095.13 72.68C2095.13 70.8067 2094.44 69.2184 2093.06 67.9966L2091.73 69.4914C2092.66 70.3176 2093.13 71.3533 2093.13 72.68H2095.13ZM2093.08 68.0158C2091.78 66.7899 2090.11 66.208 2088.17 66.208V68.208C2089.69 68.208 2090.84 68.65 2091.71 69.4722L2093.08 68.0158ZM2088.17 66.208H2078.77V68.208H2088.17V66.208ZM2077.77 67.208V78.056H2079.77V67.208H2077.77Z" fill="#FF5C00"/>
<path opacity="0.8" d="M30.048 64.712L29.2724 64.0808L28.7573 64.7137L29.274 65.3452L30.048 64.712ZM49.92 89V90H52.0302L50.694 88.3668L49.92 89ZM35.52 89L34.7398 89.6255L35.04 90H35.52V89ZM18.048 67.208L18.8282 66.5825L17.048 64.3621V67.208H18.048ZM18.048 89V90H19.048V89H18.048ZM5.664 89H4.664V90H5.664V89ZM5.664 41V40H4.664V41H5.664ZM18.048 41H19.048V40H18.048V41ZM18.048 62.12H17.048V65.0227L18.8358 62.7359L18.048 62.12ZM34.56 41V40H34.0725L33.7722 40.3841L34.56 41ZM49.344 41L50.1196 41.6312L51.447 40H49.344V41ZM29.274 65.3452L49.146 89.6332L50.694 88.3668L30.822 64.0788L29.274 65.3452ZM49.92 88H35.52V90H49.92V88ZM36.3002 88.3745L18.8282 66.5825L17.2678 67.8335L34.7398 89.6255L36.3002 88.3745ZM17.048 67.208V89H19.048V67.208H17.048ZM18.048 88H5.664V90H18.048V88ZM6.664 89V41H4.664V89H6.664ZM5.664 42H18.048V40H5.664V42ZM17.048 41V62.12H19.048V41H17.048ZM18.8358 62.7359L35.3478 41.6159L33.7722 40.3841L17.2602 61.5041L18.8358 62.7359ZM34.56 42H49.344V40H34.56V42ZM48.5684 40.3688L29.2724 64.0808L30.8236 65.3432L50.1196 41.6312L48.5684 40.3688ZM93.5287 83.048L92.8216 82.3409L93.5287 83.048ZM57.4328 83.048L58.1399 82.3409L57.4328 83.048ZM57.4328 47.048L58.1399 47.7551L57.4328 47.048ZM93.5287 47.048L92.8216 47.7551L93.5287 47.048ZM66.1687 74.504L65.4437 75.1927L65.4526 75.202L65.4616 75.2111L66.1687 74.504ZM66.1687 55.496L65.4616 54.7889L65.4526 54.798L65.4437 54.8073L66.1687 55.496ZM92.8216 82.3409C88.1538 87.0087 82.396 89.344 75.4808 89.344V91.344C82.9015 91.344 89.1757 88.8153 94.2359 83.7551L92.8216 82.3409ZM75.4808 89.344C68.5655 89.344 62.8077 87.0087 58.1399 82.3409L56.7256 83.7551C61.7858 88.8153 68.06 91.344 75.4808 91.344V89.344ZM58.1399 82.3409C53.472 77.673 51.1367 71.9152 51.1367 65H49.1367C49.1367 72.4208 51.6655 78.695 56.7256 83.7551L58.1399 82.3409ZM51.1367 65C51.1367 58.1515 53.4701 52.4248 58.1399 47.7551L56.7256 46.3409C51.6674 51.3992 49.1367 57.6405 49.1367 65H51.1367ZM58.1399 47.7551C62.8763 43.0187 68.6362 40.656 75.4808 40.656V38.656C68.1173 38.656 61.8452 41.2213 56.7256 46.3409L58.1399 47.7551ZM75.4808 40.656C82.3253 40.656 88.0852 43.0187 92.8216 47.7551L94.2359 46.3409C89.1163 41.2213 82.8442 38.656 75.4808 38.656V40.656ZM92.8216 47.7551C97.56 52.4934 99.9208 58.2222 99.9208 65H101.921C101.921 57.6978 99.3535 51.4586 94.2359 46.3409L92.8216 47.7551ZM99.9208 65C99.9208 71.8445 97.5581 77.6045 92.8216 82.3409L94.2359 83.7551C99.3554 78.6355 101.921 72.3635 101.921 65H99.9208ZM65.4616 75.2111C68.1557 77.9051 71.5188 79.248 75.4808 79.248V77.248C72.0187 77.248 69.1738 76.0949 66.8759 73.7969L65.4616 75.2111ZM75.4808 79.248C79.4427 79.248 82.8058 77.9051 85.4999 75.2111L84.0856 73.7969C81.7877 76.0949 78.9428 77.248 75.4808 77.248V79.248ZM85.4999 75.2111C88.2008 72.5102 89.5368 69.0795 89.5368 65H87.5368C87.5368 68.6005 86.3767 71.5058 84.0856 73.7969L85.4999 75.2111ZM89.5368 65C89.5368 60.9205 88.2008 57.4898 85.4999 54.7889L84.0856 56.2031C86.3767 58.4942 87.5368 61.3995 87.5368 65H89.5368ZM85.4999 54.7889C82.8058 52.0949 79.4427 50.752 75.4808 50.752V52.752C78.9428 52.752 81.7877 53.9051 84.0856 56.2031L85.4999 54.7889ZM75.4808 50.752C71.5188 50.752 68.1557 52.0949 65.4616 54.7889L66.8759 56.2031C69.1738 53.9051 72.0187 52.752 75.4808 52.752V50.752ZM65.4437 54.8073C62.8222 57.5668 61.5208 60.9872 61.5208 65H63.5208C63.5208 61.4608 64.6513 58.5452 66.8938 56.1847L65.4437 54.8073ZM61.5208 65C61.5208 69.0128 62.8222 72.4332 65.4437 75.1927L66.8938 73.8152C64.6513 71.4548 63.5208 68.5392 63.5208 65H61.5208ZM141.121 59.144V60.144H142.121V59.144H141.121ZM141.121 41V40H140.121V41H141.121ZM153.505 41H154.505V40H153.505V41ZM153.505 89V90H154.505V89H153.505ZM141.121 89H140.121V90H141.121V89ZM141.121 70.76H142.121V69.76H141.121V70.76ZM122.017 70.76V69.76H121.017V70.76H122.017ZM122.017 89V90H123.017V89H122.017ZM109.633 89H108.633V90H109.633V89ZM109.633 41V40H108.633V41H109.633ZM122.017 41H123.017V40H122.017V41ZM122.017 59.144H121.017V60.144H122.017V59.144ZM142.121 59.144V41H140.121V59.144H142.121ZM141.121 42H153.505V40H141.121V42ZM152.505 41V89H154.505V41H152.505ZM153.505 88H141.121V90H153.505V88ZM142.121 89V70.76H140.121V89H142.121ZM141.121 69.76H122.017V71.76H141.121V69.76ZM121.017 70.76V89H123.017V70.76H121.017ZM122.017 88H109.633V90H122.017V88ZM110.633 89V41H108.633V89H110.633ZM109.633 42H122.017V40H109.633V42ZM121.017 41V59.144H123.017V41H121.017ZM122.017 60.144H141.121V58.144H122.017V60.144ZM160.148 41V40H159.148V41H160.148ZM202.676 41H203.676V40H202.676V41ZM202.676 52.904V53.904H203.676V52.904H202.676ZM187.7 52.904V51.904H186.7V52.904H187.7ZM187.7 89V90H188.7V89H187.7ZM175.316 89H174.316V90H175.316V89ZM175.316 52.904H176.316V51.904H175.316V52.904ZM160.148 52.904H159.148V53.904H160.148V52.904ZM160.148 42H202.676V40H160.148V42ZM201.676 41V52.904H203.676V41H201.676ZM202.676 51.904H187.7V53.904H202.676V51.904ZM186.7 52.904V89H188.7V52.904H186.7ZM187.7 88H175.316V90H187.7V88ZM176.316 89V52.904H174.316V89H176.316ZM175.316 51.904H160.148V53.904H175.316V51.904ZM161.148 52.904V41H159.148V52.904H161.148ZM243.894 46.664L243.111 47.2861L244.894 49.5301V46.664H243.894ZM243.894 41V40H242.894V41H243.894ZM256.278 41H257.278V40H256.278V41ZM256.278 89V90H257.278V89H256.278ZM243.894 89H242.894V90H243.894V89ZM243.894 83.336H244.894V80.4699L243.111 82.7139L243.894 83.336ZM211.734 83.048L210.999 83.7259L211.008 83.7357L211.734 83.048ZM211.734 47.048L211.004 46.365L210.999 46.3701L211.734 47.048ZM221.046 74.792L220.33 75.4902L220.339 75.4991L221.046 74.792ZM240.054 74.792L240.761 75.4991L240.054 74.792ZM240.054 55.304L239.338 56.0021L239.347 56.0112L239.356 56.02L240.054 55.304ZM221.046 55.304L221.753 56.0112L221.762 56.0021L221.046 55.304ZM244.894 46.664V41H242.894V46.664H244.894ZM243.894 42H256.278V40H243.894V42ZM255.278 41V89H257.278V41H255.278ZM256.278 88H243.894V90H256.278V88ZM244.894 89V83.336H242.894V89H244.894ZM243.111 82.7139C239.614 87.115 234.705 89.344 228.246 89.344V91.344C235.227 91.344 240.75 88.901 244.677 83.9581L243.111 82.7139ZM228.246 89.344C222.135 89.344 216.889 87.0354 212.46 82.3603L211.008 83.7357C215.795 88.7886 221.557 91.344 228.246 91.344V89.344ZM212.469 82.3701C208.106 77.6385 205.918 71.8693 205.918 65H203.918C203.918 72.3387 206.274 78.6014 210.999 83.7259L212.469 82.3701ZM205.918 65C205.918 58.1973 208.105 52.4593 212.469 47.7259L210.999 46.3701C206.275 51.4927 203.918 57.7227 203.918 65H205.918ZM212.464 47.731C216.895 42.9929 222.139 40.656 228.246 40.656V38.656C221.553 38.656 215.789 41.2471 211.004 46.365L212.464 47.731ZM228.246 40.656C234.705 40.656 239.614 42.8851 243.111 47.2861L244.677 46.0419C240.75 41.0989 235.227 38.656 228.246 38.656V40.656ZM220.339 75.4991C223.04 78.2001 226.47 79.536 230.55 79.536V77.536C226.95 77.536 224.044 76.3759 221.753 74.0849L220.339 75.4991ZM230.55 79.536C234.63 79.536 238.06 78.2001 240.761 75.4991L239.347 74.0849C237.056 76.3759 234.15 77.536 230.55 77.536V79.536ZM240.761 75.4991C243.528 72.7327 244.894 69.2052 244.894 65H242.894C242.894 68.7308 241.7 71.7313 239.347 74.0849L240.761 75.4991ZM244.894 65C244.894 60.795 243.527 57.2938 240.752 54.588L239.356 56.02C241.701 58.3062 242.894 61.269 242.894 65H244.894ZM240.77 54.6059C238.071 51.8376 234.637 50.464 230.55 50.464V52.464C234.143 52.464 237.045 53.6504 239.338 56.0021L240.77 54.6059ZM230.55 50.464C226.463 50.464 223.029 51.8376 220.33 54.6059L221.762 56.0021C224.055 53.6504 226.957 52.464 230.55 52.464V50.464ZM220.339 54.5969C217.631 57.3044 216.302 60.8027 216.302 65H218.302C218.302 61.2613 219.469 58.2956 221.753 56.0111L220.339 54.5969ZM216.302 65C216.302 69.1976 217.631 72.7221 220.33 75.4901L221.762 74.0939C219.469 71.7419 218.302 68.7384 218.302 65H216.302ZM291.892 64.712L291.116 64.0808L290.601 64.7137L291.118 65.3452L291.892 64.712ZM311.764 89V90H313.874L312.538 88.3668L311.764 89ZM297.364 89L296.584 89.6255L296.884 90H297.364V89ZM279.892 67.208L280.672 66.5825L278.892 64.3621V67.208H279.892ZM279.892 89V90H280.892V89H279.892ZM267.508 89H266.508V90H267.508V89ZM267.508 41V40H266.508V41H267.508ZM279.892 41H280.892V40H279.892V41ZM279.892 62.12H278.892V65.0227L280.68 62.7359L279.892 62.12ZM296.404 41V40H295.916L295.616 40.3841L296.404 41ZM311.188 41L311.963 41.6312L313.291 40H311.188V41ZM291.118 65.3452L310.99 89.6332L312.538 88.3668L292.666 64.0788L291.118 65.3452ZM311.764 88H297.364V90H311.764V88ZM298.144 88.3745L280.672 66.5825L279.112 67.8335L296.584 89.6255L298.144 88.3745ZM278.892 67.208V89H280.892V67.208H278.892ZM279.892 88H267.508V90H279.892V88ZM268.508 89V41H266.508V89H268.508ZM267.508 42H279.892V40H267.508V42ZM278.892 41V62.12H280.892V41H278.892ZM280.68 62.7359L297.192 41.6159L295.616 40.3841L279.104 61.5041L280.68 62.7359ZM296.404 42H311.188V40H296.404V42ZM310.412 40.3688L291.116 64.0808L292.667 65.3432L311.963 41.6312L310.412 40.3688ZM313.241 41V40H312.241V41H313.241ZM355.769 41H356.769V40H355.769V41ZM355.769 52.904V53.904H356.769V52.904H355.769ZM340.793 52.904V51.904H339.793V52.904H340.793ZM340.793 89V90H341.793V89H340.793ZM328.409 89H327.409V90H328.409V89ZM328.409 52.904H329.409V51.904H328.409V52.904ZM313.241 52.904H312.241V53.904H313.241V52.904ZM313.241 42H355.769V40H313.241V42ZM354.769 41V52.904H356.769V41H354.769ZM355.769 51.904H340.793V53.904H355.769V51.904ZM339.793 52.904V89H341.793V52.904H339.793ZM340.793 88H328.409V90H340.793V88ZM329.409 89V52.904H327.409V89H329.409ZM328.409 51.904H313.241V53.904H328.409V51.904ZM314.241 52.904V41H312.241V52.904H314.241ZM374.767 56.36H373.767V57.36H374.767V56.36ZM397.231 60.872L396.56 61.6139L396.568 61.621L397.231 60.872ZM397.231 84.584L397.893 85.333L397.901 85.3259L397.231 84.584ZM362.383 89H361.383V90H362.383V89ZM362.383 41V40H361.383V41H362.383ZM374.767 41H375.767V40H374.767V41ZM407.503 89H406.503V90H407.503V89ZM407.503 41V40H406.503V41H407.503ZM419.887 41H420.887V40H419.887V41ZM419.887 89V90H420.887V89H419.887ZM374.767 78.056H373.767V79.056H374.767V78.056ZM388.399 76.616L389.06 77.3658L389.063 77.3634L388.399 76.616ZM388.399 68.744L387.713 69.4722L387.724 69.482L387.734 69.4914L388.399 68.744ZM374.767 67.208V66.208H373.767V67.208H374.767ZM374.767 57.36H384.079V55.36H374.767V57.36ZM384.079 57.36C389.326 57.36 393.453 58.8057 396.56 61.6139L397.901 60.1301C394.352 56.9223 389.711 55.36 384.079 55.36V57.36ZM396.568 61.621C399.657 64.3532 401.223 68.0035 401.223 72.68H403.223C403.223 67.5005 401.461 63.2788 397.893 60.123L396.568 61.621ZM401.223 72.68C401.223 77.3564 399.656 81.0436 396.56 83.8421L397.901 85.3259C401.461 82.1084 403.223 77.8596 403.223 72.68H401.223ZM396.568 83.835C393.462 86.583 389.332 88 384.079 88V90C389.706 90 394.344 88.473 397.893 85.333L396.568 83.835ZM384.079 88H362.383V90H384.079V88ZM363.383 89V41H361.383V89H363.383ZM362.383 42H374.767V40H362.383V42ZM373.767 41V56.36H375.767V41H373.767ZM408.503 89V41H406.503V89H408.503ZM407.503 42H419.887V40H407.503V42ZM418.887 41V89H420.887V41H418.887ZM419.887 88H407.503V90H419.887V88ZM374.767 79.056H384.175V77.056H374.767V79.056ZM384.175 79.056C386.097 79.056 387.756 78.5167 389.06 77.3658L387.737 75.8662C386.866 76.6353 385.708 77.056 384.175 77.056V79.056ZM389.063 77.3634C390.438 76.1416 391.127 74.5533 391.127 72.68H389.127C389.127 74.0067 388.664 75.0424 387.734 75.8686L389.063 77.3634ZM391.127 72.68C391.127 70.8067 390.438 69.2184 389.063 67.9966L387.734 69.4914C388.664 70.3176 389.127 71.3533 389.127 72.68H391.127ZM389.084 68.0158C387.782 66.7899 386.115 66.208 384.175 66.208V68.208C385.691 68.208 386.84 68.65 387.713 69.4722L389.084 68.0158ZM384.175 66.208H374.767V68.208H384.175V66.208ZM373.767 67.208V78.056H375.767V67.208H373.767Z" fill="#FF5C00"/>
</svg>
