<svg width="1964" height="125" viewBox="0 0 1964 125" fill="none" xmlns="http://www.w3.org/2000/svg">
<path d="M401.664 41H445.536V89H433.152V52.616H414.048V89H401.664V41ZM484.819 39.656C491.283 39.656 496.787 42.12 501.331 47.048C505.939 51.976 508.243 57.96 508.243 65C508.243 72.168 505.939 78.184 501.331 83.048C496.851 87.912 491.347 90.344 484.819 90.344C478.099 90.344 472.915 88.008 469.267 83.336V108.2H456.883V41H469.267V46.664C472.915 41.992 478.099 39.656 484.819 39.656ZM473.011 74.792C475.507 77.288 478.675 78.536 482.515 78.536C486.355 78.536 489.523 77.288 492.019 74.792C494.579 72.232 495.859 68.968 495.859 65C495.859 61.032 494.579 57.8 492.019 55.304C489.523 52.744 486.355 51.464 482.515 51.464C478.675 51.464 475.507 52.744 473.011 55.304C470.515 57.8 469.267 61.032 469.267 65C469.267 68.968 470.515 72.232 473.011 74.792ZM557.873 83.048C553.009 87.912 546.993 90.344 539.825 90.344C532.657 90.344 526.641 87.912 521.777 83.048C516.913 78.184 514.48 72.168 514.48 65C514.48 57.896 516.913 51.912 521.777 47.048C526.705 42.12 532.721 39.656 539.825 39.656C546.929 39.656 552.945 42.12 557.873 47.048C562.801 51.976 565.265 57.96 565.265 65C565.265 72.104 562.801 78.12 557.873 83.048ZM530.513 74.504C533.009 77 536.113 78.248 539.825 78.248C543.537 78.248 546.641 77 549.137 74.504C551.633 72.008 552.881 68.84 552.881 65C552.881 61.16 551.633 57.992 549.137 55.496C546.641 53 543.537 51.752 539.825 51.752C536.113 51.752 533.009 53 530.513 55.496C528.081 58.056 526.865 61.224 526.865 65C526.865 68.776 528.081 71.944 530.513 74.504ZM620.633 70.088H584.441C586.041 76.104 590.553 79.112 597.977 79.112C602.713 79.112 606.297 77.512 608.729 74.312L618.713 80.072C613.977 86.92 607.001 90.344 597.785 90.344C589.849 90.344 583.481 87.944 578.681 83.144C573.881 78.344 571.48 72.296 571.48 65C571.48 57.832 573.849 51.816 578.585 46.952C583.257 42.088 589.337 39.656 596.825 39.656C603.929 39.656 609.721 42.088 614.201 46.952C618.809 51.816 621.113 57.832 621.113 65C621.113 66.344 620.953 68.04 620.633 70.088ZM584.249 60.488H608.729C608.025 57.352 606.585 54.952 604.409 53.288C602.297 51.624 599.769 50.792 596.825 50.792C593.497 50.792 590.745 51.656 588.569 53.384C586.393 55.048 584.953 57.416 584.249 60.488ZM654.142 64.712L674.014 89H659.614L642.142 67.208V89H629.758V41H642.142V62.12L658.654 41H673.438L654.142 64.712ZM675.491 41H718.019V52.904H703.043V89H690.659V52.904H675.491V41ZM737.017 56.36H746.329C751.769 56.36 756.153 57.864 759.481 60.872C762.809 63.816 764.473 67.752 764.473 72.68C764.473 77.608 762.809 81.576 759.481 84.584C756.153 87.528 751.769 89 746.329 89H724.633V41H737.017V56.36ZM769.753 89V41H782.137V89H769.753ZM737.017 78.056H746.425C748.153 78.056 749.561 77.576 750.649 76.616C751.801 75.592 752.377 74.28 752.377 72.68C752.377 71.08 751.801 69.768 750.649 68.744C749.561 67.72 748.153 67.208 746.425 67.208H737.017V78.056Z" fill="black"/>
<path d="M793.664 41H837.536V89H825.152V52.616H806.048V89H793.664V41ZM876.819 39.656C883.283 39.656 888.787 42.12 893.331 47.048C897.939 51.976 900.243 57.96 900.243 65C900.243 72.168 897.939 78.184 893.331 83.048C888.851 87.912 883.347 90.344 876.819 90.344C870.099 90.344 864.915 88.008 861.267 83.336V108.2H848.883V41H861.267V46.664C864.915 41.992 870.099 39.656 876.819 39.656ZM865.011 74.792C867.507 77.288 870.675 78.536 874.515 78.536C878.355 78.536 881.523 77.288 884.019 74.792C886.579 72.232 887.859 68.968 887.859 65C887.859 61.032 886.579 57.8 884.019 55.304C881.523 52.744 878.355 51.464 874.515 51.464C870.675 51.464 867.507 52.744 865.011 55.304C862.515 57.8 861.267 61.032 861.267 65C861.267 68.968 862.515 72.232 865.011 74.792ZM949.873 83.048C945.009 87.912 938.993 90.344 931.825 90.344C924.657 90.344 918.641 87.912 913.777 83.048C908.913 78.184 906.48 72.168 906.48 65C906.48 57.896 908.913 51.912 913.777 47.048C918.705 42.12 924.721 39.656 931.825 39.656C938.929 39.656 944.945 42.12 949.873 47.048C954.801 51.976 957.265 57.96 957.265 65C957.265 72.104 954.801 78.12 949.873 83.048ZM922.513 74.504C925.009 77 928.113 78.248 931.825 78.248C935.537 78.248 938.641 77 941.137 74.504C943.633 72.008 944.881 68.84 944.881 65C944.881 61.16 943.633 57.992 941.137 55.496C938.641 53 935.537 51.752 931.825 51.752C928.113 51.752 925.009 53 922.513 55.496C920.081 58.056 918.865 61.224 918.865 65C918.865 68.776 920.081 71.944 922.513 74.504ZM1012.63 70.088H976.441C978.041 76.104 982.553 79.112 989.977 79.112C994.713 79.112 998.297 77.512 1000.73 74.312L1010.71 80.072C1005.98 86.92 999.001 90.344 989.785 90.344C981.849 90.344 975.481 87.944 970.681 83.144C965.881 78.344 963.48 72.296 963.48 65C963.48 57.832 965.849 51.816 970.585 46.952C975.257 42.088 981.337 39.656 988.825 39.656C995.929 39.656 1001.72 42.088 1006.2 46.952C1010.81 51.816 1013.11 57.832 1013.11 65C1013.11 66.344 1012.95 68.04 1012.63 70.088ZM976.249 60.488H1000.73C1000.02 57.352 998.585 54.952 996.409 53.288C994.297 51.624 991.769 50.792 988.825 50.792C985.497 50.792 982.745 51.656 980.569 53.384C978.393 55.048 976.953 57.416 976.249 60.488ZM1046.14 64.712L1066.01 89H1051.61L1034.14 67.208V89H1021.76V41H1034.14V62.12L1050.65 41H1065.44L1046.14 64.712ZM1067.49 41H1110.02V52.904H1095.04V89H1082.66V52.904H1067.49V41ZM1129.02 56.36H1138.33C1143.77 56.36 1148.15 57.864 1151.48 60.872C1154.81 63.816 1156.47 67.752 1156.47 72.68C1156.47 77.608 1154.81 81.576 1151.48 84.584C1148.15 87.528 1143.77 89 1138.33 89H1116.63V41H1129.02V56.36ZM1161.75 89V41H1174.14V89H1161.75ZM1129.02 78.056H1138.42C1140.15 78.056 1141.56 77.576 1142.65 76.616C1143.8 75.592 1144.38 74.28 1144.38 72.68C1144.38 71.08 1143.8 69.768 1142.65 68.744C1141.56 67.72 1140.15 67.208 1138.42 67.208H1129.02V78.056Z" fill="white"/>
<path d="M793.664 41V40H792.664V41H793.664ZM837.536 41H838.536V40H837.536V41ZM837.536 89V90H838.536V89H837.536ZM825.152 89H824.152V90H825.152V89ZM825.152 52.616H826.152V51.616H825.152V52.616ZM806.048 52.616V51.616H805.048V52.616H806.048ZM806.048 89V90H807.048V89H806.048ZM793.664 89H792.664V90H793.664V89ZM793.664 42H837.536V40H793.664V42ZM836.536 41V89H838.536V41H836.536ZM837.536 88H825.152V90H837.536V88ZM826.152 89V52.616H824.152V89H826.152ZM825.152 51.616H806.048V53.616H825.152V51.616ZM805.048 52.616V89H807.048V52.616H805.048ZM806.048 88H793.664V90H806.048V88ZM794.664 89V41H792.664V89H794.664ZM893.331 47.048L892.596 47.7259L892.6 47.731L893.331 47.048ZM893.331 83.048L892.605 82.3602L892.595 82.3705L893.331 83.048ZM861.267 83.336L862.055 82.7206L860.267 80.4304V83.336H861.267ZM861.267 108.2V109.2H862.267V108.2H861.267ZM848.883 108.2H847.883V109.2H848.883V108.2ZM848.883 41V40H847.883V41H848.883ZM861.267 41H862.267V40H861.267V41ZM861.267 46.664H860.267V49.5696L862.055 47.2794L861.267 46.664ZM865.011 74.792L864.295 75.4902L864.304 75.4991L865.011 74.792ZM884.019 74.792L883.312 74.0849L884.019 74.792ZM884.019 55.304L883.303 56.0021L883.312 56.0112L883.321 56.02L884.019 55.304ZM865.011 55.304L865.718 56.0112L865.727 56.0021L865.011 55.304ZM876.819 40.656C882.992 40.656 888.233 42.9946 892.596 47.7259L894.066 46.3701C889.341 41.2454 883.574 38.656 876.819 38.656V40.656ZM892.6 47.731C897.027 52.4651 899.243 58.2015 899.243 65H901.243C901.243 57.7185 898.851 51.4869 894.061 46.365L892.6 47.731ZM899.243 65C899.243 71.9317 897.024 77.6958 892.605 82.3603L894.057 83.7357C898.854 78.6722 901.243 72.4043 901.243 65H899.243ZM892.595 82.3705C888.302 87.032 883.063 89.344 876.819 89.344V91.344C883.63 91.344 889.4 88.792 894.066 83.7255L892.595 82.3705ZM876.819 89.344C870.36 89.344 865.486 87.1152 862.055 82.7206L860.479 83.9514C864.343 88.9007 869.838 91.344 876.819 91.344V89.344ZM860.267 83.336V108.2H862.267V83.336H860.267ZM861.267 107.2H848.883V109.2H861.267V107.2ZM849.883 108.2V41H847.883V108.2H849.883ZM848.883 42H861.267V40H848.883V42ZM860.267 41V46.664H862.267V41H860.267ZM862.055 47.2794C865.486 42.8848 870.36 40.656 876.819 40.656V38.656C869.838 38.656 864.343 41.0993 860.479 46.0486L862.055 47.2794ZM864.304 75.4991C867.005 78.2001 870.435 79.536 874.515 79.536V77.536C870.914 77.536 868.009 76.3759 865.718 74.0849L864.304 75.4991ZM874.515 79.536C878.594 79.536 882.025 78.2001 884.726 75.4991L883.312 74.0849C881.021 76.3759 878.115 77.536 874.515 77.536V79.536ZM884.726 75.4991C887.492 72.7327 888.859 69.2052 888.859 65H886.859C886.859 68.7308 885.665 71.7313 883.312 74.0849L884.726 75.4991ZM888.859 65C888.859 60.795 887.492 57.2938 884.717 54.588L883.321 56.02C885.665 58.3062 886.859 61.269 886.859 65H888.859ZM884.735 54.6059C882.036 51.8376 878.602 50.464 874.515 50.464V52.464C878.107 52.464 881.01 53.6504 883.303 56.0021L884.735 54.6059ZM874.515 50.464C870.427 50.464 866.994 51.8376 864.295 54.6059L865.727 56.0021C868.02 53.6504 870.922 52.464 874.515 52.464V50.464ZM864.304 54.5969C861.596 57.3044 860.267 60.8027 860.267 65H862.267C862.267 61.2613 863.433 58.2956 865.718 56.0111L864.304 54.5969ZM860.267 65C860.267 69.1976 861.596 72.7221 864.295 75.4901L865.727 74.0939C863.434 71.7419 862.267 68.7384 862.267 65H860.267ZM949.872 83.048L949.165 82.3409L949.872 83.048ZM913.776 83.048L914.484 82.3409L913.776 83.048ZM913.776 47.048L914.484 47.7551L913.776 47.048ZM949.872 47.048L949.165 47.7551L949.872 47.048ZM922.512 74.504L921.788 75.1927L921.796 75.202L921.805 75.2111L922.512 74.504ZM922.512 55.496L921.805 54.7889L921.796 54.798L921.788 54.8073L922.512 55.496ZM949.165 82.3409C944.498 87.0087 938.74 89.344 931.825 89.344V91.344C939.245 91.344 945.519 88.8153 950.58 83.7551L949.165 82.3409ZM931.825 89.344C924.909 89.344 919.151 87.0087 914.484 82.3409L913.069 83.7551C918.13 88.8153 924.404 91.344 931.825 91.344V89.344ZM914.484 82.3409C909.816 77.673 907.48 71.9152 907.48 65H905.48C905.48 72.4208 908.009 78.695 913.069 83.7551L914.484 82.3409ZM907.48 65C907.48 58.1515 909.814 52.4248 914.484 47.7551L913.069 46.3409C908.011 51.3992 905.48 57.6405 905.48 65H907.48ZM914.484 47.7551C919.22 43.0187 924.98 40.656 931.825 40.656V38.656C924.461 38.656 918.189 41.2213 913.069 46.3409L914.484 47.7551ZM931.825 40.656C938.669 40.656 944.429 43.0187 949.165 47.7551L950.58 46.3409C945.46 41.2213 939.188 38.656 931.825 38.656V40.656ZM949.165 47.7551C953.904 52.4934 956.264 58.2222 956.264 65H958.264C958.264 57.6978 955.697 51.4586 950.58 46.3409L949.165 47.7551ZM956.264 65C956.264 71.8445 953.902 77.6045 949.165 82.3409L950.58 83.7551C955.699 78.6355 958.264 72.3635 958.264 65H956.264ZM921.805 75.2111C924.499 77.9051 927.863 79.248 931.825 79.248V77.248C928.363 77.248 925.518 76.0949 923.22 73.7969L921.805 75.2111ZM931.825 79.248C935.786 79.248 939.15 77.9051 941.844 75.2111L940.429 73.7969C938.131 76.0949 935.287 77.248 931.825 77.248V79.248ZM941.844 75.2111C944.545 72.5102 945.881 69.0795 945.881 65H943.881C943.881 68.6005 942.72 71.5058 940.429 73.7969L941.844 75.2111ZM945.881 65C945.881 60.9205 944.545 57.4898 941.844 54.7889L940.429 56.2031C942.72 58.4942 943.881 61.3995 943.881 65H945.881ZM941.844 54.7889C939.15 52.0949 935.786 50.752 931.825 50.752V52.752C935.287 52.752 938.131 53.9051 940.429 56.2031L941.844 54.7889ZM931.825 50.752C927.863 50.752 924.499 52.0949 921.805 54.7889L923.22 56.2031C925.518 53.9051 928.363 52.752 931.825 52.752V50.752ZM921.788 54.8073C919.166 57.5668 917.865 60.9872 917.865 65H919.865C919.865 61.4608 920.995 58.5452 923.238 56.1847L921.788 54.8073ZM917.865 65C917.865 69.0128 919.166 72.4332 921.788 75.1927L923.238 73.8152C920.995 71.4548 919.865 68.5392 919.865 65H917.865ZM1012.63 70.088V71.088H1013.49L1013.62 70.2424L1012.63 70.088ZM976.441 70.088V69.088H975.14L975.474 70.345L976.441 70.088ZM1000.73 74.312L1001.23 73.4458L1000.47 73.0057L999.932 73.7069L1000.73 74.312ZM1010.71 80.072L1011.53 80.6408L1012.15 79.7482L1011.21 79.2058L1010.71 80.072ZM970.68 83.144L969.973 83.8511L970.68 83.144ZM970.585 46.952L971.301 47.6496L971.306 47.6447L970.585 46.952ZM1006.2 46.952L1005.46 47.6295L1005.47 47.6397L1006.2 46.952ZM976.249 60.488L975.274 60.2646L974.993 61.488H976.249V60.488ZM1000.73 60.488V61.488H1001.98L1001.7 60.269L1000.73 60.488ZM996.409 53.288L995.79 54.0735L995.795 54.078L995.801 54.0824L996.409 53.288ZM980.568 53.384L981.176 54.1784L981.183 54.1728L981.19 54.1671L980.568 53.384ZM1012.63 69.088H976.441V71.088H1012.63V69.088ZM975.474 70.345C976.327 73.5514 977.981 76.029 980.47 77.688C982.94 79.3351 986.138 80.112 989.977 80.112V78.112C986.391 78.112 983.621 77.3849 981.579 76.0239C979.556 74.6749 978.154 72.6406 977.407 69.831L975.474 70.345ZM989.977 80.112C994.962 80.112 998.869 78.412 1001.52 74.9171L999.932 73.7069C997.724 76.612 994.463 78.112 989.977 78.112V80.112ZM1000.23 75.1782L1010.21 80.9382L1011.21 79.2058L1001.23 73.4458L1000.23 75.1782ZM1009.89 79.5032C1005.36 86.0491 998.713 89.344 989.785 89.344V91.344C999.288 91.344 1006.59 87.7909 1011.53 80.6408L1009.89 79.5032ZM989.785 89.344C982.065 89.344 975.968 87.0177 971.388 82.4369L969.973 83.8511C974.993 88.8703 981.632 91.344 989.785 91.344V89.344ZM971.388 82.4369C966.79 77.8394 964.48 72.0527 964.48 65H962.48C962.48 72.5393 964.971 78.8486 969.973 83.8511L971.388 82.4369ZM964.48 65C964.48 58.0765 966.758 52.3157 971.301 47.6496L969.868 46.2544C964.939 51.3163 962.48 57.5875 962.48 65H964.48ZM971.306 47.6447C975.767 42.9997 981.576 40.656 988.825 40.656V38.656C981.097 38.656 974.746 41.1763 969.863 46.2593L971.306 47.6447ZM988.825 40.656C995.672 40.656 1001.19 42.9876 1005.46 47.6295L1006.94 46.2745C1002.25 41.1884 996.185 38.656 988.825 38.656V40.656ZM1005.47 47.6397C1009.89 52.3042 1012.11 58.0682 1012.11 65H1014.11C1014.11 57.5957 1011.72 51.3278 1006.93 46.2643L1005.47 47.6397ZM1012.11 65C1012.11 66.2725 1011.96 67.9125 1011.64 69.9336L1013.62 70.2424C1013.94 68.1675 1014.11 66.4155 1014.11 65H1012.11ZM976.249 61.488H1000.73V59.488H976.249V61.488ZM1001.7 60.269C1000.96 56.9456 999.41 54.3242 997.016 52.4936L995.801 54.0824C997.759 55.5798 999.091 57.7584 999.753 60.707L1001.7 60.269ZM997.027 52.5025C994.722 50.6862 991.97 49.792 988.825 49.792V51.792C991.567 51.792 993.871 52.5618 995.79 54.0735L997.027 52.5025ZM988.825 49.792C985.317 49.792 982.333 50.7061 979.947 52.6009L981.19 54.1671C983.156 52.6059 985.676 51.792 988.825 51.792V49.792ZM979.961 52.5896C977.572 54.4163 976.022 57.0014 975.274 60.2646L977.223 60.7114C977.883 57.8306 979.213 55.6797 981.176 54.1784L979.961 52.5896ZM1046.14 64.712L1045.37 64.0808L1044.85 64.7137L1045.37 65.3452L1046.14 64.712ZM1066.01 89V90H1068.12L1066.79 88.3668L1066.01 89ZM1051.61 89L1050.83 89.6255L1051.13 90H1051.61V89ZM1034.14 67.208L1034.92 66.5825L1033.14 64.3621V67.208H1034.14ZM1034.14 89V90H1035.14V89H1034.14ZM1021.76 89H1020.76V90H1021.76V89ZM1021.76 41V40H1020.76V41H1021.76ZM1034.14 41H1035.14V40H1034.14V41ZM1034.14 62.12H1033.14V65.0227L1034.93 62.7359L1034.14 62.12ZM1050.65 41V40H1050.17L1049.87 40.3841L1050.65 41ZM1065.44 41L1066.21 41.6312L1067.54 40H1065.44V41ZM1045.37 65.3452L1065.24 89.6332L1066.79 88.3668L1046.92 64.0788L1045.37 65.3452ZM1066.01 88H1051.61V90H1066.01V88ZM1052.39 88.3745L1034.92 66.5825L1033.36 67.8335L1050.83 89.6255L1052.39 88.3745ZM1033.14 67.208V89H1035.14V67.208H1033.14ZM1034.14 88H1021.76V90H1034.14V88ZM1022.76 89V41H1020.76V89H1022.76ZM1021.76 42H1034.14V40H1021.76V42ZM1033.14 41V62.12H1035.14V41H1033.14ZM1034.93 62.7359L1051.44 41.6159L1049.87 40.3841L1033.35 61.5041L1034.93 62.7359ZM1050.65 42H1065.44V40H1050.65V42ZM1064.66 40.3688L1045.37 64.0808L1046.92 65.3432L1066.21 41.6312L1064.66 40.3688ZM1067.49 41V40H1066.49V41H1067.49ZM1110.02 41H1111.02V40H1110.02V41ZM1110.02 52.904V53.904H1111.02V52.904H1110.02ZM1095.04 52.904V51.904H1094.04V52.904H1095.04ZM1095.04 89V90H1096.04V89H1095.04ZM1082.66 89H1081.66V90H1082.66V89ZM1082.66 52.904H1083.66V51.904H1082.66V52.904ZM1067.49 52.904H1066.49V53.904H1067.49V52.904ZM1067.49 42H1110.02V40H1067.49V42ZM1109.02 41V52.904H1111.02V41H1109.02ZM1110.02 51.904H1095.04V53.904H1110.02V51.904ZM1094.04 52.904V89H1096.04V52.904H1094.04ZM1095.04 88H1082.66V90H1095.04V88ZM1083.66 89V52.904H1081.66V89H1083.66ZM1082.66 51.904H1067.49V53.904H1082.66V51.904ZM1068.49 52.904V41H1066.49V52.904H1068.49ZM1129.02 56.36H1128.02V57.36H1129.02V56.36ZM1151.48 60.872L1150.81 61.6139L1150.82 61.621L1151.48 60.872ZM1151.48 84.584L1152.14 85.333L1152.15 85.3259L1151.48 84.584ZM1116.63 89H1115.63V90H1116.63V89ZM1116.63 41V40H1115.63V41H1116.63ZM1129.02 41H1130.02V40H1129.02V41ZM1161.75 89H1160.75V90H1161.75V89ZM1161.75 41V40H1160.75V41H1161.75ZM1174.14 41H1175.14V40H1174.14V41ZM1174.14 89V90H1175.14V89H1174.14ZM1129.02 78.056H1128.02V79.056H1129.02V78.056ZM1142.65 76.616L1143.31 77.3658L1143.31 77.3634L1142.65 76.616ZM1142.65 68.744L1141.96 69.4722L1141.97 69.482L1141.98 69.4914L1142.65 68.744ZM1129.02 67.208V66.208H1128.02V67.208H1129.02ZM1129.02 57.36H1138.33V55.36H1129.02V57.36ZM1138.33 57.36C1143.58 57.36 1147.7 58.8057 1150.81 61.6139L1152.15 60.1301C1148.6 56.9223 1143.96 55.36 1138.33 55.36V57.36ZM1150.82 61.621C1153.91 64.3532 1155.47 68.0035 1155.47 72.68H1157.47C1157.47 67.5005 1155.71 63.2788 1152.14 60.123L1150.82 61.621ZM1155.47 72.68C1155.47 77.3564 1153.91 81.0436 1150.81 83.8421L1152.15 85.3259C1155.71 82.1084 1157.47 77.8596 1157.47 72.68H1155.47ZM1150.82 83.835C1147.71 86.583 1143.58 88 1138.33 88V90C1143.96 90 1148.59 88.473 1152.14 85.333L1150.82 83.835ZM1138.33 88H1116.63V90H1138.33V88ZM1117.63 89V41H1115.63V89H1117.63ZM1116.63 42H1129.02V40H1116.63V42ZM1128.02 41V56.36H1130.02V41H1128.02ZM1162.75 89V41H1160.75V89H1162.75ZM1161.75 42H1174.14V40H1161.75V42ZM1173.14 41V89H1175.14V41H1173.14ZM1174.14 88H1161.75V90H1174.14V88ZM1129.02 79.056H1138.42V77.056H1129.02V79.056ZM1138.42 79.056C1140.35 79.056 1142.01 78.5167 1143.31 77.3658L1141.99 75.8662C1141.12 76.6353 1139.96 77.056 1138.42 77.056V79.056ZM1143.31 77.3634C1144.69 76.1416 1145.38 74.5533 1145.38 72.68H1143.38C1143.38 74.0067 1142.91 75.0424 1141.98 75.8686L1143.31 77.3634ZM1145.38 72.68C1145.38 70.8067 1144.69 69.2184 1143.31 67.9966L1141.98 69.4914C1142.91 70.3176 1143.38 71.3533 1143.38 72.68H1145.38ZM1143.33 68.0158C1142.03 66.7899 1140.36 66.208 1138.42 66.208V68.208C1139.94 68.208 1141.09 68.65 1141.96 69.4722L1143.33 68.0158ZM1138.42 66.208H1129.02V68.208H1138.42V66.208ZM1128.02 67.208V78.056H1130.02V67.208H1128.02Z" fill="black" fill-opacity="0.8"/>
<path d="M5.664 41H49.536V89H37.152V52.616H18.048V89H5.664V41ZM88.8188 39.656C95.2828 39.656 100.787 42.12 105.331 47.048C109.939 51.976 112.243 57.96 112.243 65C112.243 72.168 109.939 78.184 105.331 83.048C100.851 87.912 95.3468 90.344 88.8188 90.344C82.0988 90.344 76.9148 88.008 73.2668 83.336V108.2H60.8828V41H73.2668V46.664C76.9148 41.992 82.0988 39.656 88.8188 39.656ZM77.0108 74.792C79.5068 77.288 82.6748 78.536 86.5148 78.536C90.3548 78.536 93.5228 77.288 96.0188 74.792C98.5788 72.232 99.8588 68.968 99.8588 65C99.8588 61.032 98.5788 57.8 96.0188 55.304C93.5228 52.744 90.3548 51.464 86.5148 51.464C82.6748 51.464 79.5068 52.744 77.0108 55.304C74.5148 57.8 73.2668 61.032 73.2668 65C73.2668 68.968 74.5148 72.232 77.0108 74.792ZM161.873 83.048C157.009 87.912 150.993 90.344 143.825 90.344C136.657 90.344 130.641 87.912 125.777 83.048C120.913 78.184 118.48 72.168 118.48 65C118.48 57.896 120.913 51.912 125.777 47.048C130.705 42.12 136.721 39.656 143.825 39.656C150.929 39.656 156.945 42.12 161.873 47.048C166.801 51.976 169.265 57.96 169.265 65C169.265 72.104 166.801 78.12 161.873 83.048ZM134.513 74.504C137.009 77 140.113 78.248 143.825 78.248C147.537 78.248 150.641 77 153.137 74.504C155.633 72.008 156.881 68.84 156.881 65C156.881 61.16 155.633 57.992 153.137 55.496C150.641 53 147.537 51.752 143.825 51.752C140.113 51.752 137.009 53 134.513 55.496C132.081 58.056 130.865 61.224 130.865 65C130.865 68.776 132.081 71.944 134.513 74.504ZM224.633 70.088H188.441C190.041 76.104 194.553 79.112 201.977 79.112C206.713 79.112 210.297 77.512 212.729 74.312L222.713 80.072C217.977 86.92 211.001 90.344 201.785 90.344C193.849 90.344 187.481 87.944 182.681 83.144C177.881 78.344 175.48 72.296 175.48 65C175.48 57.832 177.849 51.816 182.585 46.952C187.257 42.088 193.337 39.656 200.825 39.656C207.929 39.656 213.721 42.088 218.201 46.952C222.809 51.816 225.113 57.832 225.113 65C225.113 66.344 224.953 68.04 224.633 70.088ZM188.249 60.488H212.729C212.025 57.352 210.585 54.952 208.409 53.288C206.297 51.624 203.769 50.792 200.825 50.792C197.497 50.792 194.745 51.656 192.569 53.384C190.393 55.048 188.953 57.416 188.249 60.488ZM258.142 64.712L278.014 89H263.614L246.142 67.208V89H233.758V41H246.142V62.12L262.654 41H277.438L258.142 64.712ZM279.491 41H322.019V52.904H307.043V89H294.659V52.904H279.491V41ZM341.017 56.36H350.329C355.769 56.36 360.153 57.864 363.481 60.872C366.809 63.816 368.473 67.752 368.473 72.68C368.473 77.608 366.809 81.576 363.481 84.584C360.153 87.528 355.769 89 350.329 89H328.633V41H341.017V56.36ZM373.753 89V41H386.137V89H373.753ZM341.017 78.056H350.425C352.153 78.056 353.561 77.576 354.649 76.616C355.801 75.592 356.377 74.28 356.377 72.68C356.377 71.08 355.801 69.768 354.649 68.744C353.561 67.72 352.153 67.208 350.425 67.208H341.017V78.056Z" fill="white"/>
<path d="M5.664 41V40H4.664V41H5.664ZM49.536 41H50.536V40H49.536V41ZM49.536 89V90H50.536V89H49.536ZM37.152 89H36.152V90H37.152V89ZM37.152 52.616H38.152V51.616H37.152V52.616ZM18.048 52.616V51.616H17.048V52.616H18.048ZM18.048 89V90H19.048V89H18.048ZM5.664 89H4.664V90H5.664V89ZM5.664 42H49.536V40H5.664V42ZM48.536 41V89H50.536V41H48.536ZM49.536 88H37.152V90H49.536V88ZM38.152 89V52.616H36.152V89H38.152ZM37.152 51.616H18.048V53.616H37.152V51.616ZM17.048 52.616V89H19.048V52.616H17.048ZM18.048 88H5.664V90H18.048V88ZM6.664 89V41H4.664V89H6.664ZM105.331 47.048L104.596 47.7259L104.6 47.731L105.331 47.048ZM105.331 83.048L104.605 82.3602L104.595 82.3705L105.331 83.048ZM73.2668 83.336L74.0549 82.7206L72.2668 80.4304V83.336H73.2668ZM73.2668 108.2V109.2H74.2668V108.2H73.2668ZM60.8828 108.2H59.8828V109.2H60.8828V108.2ZM60.8828 41V40H59.8828V41H60.8828ZM73.2668 41H74.2668V40H73.2668V41ZM73.2668 46.664H72.2668V49.5696L74.0549 47.2794L73.2668 46.664ZM77.0107 74.792L76.2947 75.4902L76.3036 75.4991L77.0107 74.792ZM96.0188 74.792L95.3116 74.0849L96.0188 74.792ZM96.0188 55.304L95.3027 56.0021L95.3116 56.0112L95.3206 56.02L96.0188 55.304ZM77.0107 55.304L77.7179 56.0112L77.7268 56.0021L77.0107 55.304ZM88.8188 40.656C94.992 40.656 100.233 42.9946 104.596 47.7259L106.066 46.3701C101.341 41.2454 95.5735 38.656 88.8188 38.656V40.656ZM104.6 47.731C109.027 52.4651 111.243 58.2015 111.243 65H113.243C113.243 57.7185 110.851 51.4869 106.061 46.365L104.6 47.731ZM111.243 65C111.243 71.9317 109.024 77.6958 104.605 82.3603L106.057 83.7357C110.854 78.6722 113.243 72.4043 113.243 65H111.243ZM104.595 82.3705C100.302 87.032 95.0632 89.344 88.8188 89.344V91.344C95.6303 91.344 101.4 88.792 106.066 83.7255L104.595 82.3705ZM88.8188 89.344C82.3599 89.344 77.4864 87.1152 74.0549 82.7206L72.4786 83.9514C76.3431 88.9007 81.8376 91.344 88.8188 91.344V89.344ZM72.2668 83.336V108.2H74.2668V83.336H72.2668ZM73.2668 107.2H60.8828V109.2H73.2668V107.2ZM61.8828 108.2V41H59.8828V108.2H61.8828ZM60.8828 42H73.2668V40H60.8828V42ZM72.2668 41V46.664H74.2668V41H72.2668ZM74.0549 47.2794C77.4864 42.8848 82.3599 40.656 88.8188 40.656V38.656C81.8376 38.656 76.3431 41.0993 72.4786 46.0486L74.0549 47.2794ZM76.3036 75.4991C79.0046 78.2001 82.4352 79.536 86.5147 79.536V77.536C82.9143 77.536 80.0089 76.3759 77.7179 74.0849L76.3036 75.4991ZM86.5147 79.536C90.5943 79.536 94.0249 78.2001 96.7259 75.4991L95.3116 74.0849C93.0206 76.3759 90.1152 77.536 86.5147 77.536V79.536ZM96.7259 75.4991C99.4923 72.7327 100.859 69.2052 100.859 65H98.8587C98.8587 68.7308 97.6652 71.7313 95.3116 74.0849L96.7259 75.4991ZM100.859 65C100.859 60.795 99.492 57.2938 96.7169 54.588L95.3206 56.02C97.6655 58.3062 98.8587 61.269 98.8587 65H100.859ZM96.7347 54.6059C94.0356 51.8376 90.6022 50.464 86.5147 50.464V52.464C90.1073 52.464 93.0099 53.6504 95.3027 56.0021L96.7347 54.6059ZM86.5147 50.464C82.4273 50.464 78.9939 51.8376 76.2948 54.6059L77.7268 56.0021C80.0196 53.6504 82.9222 52.464 86.5147 52.464V50.464ZM76.3036 54.5969C73.5961 57.3044 72.2668 60.8027 72.2668 65H74.2668C74.2668 61.2613 75.4334 58.2956 77.7179 56.0111L76.3036 54.5969ZM72.2668 65C72.2668 69.1976 73.5959 72.7221 76.2948 75.4901L77.7268 74.0939C75.4336 71.7419 74.2668 68.7384 74.2668 65H72.2668ZM161.872 83.048L161.165 82.3409L161.872 83.048ZM125.776 83.048L126.484 82.3409L125.776 83.048ZM125.776 47.048L126.484 47.7551L125.776 47.048ZM161.872 47.048L161.165 47.7551L161.872 47.048ZM134.512 74.504L133.788 75.1927L133.796 75.202L133.805 75.2111L134.512 74.504ZM134.512 55.496L133.805 54.7889L133.796 54.798L133.788 54.8073L134.512 55.496ZM161.165 82.3409C156.498 87.0087 150.74 89.344 143.825 89.344V91.344C151.245 91.344 157.519 88.8153 162.58 83.7551L161.165 82.3409ZM143.825 89.344C136.909 89.344 131.151 87.0087 126.484 82.3409L125.069 83.7551C130.13 88.8153 136.404 91.344 143.825 91.344V89.344ZM126.484 82.3409C121.816 77.673 119.48 71.9152 119.48 65H117.48C117.48 72.4208 120.009 78.695 125.069 83.7551L126.484 82.3409ZM119.48 65C119.48 58.1515 121.814 52.4248 126.484 47.7551L125.069 46.3409C120.011 51.3992 117.48 57.6405 117.48 65H119.48ZM126.484 47.7551C131.22 43.0187 136.98 40.656 143.825 40.656V38.656C136.461 38.656 130.189 41.2213 125.069 46.3409L126.484 47.7551ZM143.825 40.656C150.669 40.656 156.429 43.0187 161.165 47.7551L162.58 46.3409C157.46 41.2213 151.188 38.656 143.825 38.656V40.656ZM161.165 47.7551C165.904 52.4934 168.264 58.2222 168.264 65H170.264C170.264 57.6978 167.697 51.4586 162.58 46.3409L161.165 47.7551ZM168.264 65C168.264 71.8445 165.902 77.6045 161.165 82.3409L162.58 83.7551C167.699 78.6355 170.264 72.3635 170.264 65H168.264ZM133.805 75.2111C136.499 77.9051 139.863 79.248 143.825 79.248V77.248C140.363 77.248 137.518 76.0949 135.22 73.7969L133.805 75.2111ZM143.825 79.248C147.786 79.248 151.15 77.9051 153.844 75.2111L152.429 73.7969C150.131 76.0949 147.287 77.248 143.825 77.248V79.248ZM153.844 75.2111C156.545 72.5102 157.881 69.0795 157.881 65H155.881C155.881 68.6005 154.72 71.5058 152.429 73.7969L153.844 75.2111ZM157.881 65C157.881 60.9205 156.545 57.4898 153.844 54.7889L152.429 56.2031C154.72 58.4942 155.881 61.3995 155.881 65H157.881ZM153.844 54.7889C151.15 52.0949 147.786 50.752 143.825 50.752V52.752C147.287 52.752 150.131 53.9051 152.429 56.2031L153.844 54.7889ZM143.825 50.752C139.863 50.752 136.499 52.0949 133.805 54.7889L135.22 56.2031C137.518 53.9051 140.363 52.752 143.825 52.752V50.752ZM133.788 54.8073C131.166 57.5668 129.865 60.9872 129.865 65H131.865C131.865 61.4608 132.995 58.5452 135.238 56.1847L133.788 54.8073ZM129.865 65C129.865 69.0128 131.166 72.4332 133.788 75.1927L135.238 73.8152C132.995 71.4548 131.865 68.5392 131.865 65H129.865ZM224.633 70.088V71.088H225.488L225.621 70.2424L224.633 70.088ZM188.441 70.088V69.088H187.14L187.474 70.345L188.441 70.088ZM212.729 74.312L213.228 73.4458L212.465 73.0057L211.932 73.7069L212.729 74.312ZM222.713 80.072L223.535 80.6408L224.152 79.7482L223.212 79.2058L222.713 80.072ZM182.68 83.144L181.973 83.8511L182.68 83.144ZM182.585 46.952L183.301 47.6496L183.306 47.6447L182.585 46.952ZM218.201 46.952L217.465 47.6295L217.475 47.6397L218.201 46.952ZM188.249 60.488L187.274 60.2646L186.993 61.488H188.249V60.488ZM212.729 60.488V61.488H213.978L213.704 60.269L212.729 60.488ZM208.409 53.288L207.79 54.0735L207.795 54.078L207.801 54.0824L208.409 53.288ZM192.568 53.384L193.176 54.1784L193.183 54.1728L193.19 54.1671L192.568 53.384ZM224.633 69.088H188.441V71.088H224.633V69.088ZM187.474 70.345C188.327 73.5514 189.981 76.029 192.47 77.688C194.94 79.3351 198.138 80.112 201.977 80.112V78.112C198.391 78.112 195.621 77.3849 193.579 76.0239C191.556 74.6749 190.154 72.6406 189.407 69.831L187.474 70.345ZM201.977 80.112C206.962 80.112 210.869 78.412 213.525 74.9171L211.932 73.7069C209.724 76.612 206.463 78.112 201.977 78.112V80.112ZM212.229 75.1782L222.213 80.9382L223.212 79.2058L213.228 73.4458L212.229 75.1782ZM221.89 79.5032C217.363 86.0491 210.713 89.344 201.785 89.344V91.344C211.288 91.344 218.59 87.7909 223.535 80.6408L221.89 79.5032ZM201.785 89.344C194.065 89.344 187.968 87.0177 183.388 82.4369L181.973 83.8511C186.993 88.8703 193.632 91.344 201.785 91.344V89.344ZM183.388 82.4369C178.79 77.8394 176.48 72.0527 176.48 65H174.48C174.48 72.5393 176.971 78.8486 181.973 83.8511L183.388 82.4369ZM176.48 65C176.48 58.0765 178.758 52.3157 183.301 47.6496L181.868 46.2544C176.939 51.3163 174.48 57.5875 174.48 65H176.48ZM183.306 47.6447C187.767 42.9997 193.576 40.656 200.825 40.656V38.656C193.097 38.656 186.746 41.1763 181.863 46.2593L183.306 47.6447ZM200.825 40.656C207.672 40.656 213.189 42.9876 217.465 47.6295L218.936 46.2745C214.251 41.1884 208.185 38.656 200.825 38.656V40.656ZM217.475 47.6397C221.894 52.3042 224.113 58.0682 224.113 65H226.113C226.113 57.5957 223.723 51.3278 218.926 46.2643L217.475 47.6397ZM224.113 65C224.113 66.2725 223.96 67.9125 223.644 69.9336L225.621 70.2424C225.945 68.1675 226.113 66.4155 226.113 65H224.113ZM188.249 61.488H212.729V59.488H188.249V61.488ZM213.704 60.269C212.958 56.9456 211.41 54.3242 209.016 52.4936L207.801 54.0824C209.759 55.5798 211.091 57.7584 211.753 60.707L213.704 60.269ZM209.027 52.5025C206.722 50.6862 203.97 49.792 200.825 49.792V51.792C203.567 51.792 205.871 52.5618 207.79 54.0735L209.027 52.5025ZM200.825 49.792C197.317 49.792 194.333 50.7061 191.947 52.6009L193.19 54.1671C195.156 52.6059 197.676 51.792 200.825 51.792V49.792ZM191.961 52.5896C189.572 54.4163 188.022 57.0014 187.274 60.2646L189.223 60.7114C189.883 57.8306 191.213 55.6797 193.176 54.1784L191.961 52.5896ZM258.142 64.712L257.366 64.0808L256.851 64.7137L257.368 65.3452L258.142 64.712ZM278.014 89V90H280.124L278.788 88.3668L278.014 89ZM263.614 89L262.834 89.6255L263.134 90H263.614V89ZM246.142 67.208L246.922 66.5825L245.142 64.3621V67.208H246.142ZM246.142 89V90H247.142V89H246.142ZM233.758 89H232.758V90H233.758V89ZM233.758 41V40H232.758V41H233.758ZM246.142 41H247.142V40H246.142V41ZM246.142 62.12H245.142V65.0227L246.93 62.7359L246.142 62.12ZM262.654 41V40H262.166L261.866 40.3841L262.654 41ZM277.438 41L278.213 41.6312L279.541 40H277.438V41ZM257.368 65.3452L277.24 89.6332L278.788 88.3668L258.916 64.0788L257.368 65.3452ZM278.014 88H263.614V90H278.014V88ZM264.394 88.3745L246.922 66.5825L245.362 67.8335L262.834 89.6255L264.394 88.3745ZM245.142 67.208V89H247.142V67.208H245.142ZM246.142 88H233.758V90H246.142V88ZM234.758 89V41H232.758V89H234.758ZM233.758 42H246.142V40H233.758V42ZM245.142 41V62.12H247.142V41H245.142ZM246.93 62.7359L263.442 41.6159L261.866 40.3841L245.354 61.5041L246.93 62.7359ZM262.654 42H277.438V40H262.654V42ZM276.662 40.3688L257.366 64.0808L258.917 65.3432L278.213 41.6312L276.662 40.3688ZM279.491 41V40H278.491V41H279.491ZM322.019 41H323.019V40H322.019V41ZM322.019 52.904V53.904H323.019V52.904H322.019ZM307.043 52.904V51.904H306.043V52.904H307.043ZM307.043 89V90H308.043V89H307.043ZM294.659 89H293.659V90H294.659V89ZM294.659 52.904H295.659V51.904H294.659V52.904ZM279.491 52.904H278.491V53.904H279.491V52.904ZM279.491 42H322.019V40H279.491V42ZM321.019 41V52.904H323.019V41H321.019ZM322.019 51.904H307.043V53.904H322.019V51.904ZM306.043 52.904V89H308.043V52.904H306.043ZM307.043 88H294.659V90H307.043V88ZM295.659 89V52.904H293.659V89H295.659ZM294.659 51.904H279.491V53.904H294.659V51.904ZM280.491 52.904V41H278.491V52.904H280.491ZM341.017 56.36H340.017V57.36H341.017V56.36ZM363.481 60.872L362.81 61.6139L362.818 61.621L363.481 60.872ZM363.481 84.584L364.143 85.333L364.151 85.3259L363.481 84.584ZM328.633 89H327.633V90H328.633V89ZM328.633 41V40H327.633V41H328.633ZM341.017 41H342.017V40H341.017V41ZM373.753 89H372.753V90H373.753V89ZM373.753 41V40H372.753V41H373.753ZM386.137 41H387.137V40H386.137V41ZM386.137 89V90H387.137V89H386.137ZM341.017 78.056H340.017V79.056H341.017V78.056ZM354.649 76.616L355.31 77.3658L355.313 77.3634L354.649 76.616ZM354.649 68.744L353.963 69.4722L353.974 69.482L353.984 69.4914L354.649 68.744ZM341.017 67.208V66.208H340.017V67.208H341.017ZM341.017 57.36H350.329V55.36H341.017V57.36ZM350.329 57.36C355.576 57.36 359.703 58.8057 362.81 61.6139L364.151 60.1301C360.602 56.9223 355.961 55.36 350.329 55.36V57.36ZM362.818 61.621C365.907 64.3532 367.473 68.0035 367.473 72.68H369.473C369.473 67.5005 367.711 63.2788 364.143 60.123L362.818 61.621ZM367.473 72.68C367.473 77.3564 365.906 81.0436 362.81 83.8421L364.151 85.3259C367.711 82.1084 369.473 77.8596 369.473 72.68H367.473ZM362.818 83.835C359.712 86.583 355.582 88 350.329 88V90C355.956 90 360.594 88.473 364.143 85.333L362.818 83.835ZM350.329 88H328.633V90H350.329V88ZM329.633 89V41H327.633V89H329.633ZM328.633 42H341.017V40H328.633V42ZM340.017 41V56.36H342.017V41H340.017ZM374.753 89V41H372.753V89H374.753ZM373.753 42H386.137V40H373.753V42ZM385.137 41V89H387.137V41H385.137ZM386.137 88H373.753V90H386.137V88ZM341.017 79.056H350.425V77.056H341.017V79.056ZM350.425 79.056C352.347 79.056 354.006 78.5167 355.31 77.3658L353.987 75.8662C353.116 76.6353 351.958 77.056 350.425 77.056V79.056ZM355.313 77.3634C356.688 76.1416 357.377 74.5533 357.377 72.68H355.377C355.377 74.0067 354.914 75.0424 353.984 75.8686L355.313 77.3634ZM357.377 72.68C357.377 70.8067 356.688 69.2184 355.313 67.9966L353.984 69.4914C354.914 70.3176 355.377 71.3533 355.377 72.68H357.377ZM355.334 68.0158C354.032 66.7899 352.365 66.208 350.425 66.208V68.208C351.941 68.208 353.09 68.65 353.963 69.4722L355.334 68.0158ZM350.425 66.208H341.017V68.208H350.425V66.208ZM340.017 67.208V78.056H342.017V67.208H340.017Z" fill="black" fill-opacity="0.8"/>
<path d="M1185.66 41H1229.54V89H1217.15V52.616H1198.05V89H1185.66V41ZM1268.82 39.656C1275.28 39.656 1280.79 42.12 1285.33 47.048C1289.94 51.976 1292.24 57.96 1292.24 65C1292.24 72.168 1289.94 78.184 1285.33 83.048C1280.85 87.912 1275.35 90.344 1268.82 90.344C1262.1 90.344 1256.91 88.008 1253.27 83.336V108.2H1240.88V41H1253.27V46.664C1256.91 41.992 1262.1 39.656 1268.82 39.656ZM1257.01 74.792C1259.51 77.288 1262.67 78.536 1266.51 78.536C1270.35 78.536 1273.52 77.288 1276.02 74.792C1278.58 72.232 1279.86 68.968 1279.86 65C1279.86 61.032 1278.58 57.8 1276.02 55.304C1273.52 52.744 1270.35 51.464 1266.51 51.464C1262.67 51.464 1259.51 52.744 1257.01 55.304C1254.51 57.8 1253.27 61.032 1253.27 65C1253.27 68.968 1254.51 72.232 1257.01 74.792ZM1341.87 83.048C1337.01 87.912 1330.99 90.344 1323.82 90.344C1316.66 90.344 1310.64 87.912 1305.78 83.048C1300.91 78.184 1298.48 72.168 1298.48 65C1298.48 57.896 1300.91 51.912 1305.78 47.048C1310.7 42.12 1316.72 39.656 1323.82 39.656C1330.93 39.656 1336.94 42.12 1341.87 47.048C1346.8 51.976 1349.26 57.96 1349.26 65C1349.26 72.104 1346.8 78.12 1341.87 83.048ZM1314.51 74.504C1317.01 77 1320.11 78.248 1323.82 78.248C1327.54 78.248 1330.64 77 1333.14 74.504C1335.63 72.008 1336.88 68.84 1336.88 65C1336.88 61.16 1335.63 57.992 1333.14 55.496C1330.64 53 1327.54 51.752 1323.82 51.752C1320.11 51.752 1317.01 53 1314.51 55.496C1312.08 58.056 1310.86 61.224 1310.86 65C1310.86 68.776 1312.08 71.944 1314.51 74.504ZM1404.63 70.088H1368.44C1370.04 76.104 1374.55 79.112 1381.98 79.112C1386.71 79.112 1390.3 77.512 1392.73 74.312L1402.71 80.072C1397.98 86.92 1391 90.344 1381.78 90.344C1373.85 90.344 1367.48 87.944 1362.68 83.144C1357.88 78.344 1355.48 72.296 1355.48 65C1355.48 57.832 1357.85 51.816 1362.58 46.952C1367.26 42.088 1373.34 39.656 1380.82 39.656C1387.93 39.656 1393.72 42.088 1398.2 46.952C1402.81 51.816 1405.11 57.832 1405.11 65C1405.11 66.344 1404.95 68.04 1404.63 70.088ZM1368.25 60.488H1392.73C1392.02 57.352 1390.58 54.952 1388.41 53.288C1386.3 51.624 1383.77 50.792 1380.82 50.792C1377.5 50.792 1374.74 51.656 1372.57 53.384C1370.39 55.048 1368.95 57.416 1368.25 60.488ZM1438.14 64.712L1458.01 89H1443.61L1426.14 67.208V89H1413.76V41H1426.14V62.12L1442.65 41H1457.44L1438.14 64.712ZM1459.49 41H1502.02V52.904H1487.04V89H1474.66V52.904H1459.49V41ZM1521.02 56.36H1530.33C1535.77 56.36 1540.15 57.864 1543.48 60.872C1546.81 63.816 1548.47 67.752 1548.47 72.68C1548.47 77.608 1546.81 81.576 1543.48 84.584C1540.15 87.528 1535.77 89 1530.33 89H1508.63V41H1521.02V56.36ZM1553.75 89V41H1566.14V89H1553.75ZM1521.02 78.056H1530.42C1532.15 78.056 1533.56 77.576 1534.65 76.616C1535.8 75.592 1536.38 74.28 1536.38 72.68C1536.38 71.08 1535.8 69.768 1534.65 68.744C1533.56 67.72 1532.15 67.208 1530.42 67.208H1521.02V78.056Z" fill="white"/>
<path d="M1185.66 41V40H1184.66V41H1185.66ZM1229.54 41H1230.54V40H1229.54V41ZM1229.54 89V90H1230.54V89H1229.54ZM1217.15 89H1216.15V90H1217.15V89ZM1217.15 52.616H1218.15V51.616H1217.15V52.616ZM1198.05 52.616V51.616H1197.05V52.616H1198.05ZM1198.05 89V90H1199.05V89H1198.05ZM1185.66 89H1184.66V90H1185.66V89ZM1185.66 42H1229.54V40H1185.66V42ZM1228.54 41V89H1230.54V41H1228.54ZM1229.54 88H1217.15V90H1229.54V88ZM1218.15 89V52.616H1216.15V89H1218.15ZM1217.15 51.616H1198.05V53.616H1217.15V51.616ZM1197.05 52.616V89H1199.05V52.616H1197.05ZM1198.05 88H1185.66V90H1198.05V88ZM1186.66 89V41H1184.66V89H1186.66ZM1285.33 47.048L1284.6 47.7259L1284.6 47.731L1285.33 47.048ZM1285.33 83.048L1284.6 82.3602L1284.6 82.3705L1285.33 83.048ZM1253.27 83.336L1254.05 82.7206L1252.27 80.4304V83.336H1253.27ZM1253.27 108.2V109.2H1254.27V108.2H1253.27ZM1240.88 108.2H1239.88V109.2H1240.88V108.2ZM1240.88 41V40H1239.88V41H1240.88ZM1253.27 41H1254.27V40H1253.27V41ZM1253.27 46.664H1252.27V49.5696L1254.05 47.2794L1253.27 46.664ZM1257.01 74.792L1256.29 75.4902L1256.3 75.4991L1257.01 74.792ZM1276.02 74.792L1275.31 74.0849L1276.02 74.792ZM1276.02 55.304L1275.3 56.0021L1275.31 56.0112L1275.32 56.02L1276.02 55.304ZM1257.01 55.304L1257.72 56.0112L1257.73 56.0021L1257.01 55.304ZM1268.82 40.656C1274.99 40.656 1280.23 42.9946 1284.6 47.7259L1286.07 46.3701C1281.34 41.2454 1275.57 38.656 1268.82 38.656V40.656ZM1284.6 47.731C1289.03 52.4651 1291.24 58.2015 1291.24 65H1293.24C1293.24 57.7185 1290.85 51.4869 1286.06 46.365L1284.6 47.731ZM1291.24 65C1291.24 71.9317 1289.02 77.6958 1284.6 82.3603L1286.06 83.7357C1290.85 78.6722 1293.24 72.4043 1293.24 65H1291.24ZM1284.6 82.3705C1280.3 87.032 1275.06 89.344 1268.82 89.344V91.344C1275.63 91.344 1281.4 88.792 1286.07 83.7255L1284.6 82.3705ZM1268.82 89.344C1262.36 89.344 1257.49 87.1152 1254.05 82.7206L1252.48 83.9514C1256.34 88.9007 1261.84 91.344 1268.82 91.344V89.344ZM1252.27 83.336V108.2H1254.27V83.336H1252.27ZM1253.27 107.2H1240.88V109.2H1253.27V107.2ZM1241.88 108.2V41H1239.88V108.2H1241.88ZM1240.88 42H1253.27V40H1240.88V42ZM1252.27 41V46.664H1254.27V41H1252.27ZM1254.05 47.2794C1257.49 42.8848 1262.36 40.656 1268.82 40.656V38.656C1261.84 38.656 1256.34 41.0993 1252.48 46.0486L1254.05 47.2794ZM1256.3 75.4991C1259 78.2001 1262.44 79.536 1266.51 79.536V77.536C1262.91 77.536 1260.01 76.3759 1257.72 74.0849L1256.3 75.4991ZM1266.51 79.536C1270.59 79.536 1274.02 78.2001 1276.73 75.4991L1275.31 74.0849C1273.02 76.3759 1270.12 77.536 1266.51 77.536V79.536ZM1276.73 75.4991C1279.49 72.7327 1280.86 69.2052 1280.86 65H1278.86C1278.86 68.7308 1277.67 71.7313 1275.31 74.0849L1276.73 75.4991ZM1280.86 65C1280.86 60.795 1279.49 57.2938 1276.72 54.588L1275.32 56.02C1277.67 58.3062 1278.86 61.269 1278.86 65H1280.86ZM1276.73 54.6059C1274.04 51.8376 1270.6 50.464 1266.51 50.464V52.464C1270.11 52.464 1273.01 53.6504 1275.3 56.0021L1276.73 54.6059ZM1266.51 50.464C1262.43 50.464 1258.99 51.8376 1256.29 54.6059L1257.73 56.0021C1260.02 53.6504 1262.92 52.464 1266.51 52.464V50.464ZM1256.3 54.5969C1253.6 57.3044 1252.27 60.8027 1252.27 65H1254.27C1254.27 61.2613 1255.43 58.2956 1257.72 56.0111L1256.3 54.5969ZM1252.27 65C1252.27 69.1976 1253.6 72.7221 1256.29 75.4901L1257.73 74.0939C1255.43 71.7419 1254.27 68.7384 1254.27 65H1252.27ZM1341.87 83.048L1341.17 82.3409L1341.87 83.048ZM1305.78 83.048L1306.48 82.3409L1305.78 83.048ZM1305.78 47.048L1306.48 47.7551L1305.78 47.048ZM1341.87 47.048L1341.17 47.7551L1341.87 47.048ZM1314.51 74.504L1313.79 75.1927L1313.8 75.202L1313.81 75.2111L1314.51 74.504ZM1314.51 55.496L1313.81 54.7889L1313.8 54.798L1313.79 54.8073L1314.51 55.496ZM1341.17 82.3409C1336.5 87.0087 1330.74 89.344 1323.82 89.344V91.344C1331.25 91.344 1337.52 88.8153 1342.58 83.7551L1341.17 82.3409ZM1323.82 89.344C1316.91 89.344 1311.15 87.0087 1306.48 82.3409L1305.07 83.7551C1310.13 88.8153 1316.4 91.344 1323.82 91.344V89.344ZM1306.48 82.3409C1301.82 77.673 1299.48 71.9152 1299.48 65H1297.48C1297.48 72.4208 1300.01 78.695 1305.07 83.7551L1306.48 82.3409ZM1299.48 65C1299.48 58.1515 1301.81 52.4248 1306.48 47.7551L1305.07 46.3409C1300.01 51.3992 1297.48 57.6405 1297.48 65H1299.48ZM1306.48 47.7551C1311.22 43.0187 1316.98 40.656 1323.82 40.656V38.656C1316.46 38.656 1310.19 41.2213 1305.07 46.3409L1306.48 47.7551ZM1323.82 40.656C1330.67 40.656 1336.43 43.0187 1341.17 47.7551L1342.58 46.3409C1337.46 41.2213 1331.19 38.656 1323.82 38.656V40.656ZM1341.17 47.7551C1345.9 52.4934 1348.26 58.2222 1348.26 65H1350.26C1350.26 57.6978 1347.7 51.4586 1342.58 46.3409L1341.17 47.7551ZM1348.26 65C1348.26 71.8445 1345.9 77.6045 1341.17 82.3409L1342.58 83.7551C1347.7 78.6355 1350.26 72.3635 1350.26 65H1348.26ZM1313.81 75.2111C1316.5 77.9051 1319.86 79.248 1323.82 79.248V77.248C1320.36 77.248 1317.52 76.0949 1315.22 73.7969L1313.81 75.2111ZM1323.82 79.248C1327.79 79.248 1331.15 77.9051 1333.84 75.2111L1332.43 73.7969C1330.13 76.0949 1327.29 77.248 1323.82 77.248V79.248ZM1333.84 75.2111C1336.54 72.5102 1337.88 69.0795 1337.88 65H1335.88C1335.88 68.6005 1334.72 71.5058 1332.43 73.7969L1333.84 75.2111ZM1337.88 65C1337.88 60.9205 1336.54 57.4898 1333.84 54.7889L1332.43 56.2031C1334.72 58.4942 1335.88 61.3995 1335.88 65H1337.88ZM1333.84 54.7889C1331.15 52.0949 1327.79 50.752 1323.82 50.752V52.752C1327.29 52.752 1330.13 53.9051 1332.43 56.2031L1333.84 54.7889ZM1323.82 50.752C1319.86 50.752 1316.5 52.0949 1313.81 54.7889L1315.22 56.2031C1317.52 53.9051 1320.36 52.752 1323.82 52.752V50.752ZM1313.79 54.8073C1311.17 57.5668 1309.86 60.9872 1309.86 65H1311.86C1311.86 61.4608 1313 58.5452 1315.24 56.1847L1313.79 54.8073ZM1309.86 65C1309.86 69.0128 1311.17 72.4332 1313.79 75.1927L1315.24 73.8152C1313 71.4548 1311.86 68.5392 1311.86 65H1309.86ZM1404.63 70.088V71.088H1405.49L1405.62 70.2424L1404.63 70.088ZM1368.44 70.088V69.088H1367.14L1367.47 70.345L1368.44 70.088ZM1392.73 74.312L1393.23 73.4458L1392.47 73.0057L1391.93 73.7069L1392.73 74.312ZM1402.71 80.072L1403.53 80.6408L1404.15 79.7482L1403.21 79.2058L1402.71 80.072ZM1362.68 83.144L1361.97 83.8511L1362.68 83.144ZM1362.58 46.952L1363.3 47.6496L1363.31 47.6447L1362.58 46.952ZM1398.2 46.952L1397.46 47.6295L1397.47 47.6397L1398.2 46.952ZM1368.25 60.488L1367.27 60.2646L1366.99 61.488H1368.25V60.488ZM1392.73 60.488V61.488H1393.98L1393.7 60.269L1392.73 60.488ZM1388.41 53.288L1387.79 54.0735L1387.8 54.078L1387.8 54.0824L1388.41 53.288ZM1372.57 53.384L1373.18 54.1784L1373.18 54.1728L1373.19 54.1671L1372.57 53.384ZM1404.63 69.088H1368.44V71.088H1404.63V69.088ZM1367.47 70.345C1368.33 73.5514 1369.98 76.029 1372.47 77.688C1374.94 79.3351 1378.14 80.112 1381.98 80.112V78.112C1378.39 78.112 1375.62 77.3849 1373.58 76.0239C1371.56 74.6749 1370.15 72.6406 1369.41 69.831L1367.47 70.345ZM1381.98 80.112C1386.96 80.112 1390.87 78.412 1393.52 74.9171L1391.93 73.7069C1389.72 76.612 1386.46 78.112 1381.98 78.112V80.112ZM1392.23 75.1782L1402.21 80.9382L1403.21 79.2058L1393.23 73.4458L1392.23 75.1782ZM1401.89 79.5032C1397.36 86.0491 1390.71 89.344 1381.78 89.344V91.344C1391.29 91.344 1398.59 87.7909 1403.53 80.6408L1401.89 79.5032ZM1381.78 89.344C1374.07 89.344 1367.97 87.0177 1363.39 82.4369L1361.97 83.8511C1366.99 88.8703 1373.63 91.344 1381.78 91.344V89.344ZM1363.39 82.4369C1358.79 77.8394 1356.48 72.0527 1356.48 65H1354.48C1354.48 72.5393 1356.97 78.8486 1361.97 83.8511L1363.39 82.4369ZM1356.48 65C1356.48 58.0765 1358.76 52.3157 1363.3 47.6496L1361.87 46.2544C1356.94 51.3163 1354.48 57.5875 1354.48 65H1356.48ZM1363.31 47.6447C1367.77 42.9997 1373.58 40.656 1380.82 40.656V38.656C1373.1 38.656 1366.75 41.1763 1361.86 46.2593L1363.31 47.6447ZM1380.82 40.656C1387.67 40.656 1393.19 42.9876 1397.46 47.6295L1398.94 46.2745C1394.25 41.1884 1388.18 38.656 1380.82 38.656V40.656ZM1397.47 47.6397C1401.89 52.3042 1404.11 58.0682 1404.11 65H1406.11C1406.11 57.5957 1403.72 51.3278 1398.93 46.2643L1397.47 47.6397ZM1404.11 65C1404.11 66.2725 1403.96 67.9125 1403.64 69.9336L1405.62 70.2424C1405.94 68.1675 1406.11 66.4155 1406.11 65H1404.11ZM1368.25 61.488H1392.73V59.488H1368.25V61.488ZM1393.7 60.269C1392.96 56.9456 1391.41 54.3242 1389.02 52.4936L1387.8 54.0824C1389.76 55.5798 1391.09 57.7584 1391.75 60.707L1393.7 60.269ZM1389.03 52.5025C1386.72 50.6862 1383.97 49.792 1380.82 49.792V51.792C1383.57 51.792 1385.87 52.5618 1387.79 54.0735L1389.03 52.5025ZM1380.82 49.792C1377.32 49.792 1374.33 50.7061 1371.95 52.6009L1373.19 54.1671C1375.16 52.6059 1377.68 51.792 1380.82 51.792V49.792ZM1371.96 52.5896C1369.57 54.4163 1368.02 57.0014 1367.27 60.2646L1369.22 60.7114C1369.88 57.8306 1371.21 55.6797 1373.18 54.1784L1371.96 52.5896ZM1438.14 64.712L1437.37 64.0808L1436.85 64.7137L1437.37 65.3452L1438.14 64.712ZM1458.01 89V90H1460.12L1458.79 88.3668L1458.01 89ZM1443.61 89L1442.83 89.6255L1443.13 90H1443.61V89ZM1426.14 67.208L1426.92 66.5825L1425.14 64.3621V67.208H1426.14ZM1426.14 89V90H1427.14V89H1426.14ZM1413.76 89H1412.76V90H1413.76V89ZM1413.76 41V40H1412.76V41H1413.76ZM1426.14 41H1427.14V40H1426.14V41ZM1426.14 62.12H1425.14V65.0227L1426.93 62.7359L1426.14 62.12ZM1442.65 41V40H1442.17L1441.87 40.3841L1442.65 41ZM1457.44 41L1458.21 41.6312L1459.54 40H1457.44V41ZM1437.37 65.3452L1457.24 89.6332L1458.79 88.3668L1438.92 64.0788L1437.37 65.3452ZM1458.01 88H1443.61V90H1458.01V88ZM1444.39 88.3745L1426.92 66.5825L1425.36 67.8335L1442.83 89.6255L1444.39 88.3745ZM1425.14 67.208V89H1427.14V67.208H1425.14ZM1426.14 88H1413.76V90H1426.14V88ZM1414.76 89V41H1412.76V89H1414.76ZM1413.76 42H1426.14V40H1413.76V42ZM1425.14 41V62.12H1427.14V41H1425.14ZM1426.93 62.7359L1443.44 41.6159L1441.87 40.3841L1425.35 61.5041L1426.93 62.7359ZM1442.65 42H1457.44V40H1442.65V42ZM1456.66 40.3688L1437.37 64.0808L1438.92 65.3432L1458.21 41.6312L1456.66 40.3688ZM1459.49 41V40H1458.49V41H1459.49ZM1502.02 41H1503.02V40H1502.02V41ZM1502.02 52.904V53.904H1503.02V52.904H1502.02ZM1487.04 52.904V51.904H1486.04V52.904H1487.04ZM1487.04 89V90H1488.04V89H1487.04ZM1474.66 89H1473.66V90H1474.66V89ZM1474.66 52.904H1475.66V51.904H1474.66V52.904ZM1459.49 52.904H1458.49V53.904H1459.49V52.904ZM1459.49 42H1502.02V40H1459.49V42ZM1501.02 41V52.904H1503.02V41H1501.02ZM1502.02 51.904H1487.04V53.904H1502.02V51.904ZM1486.04 52.904V89H1488.04V52.904H1486.04ZM1487.04 88H1474.66V90H1487.04V88ZM1475.66 89V52.904H1473.66V89H1475.66ZM1474.66 51.904H1459.49V53.904H1474.66V51.904ZM1460.49 52.904V41H1458.49V52.904H1460.49ZM1521.02 56.36H1520.02V57.36H1521.02V56.36ZM1543.48 60.872L1542.81 61.6139L1542.82 61.621L1543.48 60.872ZM1543.48 84.584L1544.14 85.333L1544.15 85.3259L1543.48 84.584ZM1508.63 89H1507.63V90H1508.63V89ZM1508.63 41V40H1507.63V41H1508.63ZM1521.02 41H1522.02V40H1521.02V41ZM1553.75 89H1552.75V90H1553.75V89ZM1553.75 41V40H1552.75V41H1553.75ZM1566.14 41H1567.14V40H1566.14V41ZM1566.14 89V90H1567.14V89H1566.14ZM1521.02 78.056H1520.02V79.056H1521.02V78.056ZM1534.65 76.616L1535.31 77.3658L1535.31 77.3634L1534.65 76.616ZM1534.65 68.744L1533.96 69.4722L1533.97 69.482L1533.98 69.4914L1534.65 68.744ZM1521.02 67.208V66.208H1520.02V67.208H1521.02ZM1521.02 57.36H1530.33V55.36H1521.02V57.36ZM1530.33 57.36C1535.58 57.36 1539.7 58.8057 1542.81 61.6139L1544.15 60.1301C1540.6 56.9223 1535.96 55.36 1530.33 55.36V57.36ZM1542.82 61.621C1545.91 64.3532 1547.47 68.0035 1547.47 72.68H1549.47C1549.47 67.5005 1547.71 63.2788 1544.14 60.123L1542.82 61.621ZM1547.47 72.68C1547.47 77.3564 1545.91 81.0436 1542.81 83.8421L1544.15 85.3259C1547.71 82.1084 1549.47 77.8596 1549.47 72.68H1547.47ZM1542.82 83.835C1539.71 86.583 1535.58 88 1530.33 88V90C1535.96 90 1540.59 88.473 1544.14 85.333L1542.82 83.835ZM1530.33 88H1508.63V90H1530.33V88ZM1509.63 89V41H1507.63V89H1509.63ZM1508.63 42H1521.02V40H1508.63V42ZM1520.02 41V56.36H1522.02V41H1520.02ZM1554.75 89V41H1552.75V89H1554.75ZM1553.75 42H1566.14V40H1553.75V42ZM1565.14 41V89H1567.14V41H1565.14ZM1566.14 88H1553.75V90H1566.14V88ZM1521.02 79.056H1530.42V77.056H1521.02V79.056ZM1530.42 79.056C1532.35 79.056 1534.01 78.5167 1535.31 77.3658L1533.99 75.8662C1533.12 76.6353 1531.96 77.056 1530.42 77.056V79.056ZM1535.31 77.3634C1536.69 76.1416 1537.38 74.5533 1537.38 72.68H1535.38C1535.38 74.0067 1534.91 75.0424 1533.98 75.8686L1535.31 77.3634ZM1537.38 72.68C1537.38 70.8067 1536.69 69.2184 1535.31 67.9966L1533.98 69.4914C1534.91 70.3176 1535.38 71.3533 1535.38 72.68H1537.38ZM1535.33 68.0158C1534.03 66.7899 1532.36 66.208 1530.42 66.208V68.208C1531.94 68.208 1533.09 68.65 1533.96 69.4722L1535.33 68.0158ZM1530.42 66.208H1521.02V68.208H1530.42V66.208ZM1520.02 67.208V78.056H1522.02V67.208H1520.02Z" fill="black" fill-opacity="0.6"/>
<path d="M1577.66 41H1621.54V89H1609.15V52.616H1590.05V89H1577.66V41ZM1660.82 39.656C1667.28 39.656 1672.79 42.12 1677.33 47.048C1681.94 51.976 1684.24 57.96 1684.24 65C1684.24 72.168 1681.94 78.184 1677.33 83.048C1672.85 87.912 1667.35 90.344 1660.82 90.344C1654.1 90.344 1648.91 88.008 1645.27 83.336V108.2H1632.88V41H1645.27V46.664C1648.91 41.992 1654.1 39.656 1660.82 39.656ZM1649.01 74.792C1651.51 77.288 1654.67 78.536 1658.51 78.536C1662.35 78.536 1665.52 77.288 1668.02 74.792C1670.58 72.232 1671.86 68.968 1671.86 65C1671.86 61.032 1670.58 57.8 1668.02 55.304C1665.52 52.744 1662.35 51.464 1658.51 51.464C1654.67 51.464 1651.51 52.744 1649.01 55.304C1646.51 57.8 1645.27 61.032 1645.27 65C1645.27 68.968 1646.51 72.232 1649.01 74.792ZM1733.87 83.048C1729.01 87.912 1722.99 90.344 1715.82 90.344C1708.66 90.344 1702.64 87.912 1697.78 83.048C1692.91 78.184 1690.48 72.168 1690.48 65C1690.48 57.896 1692.91 51.912 1697.78 47.048C1702.7 42.12 1708.72 39.656 1715.82 39.656C1722.93 39.656 1728.94 42.12 1733.87 47.048C1738.8 51.976 1741.26 57.96 1741.26 65C1741.26 72.104 1738.8 78.12 1733.87 83.048ZM1706.51 74.504C1709.01 77 1712.11 78.248 1715.82 78.248C1719.54 78.248 1722.64 77 1725.14 74.504C1727.63 72.008 1728.88 68.84 1728.88 65C1728.88 61.16 1727.63 57.992 1725.14 55.496C1722.64 53 1719.54 51.752 1715.82 51.752C1712.11 51.752 1709.01 53 1706.51 55.496C1704.08 58.056 1702.86 61.224 1702.86 65C1702.86 68.776 1704.08 71.944 1706.51 74.504ZM1796.63 70.088H1760.44C1762.04 76.104 1766.55 79.112 1773.98 79.112C1778.71 79.112 1782.3 77.512 1784.73 74.312L1794.71 80.072C1789.98 86.92 1783 90.344 1773.78 90.344C1765.85 90.344 1759.48 87.944 1754.68 83.144C1749.88 78.344 1747.48 72.296 1747.48 65C1747.48 57.832 1749.85 51.816 1754.58 46.952C1759.26 42.088 1765.34 39.656 1772.82 39.656C1779.93 39.656 1785.72 42.088 1790.2 46.952C1794.81 51.816 1797.11 57.832 1797.11 65C1797.11 66.344 1796.95 68.04 1796.63 70.088ZM1760.25 60.488H1784.73C1784.02 57.352 1782.58 54.952 1780.41 53.288C1778.3 51.624 1775.77 50.792 1772.82 50.792C1769.5 50.792 1766.74 51.656 1764.57 53.384C1762.39 55.048 1760.95 57.416 1760.25 60.488ZM1830.14 64.712L1850.01 89H1835.61L1818.14 67.208V89H1805.76V41H1818.14V62.12L1834.65 41H1849.44L1830.14 64.712ZM1851.49 41H1894.02V52.904H1879.04V89H1866.66V52.904H1851.49V41ZM1913.02 56.36H1922.33C1927.77 56.36 1932.15 57.864 1935.48 60.872C1938.81 63.816 1940.47 67.752 1940.47 72.68C1940.47 77.608 1938.81 81.576 1935.48 84.584C1932.15 87.528 1927.77 89 1922.33 89H1900.63V41H1913.02V56.36ZM1945.75 89V41H1958.14V89H1945.75ZM1913.02 78.056H1922.42C1924.15 78.056 1925.56 77.576 1926.65 76.616C1927.8 75.592 1928.38 74.28 1928.38 72.68C1928.38 71.08 1927.8 69.768 1926.65 68.744C1925.56 67.72 1924.15 67.208 1922.42 67.208H1913.02V78.056Z" fill="white"/>
<path d="M1577.66 41V40H1576.66V41H1577.66ZM1621.54 41H1622.54V40H1621.54V41ZM1621.54 89V90H1622.54V89H1621.54ZM1609.15 89H1608.15V90H1609.15V89ZM1609.15 52.616H1610.15V51.616H1609.15V52.616ZM1590.05 52.616V51.616H1589.05V52.616H1590.05ZM1590.05 89V90H1591.05V89H1590.05ZM1577.66 89H1576.66V90H1577.66V89ZM1577.66 42H1621.54V40H1577.66V42ZM1620.54 41V89H1622.54V41H1620.54ZM1621.54 88H1609.15V90H1621.54V88ZM1610.15 89V52.616H1608.15V89H1610.15ZM1609.15 51.616H1590.05V53.616H1609.15V51.616ZM1589.05 52.616V89H1591.05V52.616H1589.05ZM1590.05 88H1577.66V90H1590.05V88ZM1578.66 89V41H1576.66V89H1578.66ZM1677.33 47.048L1676.6 47.7259L1676.6 47.731L1677.33 47.048ZM1677.33 83.048L1676.6 82.3602L1676.6 82.3705L1677.33 83.048ZM1645.27 83.336L1646.05 82.7206L1644.27 80.4304V83.336H1645.27ZM1645.27 108.2V109.2H1646.27V108.2H1645.27ZM1632.88 108.2H1631.88V109.2H1632.88V108.2ZM1632.88 41V40H1631.88V41H1632.88ZM1645.27 41H1646.27V40H1645.27V41ZM1645.27 46.664H1644.27V49.5696L1646.05 47.2794L1645.27 46.664ZM1649.01 74.792L1648.29 75.4902L1648.3 75.4991L1649.01 74.792ZM1668.02 74.792L1667.31 74.0849L1668.02 74.792ZM1668.02 55.304L1667.3 56.0021L1667.31 56.0112L1667.32 56.02L1668.02 55.304ZM1649.01 55.304L1649.72 56.0112L1649.73 56.0021L1649.01 55.304ZM1660.82 40.656C1666.99 40.656 1672.23 42.9946 1676.6 47.7259L1678.07 46.3701C1673.34 41.2454 1667.57 38.656 1660.82 38.656V40.656ZM1676.6 47.731C1681.03 52.4651 1683.24 58.2015 1683.24 65H1685.24C1685.24 57.7185 1682.85 51.4869 1678.06 46.365L1676.6 47.731ZM1683.24 65C1683.24 71.9317 1681.02 77.6958 1676.6 82.3603L1678.06 83.7357C1682.85 78.6722 1685.24 72.4043 1685.24 65H1683.24ZM1676.6 82.3705C1672.3 87.032 1667.06 89.344 1660.82 89.344V91.344C1667.63 91.344 1673.4 88.792 1678.07 83.7255L1676.6 82.3705ZM1660.82 89.344C1654.36 89.344 1649.49 87.1152 1646.05 82.7206L1644.48 83.9514C1648.34 88.9007 1653.84 91.344 1660.82 91.344V89.344ZM1644.27 83.336V108.2H1646.27V83.336H1644.27ZM1645.27 107.2H1632.88V109.2H1645.27V107.2ZM1633.88 108.2V41H1631.88V108.2H1633.88ZM1632.88 42H1645.27V40H1632.88V42ZM1644.27 41V46.664H1646.27V41H1644.27ZM1646.05 47.2794C1649.49 42.8848 1654.36 40.656 1660.82 40.656V38.656C1653.84 38.656 1648.34 41.0993 1644.48 46.0486L1646.05 47.2794ZM1648.3 75.4991C1651 78.2001 1654.44 79.536 1658.51 79.536V77.536C1654.91 77.536 1652.01 76.3759 1649.72 74.0849L1648.3 75.4991ZM1658.51 79.536C1662.59 79.536 1666.02 78.2001 1668.73 75.4991L1667.31 74.0849C1665.02 76.3759 1662.12 77.536 1658.51 77.536V79.536ZM1668.73 75.4991C1671.49 72.7327 1672.86 69.2052 1672.86 65H1670.86C1670.86 68.7308 1669.67 71.7313 1667.31 74.0849L1668.73 75.4991ZM1672.86 65C1672.86 60.795 1671.49 57.2938 1668.72 54.588L1667.32 56.02C1669.67 58.3062 1670.86 61.269 1670.86 65H1672.86ZM1668.73 54.6059C1666.04 51.8376 1662.6 50.464 1658.51 50.464V52.464C1662.11 52.464 1665.01 53.6504 1667.3 56.0021L1668.73 54.6059ZM1658.51 50.464C1654.43 50.464 1650.99 51.8376 1648.29 54.6059L1649.73 56.0021C1652.02 53.6504 1654.92 52.464 1658.51 52.464V50.464ZM1648.3 54.5969C1645.6 57.3044 1644.27 60.8027 1644.27 65H1646.27C1646.27 61.2613 1647.43 58.2956 1649.72 56.0111L1648.3 54.5969ZM1644.27 65C1644.27 69.1976 1645.6 72.7221 1648.29 75.4901L1649.73 74.0939C1647.43 71.7419 1646.27 68.7384 1646.27 65H1644.27ZM1733.87 83.048L1733.17 82.3409L1733.87 83.048ZM1697.78 83.048L1698.48 82.3409L1697.78 83.048ZM1697.78 47.048L1698.48 47.7551L1697.78 47.048ZM1733.87 47.048L1733.17 47.7551L1733.87 47.048ZM1706.51 74.504L1705.79 75.1927L1705.8 75.202L1705.81 75.2111L1706.51 74.504ZM1706.51 55.496L1705.81 54.7889L1705.8 54.798L1705.79 54.8073L1706.51 55.496ZM1733.17 82.3409C1728.5 87.0087 1722.74 89.344 1715.82 89.344V91.344C1723.25 91.344 1729.52 88.8153 1734.58 83.7551L1733.17 82.3409ZM1715.82 89.344C1708.91 89.344 1703.15 87.0087 1698.48 82.3409L1697.07 83.7551C1702.13 88.8153 1708.4 91.344 1715.82 91.344V89.344ZM1698.48 82.3409C1693.82 77.673 1691.48 71.9152 1691.48 65H1689.48C1689.48 72.4208 1692.01 78.695 1697.07 83.7551L1698.48 82.3409ZM1691.48 65C1691.48 58.1515 1693.81 52.4248 1698.48 47.7551L1697.07 46.3409C1692.01 51.3992 1689.48 57.6405 1689.48 65H1691.48ZM1698.48 47.7551C1703.22 43.0187 1708.98 40.656 1715.82 40.656V38.656C1708.46 38.656 1702.19 41.2213 1697.07 46.3409L1698.48 47.7551ZM1715.82 40.656C1722.67 40.656 1728.43 43.0187 1733.17 47.7551L1734.58 46.3409C1729.46 41.2213 1723.19 38.656 1715.82 38.656V40.656ZM1733.17 47.7551C1737.9 52.4934 1740.26 58.2222 1740.26 65H1742.26C1742.26 57.6978 1739.7 51.4586 1734.58 46.3409L1733.17 47.7551ZM1740.26 65C1740.26 71.8445 1737.9 77.6045 1733.17 82.3409L1734.58 83.7551C1739.7 78.6355 1742.26 72.3635 1742.26 65H1740.26ZM1705.81 75.2111C1708.5 77.9051 1711.86 79.248 1715.82 79.248V77.248C1712.36 77.248 1709.52 76.0949 1707.22 73.7969L1705.81 75.2111ZM1715.82 79.248C1719.79 79.248 1723.15 77.9051 1725.84 75.2111L1724.43 73.7969C1722.13 76.0949 1719.29 77.248 1715.82 77.248V79.248ZM1725.84 75.2111C1728.54 72.5102 1729.88 69.0795 1729.88 65H1727.88C1727.88 68.6005 1726.72 71.5058 1724.43 73.7969L1725.84 75.2111ZM1729.88 65C1729.88 60.9205 1728.54 57.4898 1725.84 54.7889L1724.43 56.2031C1726.72 58.4942 1727.88 61.3995 1727.88 65H1729.88ZM1725.84 54.7889C1723.15 52.0949 1719.79 50.752 1715.82 50.752V52.752C1719.29 52.752 1722.13 53.9051 1724.43 56.2031L1725.84 54.7889ZM1715.82 50.752C1711.86 50.752 1708.5 52.0949 1705.81 54.7889L1707.22 56.2031C1709.52 53.9051 1712.36 52.752 1715.82 52.752V50.752ZM1705.79 54.8073C1703.17 57.5668 1701.86 60.9872 1701.86 65H1703.86C1703.86 61.4608 1705 58.5452 1707.24 56.1847L1705.79 54.8073ZM1701.86 65C1701.86 69.0128 1703.17 72.4332 1705.79 75.1927L1707.24 73.8152C1705 71.4548 1703.86 68.5392 1703.86 65H1701.86ZM1796.63 70.088V71.088H1797.49L1797.62 70.2424L1796.63 70.088ZM1760.44 70.088V69.088H1759.14L1759.47 70.345L1760.44 70.088ZM1784.73 74.312L1785.23 73.4458L1784.47 73.0057L1783.93 73.7069L1784.73 74.312ZM1794.71 80.072L1795.53 80.6408L1796.15 79.7482L1795.21 79.2058L1794.71 80.072ZM1754.68 83.144L1753.97 83.8511L1754.68 83.144ZM1754.58 46.952L1755.3 47.6496L1755.31 47.6447L1754.58 46.952ZM1790.2 46.952L1789.46 47.6295L1789.47 47.6397L1790.2 46.952ZM1760.25 60.488L1759.27 60.2646L1758.99 61.488H1760.25V60.488ZM1784.73 60.488V61.488H1785.98L1785.7 60.269L1784.73 60.488ZM1780.41 53.288L1779.79 54.0735L1779.8 54.078L1779.8 54.0824L1780.41 53.288ZM1764.57 53.384L1765.18 54.1784L1765.18 54.1728L1765.19 54.1671L1764.57 53.384ZM1796.63 69.088H1760.44V71.088H1796.63V69.088ZM1759.47 70.345C1760.33 73.5514 1761.98 76.029 1764.47 77.688C1766.94 79.3351 1770.14 80.112 1773.98 80.112V78.112C1770.39 78.112 1767.62 77.3849 1765.58 76.0239C1763.56 74.6749 1762.15 72.6406 1761.41 69.831L1759.47 70.345ZM1773.98 80.112C1778.96 80.112 1782.87 78.412 1785.52 74.9171L1783.93 73.7069C1781.72 76.612 1778.46 78.112 1773.98 78.112V80.112ZM1784.23 75.1782L1794.21 80.9382L1795.21 79.2058L1785.23 73.4458L1784.23 75.1782ZM1793.89 79.5032C1789.36 86.0491 1782.71 89.344 1773.78 89.344V91.344C1783.29 91.344 1790.59 87.7909 1795.53 80.6408L1793.89 79.5032ZM1773.78 89.344C1766.07 89.344 1759.97 87.0177 1755.39 82.4369L1753.97 83.8511C1758.99 88.8703 1765.63 91.344 1773.78 91.344V89.344ZM1755.39 82.4369C1750.79 77.8394 1748.48 72.0527 1748.48 65H1746.48C1746.48 72.5393 1748.97 78.8486 1753.97 83.8511L1755.39 82.4369ZM1748.48 65C1748.48 58.0765 1750.76 52.3157 1755.3 47.6496L1753.87 46.2544C1748.94 51.3163 1746.48 57.5875 1746.48 65H1748.48ZM1755.31 47.6447C1759.77 42.9997 1765.58 40.656 1772.82 40.656V38.656C1765.1 38.656 1758.75 41.1763 1753.86 46.2593L1755.31 47.6447ZM1772.82 40.656C1779.67 40.656 1785.19 42.9876 1789.46 47.6295L1790.94 46.2745C1786.25 41.1884 1780.18 38.656 1772.82 38.656V40.656ZM1789.47 47.6397C1793.89 52.3042 1796.11 58.0682 1796.11 65H1798.11C1798.11 57.5957 1795.72 51.3278 1790.93 46.2643L1789.47 47.6397ZM1796.11 65C1796.11 66.2725 1795.96 67.9125 1795.64 69.9336L1797.62 70.2424C1797.94 68.1675 1798.11 66.4155 1798.11 65H1796.11ZM1760.25 61.488H1784.73V59.488H1760.25V61.488ZM1785.7 60.269C1784.96 56.9456 1783.41 54.3242 1781.02 52.4936L1779.8 54.0824C1781.76 55.5798 1783.09 57.7584 1783.75 60.707L1785.7 60.269ZM1781.03 52.5025C1778.72 50.6862 1775.97 49.792 1772.82 49.792V51.792C1775.57 51.792 1777.87 52.5618 1779.79 54.0735L1781.03 52.5025ZM1772.82 49.792C1769.32 49.792 1766.33 50.7061 1763.95 52.6009L1765.19 54.1671C1767.16 52.6059 1769.68 51.792 1772.82 51.792V49.792ZM1763.96 52.5896C1761.57 54.4163 1760.02 57.0014 1759.27 60.2646L1761.22 60.7114C1761.88 57.8306 1763.21 55.6797 1765.18 54.1784L1763.96 52.5896ZM1830.14 64.712L1829.37 64.0808L1828.85 64.7137L1829.37 65.3452L1830.14 64.712ZM1850.01 89V90H1852.12L1850.79 88.3668L1850.01 89ZM1835.61 89L1834.83 89.6255L1835.13 90H1835.61V89ZM1818.14 67.208L1818.92 66.5825L1817.14 64.3621V67.208H1818.14ZM1818.14 89V90H1819.14V89H1818.14ZM1805.76 89H1804.76V90H1805.76V89ZM1805.76 41V40H1804.76V41H1805.76ZM1818.14 41H1819.14V40H1818.14V41ZM1818.14 62.12H1817.14V65.0227L1818.93 62.7359L1818.14 62.12ZM1834.65 41V40H1834.17L1833.87 40.3841L1834.65 41ZM1849.44 41L1850.21 41.6312L1851.54 40H1849.44V41ZM1829.37 65.3452L1849.24 89.6332L1850.79 88.3668L1830.92 64.0788L1829.37 65.3452ZM1850.01 88H1835.61V90H1850.01V88ZM1836.39 88.3745L1818.92 66.5825L1817.36 67.8335L1834.83 89.6255L1836.39 88.3745ZM1817.14 67.208V89H1819.14V67.208H1817.14ZM1818.14 88H1805.76V90H1818.14V88ZM1806.76 89V41H1804.76V89H1806.76ZM1805.76 42H1818.14V40H1805.76V42ZM1817.14 41V62.12H1819.14V41H1817.14ZM1818.93 62.7359L1835.44 41.6159L1833.87 40.3841L1817.35 61.5041L1818.93 62.7359ZM1834.65 42H1849.44V40H1834.65V42ZM1848.66 40.3688L1829.37 64.0808L1830.92 65.3432L1850.21 41.6312L1848.66 40.3688ZM1851.49 41V40H1850.49V41H1851.49ZM1894.02 41H1895.02V40H1894.02V41ZM1894.02 52.904V53.904H1895.02V52.904H1894.02ZM1879.04 52.904V51.904H1878.04V52.904H1879.04ZM1879.04 89V90H1880.04V89H1879.04ZM1866.66 89H1865.66V90H1866.66V89ZM1866.66 52.904H1867.66V51.904H1866.66V52.904ZM1851.49 52.904H1850.49V53.904H1851.49V52.904ZM1851.49 42H1894.02V40H1851.49V42ZM1893.02 41V52.904H1895.02V41H1893.02ZM1894.02 51.904H1879.04V53.904H1894.02V51.904ZM1878.04 52.904V89H1880.04V52.904H1878.04ZM1879.04 88H1866.66V90H1879.04V88ZM1867.66 89V52.904H1865.66V89H1867.66ZM1866.66 51.904H1851.49V53.904H1866.66V51.904ZM1852.49 52.904V41H1850.49V52.904H1852.49ZM1913.02 56.36H1912.02V57.36H1913.02V56.36ZM1935.48 60.872L1934.81 61.6139L1934.82 61.621L1935.48 60.872ZM1935.48 84.584L1936.14 85.333L1936.15 85.3259L1935.48 84.584ZM1900.63 89H1899.63V90H1900.63V89ZM1900.63 41V40H1899.63V41H1900.63ZM1913.02 41H1914.02V40H1913.02V41ZM1945.75 89H1944.75V90H1945.75V89ZM1945.75 41V40H1944.75V41H1945.75ZM1958.14 41H1959.14V40H1958.14V41ZM1958.14 89V90H1959.14V89H1958.14ZM1913.02 78.056H1912.02V79.056H1913.02V78.056ZM1926.65 76.616L1927.31 77.3658L1927.31 77.3634L1926.65 76.616ZM1926.65 68.744L1925.96 69.4722L1925.97 69.482L1925.98 69.4914L1926.65 68.744ZM1913.02 67.208V66.208H1912.02V67.208H1913.02ZM1913.02 57.36H1922.33V55.36H1913.02V57.36ZM1922.33 57.36C1927.58 57.36 1931.7 58.8057 1934.81 61.6139L1936.15 60.1301C1932.6 56.9223 1927.96 55.36 1922.33 55.36V57.36ZM1934.82 61.621C1937.91 64.3532 1939.47 68.0035 1939.47 72.68H1941.47C1941.47 67.5005 1939.71 63.2788 1936.14 60.123L1934.82 61.621ZM1939.47 72.68C1939.47 77.3564 1937.91 81.0436 1934.81 83.8421L1936.15 85.3259C1939.71 82.1084 1941.47 77.8596 1941.47 72.68H1939.47ZM1934.82 83.835C1931.71 86.583 1927.58 88 1922.33 88V90C1927.96 90 1932.59 88.473 1936.14 85.333L1934.82 83.835ZM1922.33 88H1900.63V90H1922.33V88ZM1901.63 89V41H1899.63V89H1901.63ZM1900.63 42H1913.02V40H1900.63V42ZM1912.02 41V56.36H1914.02V41H1912.02ZM1946.75 89V41H1944.75V89H1946.75ZM1945.75 42H1958.14V40H1945.75V42ZM1957.14 41V89H1959.14V41H1957.14ZM1958.14 88H1945.75V90H1958.14V88ZM1913.02 79.056H1922.42V77.056H1913.02V79.056ZM1922.42 79.056C1924.35 79.056 1926.01 78.5167 1927.31 77.3658L1925.99 75.8662C1925.12 76.6353 1923.96 77.056 1922.42 77.056V79.056ZM1927.31 77.3634C1928.69 76.1416 1929.38 74.5533 1929.38 72.68H1927.38C1927.38 74.0067 1926.91 75.0424 1925.98 75.8686L1927.31 77.3634ZM1929.38 72.68C1929.38 70.8067 1928.69 69.2184 1927.31 67.9966L1925.98 69.4914C1926.91 70.3176 1927.38 71.3533 1927.38 72.68H1929.38ZM1927.33 68.0158C1926.03 66.7899 1924.36 66.208 1922.42 66.208V68.208C1923.94 68.208 1925.09 68.65 1925.96 69.4722L1927.33 68.0158ZM1922.42 66.208H1913.02V68.208H1922.42V66.208ZM1912.02 67.208V78.056H1914.02V67.208H1912.02Z" fill="black" fill-opacity="0.4"/>
</svg>
