<svg width="2169" height="125" viewBox="0 0 2169 125" fill="none" xmlns="http://www.w3.org/2000/svg">
<path d="M476.144 46.664V41H488.528V89H476.144V83.336C472.432 88.008 467.216 90.344 460.496 90.344C454.096 90.344 448.592 87.912 443.984 83.048C439.44 78.12 437.168 72.104 437.168 65C437.168 57.96 439.44 51.976 443.984 47.048C448.592 42.12 454.096 39.656 460.496 39.656C467.216 39.656 472.432 41.992 476.144 46.664ZM453.296 74.792C455.792 77.288 458.96 78.536 462.8 78.536C466.64 78.536 469.808 77.288 472.304 74.792C474.864 72.232 476.144 68.968 476.144 65C476.144 61.032 474.864 57.8 472.304 55.304C469.808 52.744 466.64 51.464 462.8 51.464C458.96 51.464 455.792 52.744 453.296 55.304C450.8 57.8 449.552 61.032 449.552 65C449.552 68.968 450.8 72.232 453.296 74.792ZM534.318 64.424C538.798 66.6 541.038 70.248 541.038 75.368C541.038 79.464 539.63 82.76 536.814 85.256C533.998 87.752 530.062 89 525.006 89H499.758V41H523.086C528.078 41 531.982 42.248 534.798 44.744C537.614 47.176 539.022 50.44 539.022 54.536C539.022 58.76 537.454 62.056 534.318 64.424ZM521.934 51.176H511.374V59.816H521.934C525.454 59.816 527.214 58.376 527.214 55.496C527.214 52.616 525.454 51.176 521.934 51.176ZM511.374 78.536H523.566C527.15 78.536 528.942 77 528.942 73.928C528.942 72.584 528.462 71.528 527.502 70.76C526.542 69.992 525.23 69.608 523.566 69.608H511.374V78.536ZM542.866 41H585.394V52.904H570.418V89H558.034V52.904H542.866V41ZM631.029 83.048C626.165 87.912 620.149 90.344 612.981 90.344C605.813 90.344 599.797 87.912 594.933 83.048C590.069 78.184 587.637 72.168 587.637 65C587.637 57.896 590.069 51.912 594.933 47.048C599.861 42.12 605.877 39.656 612.981 39.656C620.085 39.656 626.101 42.12 631.029 47.048C635.957 51.976 638.421 57.96 638.421 65C638.421 72.104 635.957 78.12 631.029 83.048ZM603.669 74.504C606.165 77 609.269 78.248 612.981 78.248C616.693 78.248 619.797 77 622.293 74.504C624.789 72.008 626.037 68.84 626.037 65C626.037 61.16 624.789 57.992 622.293 55.496C619.797 53 616.693 51.752 612.981 51.752C609.269 51.752 606.165 53 603.669 55.496C601.237 58.056 600.021 61.224 600.021 65C600.021 68.776 601.237 71.944 603.669 74.504ZM647.133 41H691.005V89H678.621V52.616H659.517V89H647.133V41ZM738.832 46.664V41H751.216V89H738.832V83.336C735.12 88.008 729.904 90.344 723.184 90.344C716.784 90.344 711.28 87.912 706.672 83.048C702.128 78.12 699.855 72.104 699.855 65C699.855 57.96 702.128 51.976 706.672 47.048C711.28 42.12 716.784 39.656 723.184 39.656C729.904 39.656 735.12 41.992 738.832 46.664ZM715.984 74.792C718.48 77.288 721.648 78.536 725.488 78.536C729.328 78.536 732.496 77.288 734.992 74.792C737.552 72.232 738.832 68.968 738.832 65C738.832 61.032 737.552 57.8 734.992 55.304C732.496 52.744 729.328 51.464 725.488 51.464C721.648 51.464 718.48 52.744 715.984 55.304C713.488 57.8 712.24 61.032 712.24 65C712.24 68.968 713.488 72.232 715.984 74.792ZM790.381 39.656C796.845 39.656 802.349 42.12 806.893 47.048C811.501 51.976 813.805 57.96 813.805 65C813.805 72.168 811.501 78.184 806.893 83.048C802.413 87.912 796.909 90.344 790.381 90.344C783.661 90.344 778.477 88.008 774.829 83.336V108.2H762.445V41H774.829V46.664C778.477 41.992 783.661 39.656 790.381 39.656ZM778.573 74.792C781.069 77.288 784.237 78.536 788.077 78.536C791.917 78.536 795.085 77.288 797.581 74.792C800.141 72.232 801.421 68.968 801.421 65C801.421 61.032 800.141 57.8 797.581 55.304C795.085 52.744 791.917 51.464 788.077 51.464C784.237 51.464 781.069 52.744 778.573 55.304C776.077 57.8 774.829 61.032 774.829 65C774.829 68.968 776.077 72.232 778.573 74.792ZM846.923 64.712L866.795 89H852.395L834.923 67.208V89H822.539V41H834.923V62.12L851.435 41H866.219L846.923 64.712Z" fill="#FF5C00"/>
<path d="M1344.14 46.664L1343.36 47.2861L1345.14 49.5301V46.664H1344.14ZM1344.14 41V40H1343.14V41H1344.14ZM1356.53 41H1357.53V40H1356.53V41ZM1356.53 89V90H1357.53V89H1356.53ZM1344.14 89H1343.14V90H1344.14V89ZM1344.14 83.336H1345.14V80.4699L1343.36 82.7139L1344.14 83.336ZM1311.98 83.048L1311.25 83.7259L1311.26 83.7357L1311.98 83.048ZM1311.98 47.048L1311.25 46.365L1311.25 46.3701L1311.98 47.048ZM1321.3 74.792L1320.58 75.4902L1320.59 75.4991L1321.3 74.792ZM1340.3 74.792L1341.01 75.4991L1340.3 74.792ZM1340.3 55.304L1339.59 56.0021L1339.6 56.0112L1339.61 56.02L1340.3 55.304ZM1321.3 55.304L1322 56.0112L1322.01 56.0021L1321.3 55.304ZM1345.14 46.664V41H1343.14V46.664H1345.14ZM1344.14 42H1356.53V40H1344.14V42ZM1355.53 41V89H1357.53V41H1355.53ZM1356.53 88H1344.14V90H1356.53V88ZM1345.14 89V83.336H1343.14V89H1345.14ZM1343.36 82.7139C1339.86 87.115 1334.95 89.344 1328.5 89.344V91.344C1335.48 91.344 1341 88.901 1344.93 83.9581L1343.36 82.7139ZM1328.5 89.344C1322.38 89.344 1317.14 87.0354 1312.71 82.3603L1311.26 83.7357C1316.04 88.7886 1321.81 91.344 1328.5 91.344V89.344ZM1312.72 82.3701C1308.36 77.6385 1306.17 71.8693 1306.17 65H1304.17C1304.17 72.3387 1306.52 78.6014 1311.25 83.7259L1312.72 82.3701ZM1306.17 65C1306.17 58.1973 1308.35 52.4593 1312.72 47.7259L1311.25 46.3701C1306.53 51.4927 1304.17 57.7227 1304.17 65H1306.17ZM1312.71 47.731C1317.14 42.9929 1322.39 40.656 1328.5 40.656V38.656C1321.8 38.656 1316.04 41.2471 1311.25 46.365L1312.71 47.731ZM1328.5 40.656C1334.95 40.656 1339.86 42.8851 1343.36 47.2861L1344.93 46.0419C1341 41.0989 1335.48 38.656 1328.5 38.656V40.656ZM1320.59 75.4991C1323.29 78.2001 1326.72 79.536 1330.8 79.536V77.536C1327.2 77.536 1324.29 76.3759 1322 74.0849L1320.59 75.4991ZM1330.8 79.536C1334.88 79.536 1338.31 78.2001 1341.01 75.4991L1339.6 74.0849C1337.31 76.3759 1334.4 77.536 1330.8 77.536V79.536ZM1341.01 75.4991C1343.78 72.7327 1345.14 69.2052 1345.14 65H1343.14C1343.14 68.7308 1341.95 71.7313 1339.6 74.0849L1341.01 75.4991ZM1345.14 65C1345.14 60.795 1343.78 57.2938 1341 54.588L1339.61 56.02C1341.95 58.3062 1343.14 61.269 1343.14 65H1345.14ZM1341.02 54.6059C1338.32 51.8376 1334.89 50.464 1330.8 50.464V52.464C1334.39 52.464 1337.3 53.6504 1339.59 56.0021L1341.02 54.6059ZM1330.8 50.464C1326.71 50.464 1323.28 51.8376 1320.58 54.6059L1322.01 56.0021C1324.3 53.6504 1327.21 52.464 1330.8 52.464V50.464ZM1320.59 54.5969C1317.88 57.3044 1316.55 60.8027 1316.55 65H1318.55C1318.55 61.2613 1319.72 58.2956 1322 56.0111L1320.59 54.5969ZM1316.55 65C1316.55 69.1976 1317.88 72.7221 1320.58 75.4901L1322.01 74.0939C1319.72 71.7419 1318.55 68.7384 1318.55 65H1316.55ZM1402.32 64.424L1401.72 63.626L1400.41 64.61L1401.88 65.3235L1402.32 64.424ZM1367.76 89H1366.76V90H1367.76V89ZM1367.76 41V40H1366.76V41H1367.76ZM1402.8 44.744L1402.13 45.4924L1402.14 45.5008L1402.8 44.744ZM1379.37 51.176V50.176H1378.37V51.176H1379.37ZM1379.37 59.816H1378.37V60.816H1379.37V59.816ZM1379.37 78.536H1378.37V79.536H1379.37V78.536ZM1395.5 70.76L1396.13 69.9791V69.9791L1395.5 70.76ZM1379.37 69.608V68.608H1378.37V69.608H1379.37ZM1401.88 65.3235C1403.98 66.3421 1405.5 67.6788 1406.51 69.3153C1407.51 70.9534 1408.04 72.9562 1408.04 75.368H1410.04C1410.04 72.6598 1409.44 70.2786 1408.21 68.2687C1406.97 66.2572 1405.14 64.6819 1402.75 63.5245L1401.88 65.3235ZM1408.04 75.368C1408.04 79.2063 1406.73 82.2195 1404.15 84.5077L1405.48 86.0043C1408.53 83.3005 1410.04 79.7217 1410.04 75.368H1408.04ZM1404.15 84.5077C1401.57 86.7928 1397.9 88 1393.01 88V90C1398.22 90 1402.42 88.7112 1405.48 86.0043L1404.15 84.5077ZM1393.01 88H1367.76V90H1393.01V88ZM1368.76 89V41H1366.76V89H1368.76ZM1367.76 42H1391.09V40H1367.76V42ZM1391.09 42C1395.91 42 1399.55 43.2053 1402.13 45.4923L1403.46 43.9957C1400.41 41.2907 1396.24 40 1391.09 40V42ZM1402.14 45.5008C1404.72 47.7223 1406.02 50.6976 1406.02 54.536H1408.02C1408.02 50.1824 1406.51 46.6297 1403.45 43.9872L1402.14 45.5008ZM1406.02 54.536C1406.02 58.4736 1404.58 61.4628 1401.72 63.626L1402.92 65.222C1406.33 62.6492 1408.02 59.0464 1408.02 54.536H1406.02ZM1389.93 50.176H1379.37V52.176H1389.93V50.176ZM1378.37 51.176V59.816H1380.37V51.176H1378.37ZM1379.37 60.816H1389.93V58.816H1379.37V60.816ZM1389.93 60.816C1391.8 60.816 1393.39 60.4374 1394.53 59.51C1395.7 58.5511 1396.21 57.149 1396.21 55.496H1394.21C1394.21 56.723 1393.85 57.4809 1393.26 57.962C1392.63 58.4746 1391.58 58.816 1389.93 58.816V60.816ZM1396.21 55.496C1396.21 53.843 1395.7 52.4409 1394.53 51.482C1393.39 50.5546 1391.8 50.176 1389.93 50.176V52.176C1391.58 52.176 1392.63 52.5174 1393.26 53.03C1393.85 53.5111 1394.21 54.269 1394.21 55.496H1396.21ZM1379.37 79.536H1391.57V77.536H1379.37V79.536ZM1391.57 79.536C1393.48 79.536 1395.1 79.1296 1396.25 78.1433C1397.43 77.1316 1397.94 75.6619 1397.94 73.928H1395.94C1395.94 75.2661 1395.56 76.1004 1394.95 76.6247C1394.31 77.1744 1393.24 77.536 1391.57 77.536V79.536ZM1397.94 73.928C1397.94 72.3126 1397.35 70.9562 1396.13 69.9791L1394.88 71.5409C1395.58 72.0998 1395.94 72.8554 1395.94 73.928H1397.94ZM1396.13 69.9791C1394.94 69.0263 1393.38 68.608 1391.57 68.608V70.608C1393.08 70.608 1394.15 70.9577 1394.88 71.5409L1396.13 69.9791ZM1391.57 68.608H1379.37V70.608H1391.57V68.608ZM1378.37 69.608V78.536H1380.37V69.608H1378.37ZM1410.87 41V40H1409.87V41H1410.87ZM1453.39 41H1454.39V40H1453.39V41ZM1453.39 52.904V53.904H1454.39V52.904H1453.39ZM1438.42 52.904V51.904H1437.42V52.904H1438.42ZM1438.42 89V90H1439.42V89H1438.42ZM1426.03 89H1425.03V90H1426.03V89ZM1426.03 52.904H1427.03V51.904H1426.03V52.904ZM1410.87 52.904H1409.87V53.904H1410.87V52.904ZM1410.87 42H1453.39V40H1410.87V42ZM1452.39 41V52.904H1454.39V41H1452.39ZM1453.39 51.904H1438.42V53.904H1453.39V51.904ZM1437.42 52.904V89H1439.42V52.904H1437.42ZM1438.42 88H1426.03V90H1438.42V88ZM1427.03 89V52.904H1425.03V89H1427.03ZM1426.03 51.904H1410.87V53.904H1426.03V51.904ZM1411.87 52.904V41H1409.87V52.904H1411.87ZM1499.03 83.048L1498.32 82.3409L1499.03 83.048ZM1462.93 83.048L1463.64 82.3409L1462.93 83.048ZM1462.93 47.048L1463.64 47.7551L1462.93 47.048ZM1499.03 47.048L1498.32 47.7551L1499.03 47.048ZM1471.67 74.504L1470.94 75.1927L1470.95 75.202L1470.96 75.2111L1471.67 74.504ZM1471.67 55.496L1470.96 54.7889L1470.95 54.798L1470.94 54.8073L1471.67 55.496ZM1498.32 82.3409C1493.65 87.0087 1487.9 89.344 1480.98 89.344V91.344C1488.4 91.344 1494.68 88.8153 1499.74 83.7551L1498.32 82.3409ZM1480.98 89.344C1474.07 89.344 1468.31 87.0087 1463.64 82.3409L1462.23 83.7551C1467.29 88.8153 1473.56 91.344 1480.98 91.344V89.344ZM1463.64 82.3409C1458.97 77.673 1456.64 71.9152 1456.64 65H1454.64C1454.64 72.4208 1457.17 78.695 1462.23 83.7551L1463.64 82.3409ZM1456.64 65C1456.64 58.1515 1458.97 52.4248 1463.64 47.7551L1462.23 46.3409C1457.17 51.3992 1454.64 57.6405 1454.64 65H1456.64ZM1463.64 47.7551C1468.38 43.0187 1474.14 40.656 1480.98 40.656V38.656C1473.62 38.656 1467.35 41.2213 1462.23 46.3409L1463.64 47.7551ZM1480.98 40.656C1487.83 40.656 1493.59 43.0187 1498.32 47.7551L1499.74 46.3409C1494.62 41.2213 1488.34 38.656 1480.98 38.656V40.656ZM1498.32 47.7551C1503.06 52.4934 1505.42 58.2222 1505.42 65H1507.42C1507.42 57.6978 1504.85 51.4586 1499.74 46.3409L1498.32 47.7551ZM1505.42 65C1505.42 71.8445 1503.06 77.6045 1498.32 82.3409L1499.74 83.7551C1504.86 78.6355 1507.42 72.3635 1507.42 65H1505.42ZM1470.96 75.2111C1473.66 77.9051 1477.02 79.248 1480.98 79.248V77.248C1477.52 77.248 1474.67 76.0949 1472.38 73.7969L1470.96 75.2111ZM1480.98 79.248C1484.94 79.248 1488.31 77.9051 1491 75.2111L1489.59 73.7969C1487.29 76.0949 1484.44 77.248 1480.98 77.248V79.248ZM1491 75.2111C1493.7 72.5102 1495.04 69.0795 1495.04 65H1493.04C1493.04 68.6005 1491.88 71.5058 1489.59 73.7969L1491 75.2111ZM1495.04 65C1495.04 60.9205 1493.7 57.4898 1491 54.7889L1489.59 56.2031C1491.88 58.4942 1493.04 61.3995 1493.04 65H1495.04ZM1491 54.7889C1488.31 52.0949 1484.94 50.752 1480.98 50.752V52.752C1484.44 52.752 1487.29 53.9051 1489.59 56.2031L1491 54.7889ZM1480.98 50.752C1477.02 50.752 1473.66 52.0949 1470.96 54.7889L1472.38 56.2031C1474.67 53.9051 1477.52 52.752 1480.98 52.752V50.752ZM1470.94 54.8073C1468.32 57.5668 1467.02 60.9872 1467.02 65H1469.02C1469.02 61.4608 1470.15 58.5452 1472.39 56.1847L1470.94 54.8073ZM1467.02 65C1467.02 69.0128 1468.32 72.4332 1470.94 75.1927L1472.39 73.8152C1470.15 71.4548 1469.02 68.5392 1469.02 65H1467.02ZM1515.13 41V40H1514.13V41H1515.13ZM1559 41H1560V40H1559V41ZM1559 89V90H1560V89H1559ZM1546.62 89H1545.62V90H1546.62V89ZM1546.62 52.616H1547.62V51.616H1546.62V52.616ZM1527.52 52.616V51.616H1526.52V52.616H1527.52ZM1527.52 89V90H1528.52V89H1527.52ZM1515.13 89H1514.13V90H1515.13V89ZM1515.13 42H1559V40H1515.13V42ZM1558 41V89H1560V41H1558ZM1559 88H1546.62V90H1559V88ZM1547.62 89V52.616H1545.62V89H1547.62ZM1546.62 51.616H1527.52V53.616H1546.62V51.616ZM1526.52 52.616V89H1528.52V52.616H1526.52ZM1527.52 88H1515.13V90H1527.52V88ZM1516.13 89V41H1514.13V89H1516.13ZM1606.83 46.664L1606.05 47.2861L1607.83 49.5301V46.664H1606.83ZM1606.83 41V40H1605.83V41H1606.83ZM1619.22 41H1620.22V40H1619.22V41ZM1619.22 89V90H1620.22V89H1619.22ZM1606.83 89H1605.83V90H1606.83V89ZM1606.83 83.336H1607.83V80.4699L1606.05 82.7139L1606.83 83.336ZM1574.67 83.048L1573.94 83.7259L1573.95 83.7357L1574.67 83.048ZM1574.67 47.048L1573.94 46.365L1573.94 46.3701L1574.67 47.048ZM1583.98 74.792L1583.27 75.4902L1583.28 75.4991L1583.98 74.792ZM1602.99 74.792L1603.7 75.4991L1602.99 74.792ZM1602.99 55.304L1602.28 56.0021L1602.28 56.0112L1602.29 56.02L1602.99 55.304ZM1583.98 55.304L1584.69 56.0112L1584.7 56.0021L1583.98 55.304ZM1607.83 46.664V41H1605.83V46.664H1607.83ZM1606.83 42H1619.22V40H1606.83V42ZM1618.22 41V89H1620.22V41H1618.22ZM1619.22 88H1606.83V90H1619.22V88ZM1607.83 89V83.336H1605.83V89H1607.83ZM1606.05 82.7139C1602.55 87.115 1597.64 89.344 1591.18 89.344V91.344C1598.16 91.344 1603.69 88.901 1607.61 83.9581L1606.05 82.7139ZM1591.18 89.344C1585.07 89.344 1579.83 87.0354 1575.4 82.3603L1573.95 83.7357C1578.73 88.7886 1584.49 91.344 1591.18 91.344V89.344ZM1575.41 82.3701C1571.04 77.6385 1568.86 71.8693 1568.86 65H1566.86C1566.86 72.3387 1569.21 78.6014 1573.94 83.7259L1575.41 82.3701ZM1568.86 65C1568.86 58.1973 1571.04 52.4593 1575.41 47.7259L1573.94 46.3701C1569.21 51.4927 1566.86 57.7227 1566.86 65H1568.86ZM1575.4 47.731C1579.83 42.9929 1585.08 40.656 1591.18 40.656V38.656C1584.49 38.656 1578.73 41.2471 1573.94 46.365L1575.4 47.731ZM1591.18 40.656C1597.64 40.656 1602.55 42.8851 1606.05 47.2861L1607.61 46.0419C1603.69 41.0989 1598.16 38.656 1591.18 38.656V40.656ZM1583.28 75.4991C1585.98 78.2001 1589.41 79.536 1593.49 79.536V77.536C1589.89 77.536 1586.98 76.3759 1584.69 74.0849L1583.28 75.4991ZM1593.49 79.536C1597.57 79.536 1601 78.2001 1603.7 75.4991L1602.28 74.0849C1599.99 76.3759 1597.09 77.536 1593.49 77.536V79.536ZM1603.7 75.4991C1606.47 72.7327 1607.83 69.2052 1607.83 65H1605.83C1605.83 68.7308 1604.64 71.7313 1602.28 74.0849L1603.7 75.4991ZM1607.83 65C1607.83 60.795 1606.46 57.2938 1603.69 54.588L1602.29 56.02C1604.64 58.3062 1605.83 61.269 1605.83 65H1607.83ZM1603.71 54.6059C1601.01 51.8376 1597.57 50.464 1593.49 50.464V52.464C1597.08 52.464 1599.98 53.6504 1602.28 56.0021L1603.71 54.6059ZM1593.49 50.464C1589.4 50.464 1585.97 51.8376 1583.27 54.6059L1584.7 56.0021C1586.99 53.6504 1589.89 52.464 1593.49 52.464V50.464ZM1583.28 54.5969C1580.57 57.3044 1579.24 60.8027 1579.24 65H1581.24C1581.24 61.2613 1582.41 58.2956 1584.69 56.0111L1583.28 54.5969ZM1579.24 65C1579.24 69.1976 1580.57 72.7221 1583.27 75.4901L1584.7 74.0939C1582.41 71.7419 1581.24 68.7384 1581.24 65H1579.24ZM1674.89 47.048L1674.16 47.7259L1674.16 47.731L1674.89 47.048ZM1674.89 83.048L1674.17 82.3602L1674.16 82.3705L1674.89 83.048ZM1642.83 83.336L1643.62 82.7206L1641.83 80.4304V83.336H1642.83ZM1642.83 108.2V109.2H1643.83V108.2H1642.83ZM1630.45 108.2H1629.45V109.2H1630.45V108.2ZM1630.45 41V40H1629.45V41H1630.45ZM1642.83 41H1643.83V40H1642.83V41ZM1642.83 46.664H1641.83V49.5696L1643.62 47.2794L1642.83 46.664ZM1646.57 74.792L1645.86 75.4902L1645.87 75.4991L1646.57 74.792ZM1665.58 74.792L1664.87 74.0849L1665.58 74.792ZM1665.58 55.304L1664.87 56.0021L1664.87 56.0112L1664.88 56.02L1665.58 55.304ZM1646.57 55.304L1647.28 56.0112L1647.29 56.0021L1646.57 55.304ZM1658.38 40.656C1664.55 40.656 1669.8 42.9946 1674.16 47.7259L1675.63 46.3701C1670.9 41.2454 1665.14 38.656 1658.38 38.656V40.656ZM1674.16 47.731C1678.59 52.4651 1680.81 58.2015 1680.81 65H1682.81C1682.81 57.7185 1680.41 51.4869 1675.62 46.365L1674.16 47.731ZM1680.81 65C1680.81 71.9317 1678.59 77.6958 1674.17 82.3603L1675.62 83.7357C1680.42 78.6722 1682.81 72.4043 1682.81 65H1680.81ZM1674.16 82.3705C1669.86 87.032 1664.63 89.344 1658.38 89.344V91.344C1665.19 91.344 1670.96 88.792 1675.63 83.7255L1674.16 82.3705ZM1658.38 89.344C1651.92 89.344 1647.05 87.1152 1643.62 82.7206L1642.04 83.9514C1645.91 88.9007 1651.4 91.344 1658.38 91.344V89.344ZM1641.83 83.336V108.2H1643.83V83.336H1641.83ZM1642.83 107.2H1630.45V109.2H1642.83V107.2ZM1631.45 108.2V41H1629.45V108.2H1631.45ZM1630.45 42H1642.83V40H1630.45V42ZM1641.83 41V46.664H1643.83V41H1641.83ZM1643.62 47.2794C1647.05 42.8848 1651.92 40.656 1658.38 40.656V38.656C1651.4 38.656 1645.91 41.0993 1642.04 46.0486L1643.62 47.2794ZM1645.87 75.4991C1648.57 78.2001 1652 79.536 1656.08 79.536V77.536C1652.48 77.536 1649.57 76.3759 1647.28 74.0849L1645.87 75.4991ZM1656.08 79.536C1660.16 79.536 1663.59 78.2001 1666.29 75.4991L1664.87 74.0849C1662.58 76.3759 1659.68 77.536 1656.08 77.536V79.536ZM1666.29 75.4991C1669.05 72.7327 1670.42 69.2052 1670.42 65H1668.42C1668.42 68.7308 1667.23 71.7313 1664.87 74.0849L1666.29 75.4991ZM1670.42 65C1670.42 60.795 1669.05 57.2938 1666.28 54.588L1664.88 56.02C1667.23 58.3062 1668.42 61.269 1668.42 65H1670.42ZM1666.3 54.6059C1663.6 51.8376 1660.16 50.464 1656.08 50.464V52.464C1659.67 52.464 1662.57 53.6504 1664.87 56.0021L1666.3 54.6059ZM1656.08 50.464C1651.99 50.464 1648.56 51.8376 1645.86 54.6059L1647.29 56.0021C1649.58 53.6504 1652.48 52.464 1656.08 52.464V50.464ZM1645.87 54.5969C1643.16 57.3044 1641.83 60.8027 1641.83 65H1643.83C1643.83 61.2613 1645 58.2956 1647.28 56.0111L1645.87 54.5969ZM1641.83 65C1641.83 69.1976 1643.16 72.7221 1645.86 75.4901L1647.29 74.0939C1645 71.7419 1643.83 68.7384 1643.83 65H1641.83ZM1714.92 64.712L1714.15 64.0808L1713.63 64.7137L1714.15 65.3452L1714.92 64.712ZM1734.8 89V90H1736.91L1735.57 88.3668L1734.8 89ZM1720.39 89L1719.61 89.6255L1719.92 90H1720.39V89ZM1702.92 67.208L1703.7 66.5825L1701.92 64.3621V67.208H1702.92ZM1702.92 89V90H1703.92V89H1702.92ZM1690.54 89H1689.54V90H1690.54V89ZM1690.54 41V40H1689.54V41H1690.54ZM1702.92 41H1703.92V40H1702.92V41ZM1702.92 62.12H1701.92V65.0227L1703.71 62.7359L1702.92 62.12ZM1719.43 41V40H1718.95L1718.65 40.3841L1719.43 41ZM1734.22 41L1734.99 41.6312L1736.32 40H1734.22V41ZM1714.15 65.3452L1734.02 89.6332L1735.57 88.3668L1715.7 64.0788L1714.15 65.3452ZM1734.8 88H1720.39V90H1734.8V88ZM1721.18 88.3745L1703.7 66.5825L1702.14 67.8335L1719.61 89.6255L1721.18 88.3745ZM1701.92 67.208V89H1703.92V67.208H1701.92ZM1702.92 88H1690.54V90H1702.92V88ZM1691.54 89V41H1689.54V89H1691.54ZM1690.54 42H1702.92V40H1690.54V42ZM1701.92 41V62.12H1703.92V41H1701.92ZM1703.71 62.7359L1720.22 41.6159L1718.65 40.3841L1702.14 61.5041L1703.71 62.7359ZM1719.43 42H1734.22V40H1719.43V42ZM1733.44 40.3688L1714.15 64.0808L1715.7 65.3432L1734.99 41.6312L1733.44 40.3688Z" fill="#FF5C00"/>
<path d="M910.144 46.664L909.361 47.2861L911.144 49.5301V46.664H910.144ZM910.144 41V40H909.144V41H910.144ZM922.528 41H923.528V40H922.528V41ZM922.528 89V90H923.528V89H922.528ZM910.144 89H909.144V90H910.144V89ZM910.144 83.336H911.144V80.4699L909.361 82.7139L910.144 83.336ZM877.984 83.048L877.249 83.7259L877.258 83.7357L877.984 83.048ZM877.984 47.048L877.254 46.365L877.249 46.3701L877.984 47.048ZM887.296 74.792L886.58 75.4902L886.589 75.4991L887.296 74.792ZM906.304 74.792L907.011 75.4991L906.304 74.792ZM906.304 55.304L905.588 56.0021L905.597 56.0112L905.606 56.02L906.304 55.304ZM887.296 55.304L888.003 56.0112L888.012 56.0021L887.296 55.304ZM911.144 46.664V41H909.144V46.664H911.144ZM910.144 42H922.528V40H910.144V42ZM921.528 41V89H923.528V41H921.528ZM922.528 88H910.144V90H922.528V88ZM911.144 89V83.336H909.144V89H911.144ZM909.361 82.7139C905.864 87.115 900.955 89.344 894.496 89.344V91.344C901.477 91.344 907 88.901 910.927 83.9581L909.361 82.7139ZM894.496 89.344C888.385 89.344 883.139 87.0354 878.71 82.3603L877.258 83.7357C882.045 88.7886 887.807 91.344 894.496 91.344V89.344ZM878.719 82.3701C874.356 77.6385 872.168 71.8693 872.168 65H870.168C870.168 72.3387 872.524 78.6014 877.249 83.7259L878.719 82.3701ZM872.168 65C872.168 58.1973 874.355 52.4593 878.719 47.7259L877.249 46.3701C872.525 51.4927 870.168 57.7227 870.168 65H872.168ZM878.714 47.731C883.145 42.9929 888.389 40.656 894.496 40.656V38.656C887.803 38.656 882.039 41.2471 877.254 46.365L878.714 47.731ZM894.496 40.656C900.955 40.656 905.864 42.8851 909.361 47.2861L910.927 46.0419C907 41.0989 901.477 38.656 894.496 38.656V40.656ZM886.589 75.4991C889.29 78.2001 892.72 79.536 896.8 79.536V77.536C893.2 77.536 890.294 76.3759 888.003 74.0849L886.589 75.4991ZM896.8 79.536C900.88 79.536 904.31 78.2001 907.011 75.4991L905.597 74.0849C903.306 76.3759 900.4 77.536 896.8 77.536V79.536ZM907.011 75.4991C909.778 72.7327 911.144 69.2052 911.144 65H909.144C909.144 68.7308 907.95 71.7313 905.597 74.0849L907.011 75.4991ZM911.144 65C911.144 60.795 909.777 57.2938 907.002 54.588L905.606 56.02C907.951 58.3062 909.144 61.269 909.144 65H911.144ZM907.02 54.6059C904.321 51.8376 900.887 50.464 896.8 50.464V52.464C900.393 52.464 903.295 53.6504 905.588 56.0021L907.02 54.6059ZM896.8 50.464C892.713 50.464 889.279 51.8376 886.58 54.6059L888.012 56.0021C890.305 53.6504 893.207 52.464 896.8 52.464V50.464ZM886.589 54.5969C883.881 57.3044 882.552 60.8027 882.552 65H884.552C884.552 61.2613 885.719 58.2956 888.003 56.0111L886.589 54.5969ZM882.552 65C882.552 69.1976 883.881 72.7221 886.58 75.4901L888.012 74.0939C885.719 71.7419 884.552 68.7384 884.552 65H882.552ZM968.318 64.424L967.715 63.626L966.412 64.61L967.881 65.3235L968.318 64.424ZM933.758 89H932.758V90H933.758V89ZM933.758 41V40H932.758V41H933.758ZM968.798 44.744L968.134 45.4924L968.144 45.5008L968.798 44.744ZM945.374 51.176V50.176H944.374V51.176H945.374ZM945.374 59.816H944.374V60.816H945.374V59.816ZM945.374 78.536H944.374V79.536H945.374V78.536ZM961.502 70.76L962.126 69.9791V69.9791L961.502 70.76ZM945.374 69.608V68.608H944.374V69.608H945.374ZM967.881 65.3235C969.978 66.3421 971.501 67.6788 972.506 69.3153C973.511 70.9534 974.038 72.9562 974.038 75.368H976.038C976.038 72.6598 975.444 70.2786 974.21 68.2687C972.975 66.2572 971.138 64.6819 968.755 63.5245L967.881 65.3235ZM974.038 75.368C974.038 79.2063 972.732 82.2195 970.15 84.5077L971.477 86.0043C974.528 83.3005 976.038 79.7217 976.038 75.368H974.038ZM970.15 84.5077C967.572 86.7928 963.902 88 959.006 88V90C964.221 90 968.423 88.7112 971.477 86.0043L970.15 84.5077ZM959.006 88H933.758V90H959.006V88ZM934.758 89V41H932.758V89H934.758ZM933.758 42H957.086V40H933.758V42ZM957.086 42C961.914 42 965.554 43.2053 968.134 45.4923L969.461 43.9957C966.409 41.2907 962.241 40 957.086 40V42ZM968.144 45.5008C970.716 47.7223 972.022 50.6976 972.022 54.536H974.022C974.022 50.1824 972.511 46.6297 969.451 43.9872L968.144 45.5008ZM972.022 54.536C972.022 58.4736 970.58 61.4628 967.715 63.626L968.92 65.222C972.328 62.6492 974.022 59.0464 974.022 54.536H972.022ZM955.934 50.176H945.374V52.176H955.934V50.176ZM944.374 51.176V59.816H946.374V51.176H944.374ZM945.374 60.816H955.934V58.816H945.374V60.816ZM955.934 60.816C957.805 60.816 959.393 60.4374 960.527 59.51C961.699 58.5511 962.214 57.149 962.214 55.496H960.214C960.214 56.723 959.849 57.4809 959.261 57.962C958.634 58.4746 957.583 58.816 955.934 58.816V60.816ZM962.214 55.496C962.214 53.843 961.699 52.4409 960.527 51.482C959.393 50.5546 957.805 50.176 955.934 50.176V52.176C957.583 52.176 958.634 52.5174 959.261 53.03C959.849 53.5111 960.214 54.269 960.214 55.496H962.214ZM945.374 79.536H957.566V77.536H945.374V79.536ZM957.566 79.536C959.477 79.536 961.098 79.1296 962.249 78.1433C963.429 77.1316 963.942 75.6619 963.942 73.928H961.942C961.942 75.2661 961.559 76.1004 960.947 76.6247C960.306 77.1744 959.238 77.536 957.566 77.536V79.536ZM963.942 73.928C963.942 72.3126 963.348 70.9562 962.126 69.9791L960.877 71.5409C961.576 72.0998 961.942 72.8554 961.942 73.928H963.942ZM962.126 69.9791C960.935 69.0263 959.377 68.608 957.566 68.608V70.608C959.083 70.608 960.148 70.9577 960.877 71.5409L962.126 69.9791ZM957.566 68.608H945.374V70.608H957.566V68.608ZM944.374 69.608V78.536H946.374V69.608H944.374ZM976.866 41V40H975.866V41H976.866ZM1019.39 41H1020.39V40H1019.39V41ZM1019.39 52.904V53.904H1020.39V52.904H1019.39ZM1004.42 52.904V51.904H1003.42V52.904H1004.42ZM1004.42 89V90H1005.42V89H1004.42ZM992.034 89H991.034V90H992.034V89ZM992.034 52.904H993.034V51.904H992.034V52.904ZM976.866 52.904H975.866V53.904H976.866V52.904ZM976.866 42H1019.39V40H976.866V42ZM1018.39 41V52.904H1020.39V41H1018.39ZM1019.39 51.904H1004.42V53.904H1019.39V51.904ZM1003.42 52.904V89H1005.42V52.904H1003.42ZM1004.42 88H992.034V90H1004.42V88ZM993.034 89V52.904H991.034V89H993.034ZM992.034 51.904H976.866V53.904H992.034V51.904ZM977.866 52.904V41H975.866V52.904H977.866ZM1065.03 83.048L1064.32 82.3409L1065.03 83.048ZM1028.93 83.048L1029.64 82.3409L1028.93 83.048ZM1028.93 47.048L1029.64 47.7551L1028.93 47.048ZM1065.03 47.048L1064.32 47.7551L1065.03 47.048ZM1037.67 74.504L1036.94 75.1927L1036.95 75.202L1036.96 75.2111L1037.67 74.504ZM1037.67 55.496L1036.96 54.7889L1036.95 54.798L1036.94 54.8073L1037.67 55.496ZM1064.32 82.3409C1059.65 87.0087 1053.9 89.344 1046.98 89.344V91.344C1054.4 91.344 1060.68 88.8153 1065.74 83.7551L1064.32 82.3409ZM1046.98 89.344C1040.07 89.344 1034.31 87.0087 1029.64 82.3409L1028.23 83.7551C1033.29 88.8153 1039.56 91.344 1046.98 91.344V89.344ZM1029.64 82.3409C1024.97 77.673 1022.64 71.9152 1022.64 65H1020.64C1020.64 72.4208 1023.17 78.695 1028.23 83.7551L1029.64 82.3409ZM1022.64 65C1022.64 58.1515 1024.97 52.4248 1029.64 47.7551L1028.23 46.3409C1023.17 51.3992 1020.64 57.6405 1020.64 65H1022.64ZM1029.64 47.7551C1034.38 43.0187 1040.14 40.656 1046.98 40.656V38.656C1039.62 38.656 1033.35 41.2213 1028.23 46.3409L1029.64 47.7551ZM1046.98 40.656C1053.83 40.656 1059.59 43.0187 1064.32 47.7551L1065.74 46.3409C1060.62 41.2213 1054.34 38.656 1046.98 38.656V40.656ZM1064.32 47.7551C1069.06 52.4934 1071.42 58.2222 1071.42 65H1073.42C1073.42 57.6978 1070.85 51.4586 1065.74 46.3409L1064.32 47.7551ZM1071.42 65C1071.42 71.8445 1069.06 77.6045 1064.32 82.3409L1065.74 83.7551C1070.86 78.6355 1073.42 72.3635 1073.42 65H1071.42ZM1036.96 75.2111C1039.66 77.9051 1043.02 79.248 1046.98 79.248V77.248C1043.52 77.248 1040.67 76.0949 1038.38 73.7969L1036.96 75.2111ZM1046.98 79.248C1050.94 79.248 1054.31 77.9051 1057 75.2111L1055.59 73.7969C1053.29 76.0949 1050.44 77.248 1046.98 77.248V79.248ZM1057 75.2111C1059.7 72.5102 1061.04 69.0795 1061.04 65H1059.04C1059.04 68.6005 1057.88 71.5058 1055.59 73.7969L1057 75.2111ZM1061.04 65C1061.04 60.9205 1059.7 57.4898 1057 54.7889L1055.59 56.2031C1057.88 58.4942 1059.04 61.3995 1059.04 65H1061.04ZM1057 54.7889C1054.31 52.0949 1050.94 50.752 1046.98 50.752V52.752C1050.44 52.752 1053.29 53.9051 1055.59 56.2031L1057 54.7889ZM1046.98 50.752C1043.02 50.752 1039.66 52.0949 1036.96 54.7889L1038.38 56.2031C1040.67 53.9051 1043.52 52.752 1046.98 52.752V50.752ZM1036.94 54.8073C1034.32 57.5668 1033.02 60.9872 1033.02 65H1035.02C1035.02 61.4608 1036.15 58.5452 1038.39 56.1847L1036.94 54.8073ZM1033.02 65C1033.02 69.0128 1034.32 72.4332 1036.94 75.1927L1038.39 73.8152C1036.15 71.4548 1035.02 68.5392 1035.02 65H1033.02ZM1081.13 41V40H1080.13V41H1081.13ZM1125 41H1126V40H1125V41ZM1125 89V90H1126V89H1125ZM1112.62 89H1111.62V90H1112.62V89ZM1112.62 52.616H1113.62V51.616H1112.62V52.616ZM1093.52 52.616V51.616H1092.52V52.616H1093.52ZM1093.52 89V90H1094.52V89H1093.52ZM1081.13 89H1080.13V90H1081.13V89ZM1081.13 42H1125V40H1081.13V42ZM1124 41V89H1126V41H1124ZM1125 88H1112.62V90H1125V88ZM1113.62 89V52.616H1111.62V89H1113.62ZM1112.62 51.616H1093.52V53.616H1112.62V51.616ZM1092.52 52.616V89H1094.52V52.616H1092.52ZM1093.52 88H1081.13V90H1093.52V88ZM1082.13 89V41H1080.13V89H1082.13ZM1172.83 46.664L1172.05 47.2861L1173.83 49.5301V46.664H1172.83ZM1172.83 41V40H1171.83V41H1172.83ZM1185.22 41H1186.22V40H1185.22V41ZM1185.22 89V90H1186.22V89H1185.22ZM1172.83 89H1171.83V90H1172.83V89ZM1172.83 83.336H1173.83V80.4699L1172.05 82.7139L1172.83 83.336ZM1140.67 83.048L1139.94 83.7259L1139.95 83.7357L1140.67 83.048ZM1140.67 47.048L1139.94 46.365L1139.94 46.3701L1140.67 47.048ZM1149.98 74.792L1149.27 75.4902L1149.28 75.4991L1149.98 74.792ZM1168.99 74.792L1169.7 75.4991L1168.99 74.792ZM1168.99 55.304L1168.28 56.0021L1168.28 56.0112L1168.29 56.02L1168.99 55.304ZM1149.98 55.304L1150.69 56.0112L1150.7 56.0021L1149.98 55.304ZM1173.83 46.664V41H1171.83V46.664H1173.83ZM1172.83 42H1185.22V40H1172.83V42ZM1184.22 41V89H1186.22V41H1184.22ZM1185.22 88H1172.83V90H1185.22V88ZM1173.83 89V83.336H1171.83V89H1173.83ZM1172.05 82.7139C1168.55 87.115 1163.64 89.344 1157.18 89.344V91.344C1164.16 91.344 1169.69 88.901 1173.61 83.9581L1172.05 82.7139ZM1157.18 89.344C1151.07 89.344 1145.83 87.0354 1141.4 82.3603L1139.95 83.7357C1144.73 88.7886 1150.49 91.344 1157.18 91.344V89.344ZM1141.41 82.3701C1137.04 77.6385 1134.86 71.8693 1134.86 65H1132.86C1132.86 72.3387 1135.21 78.6014 1139.94 83.7259L1141.41 82.3701ZM1134.86 65C1134.86 58.1973 1137.04 52.4593 1141.41 47.7259L1139.94 46.3701C1135.21 51.4927 1132.86 57.7227 1132.86 65H1134.86ZM1141.4 47.731C1145.83 42.9929 1151.08 40.656 1157.18 40.656V38.656C1150.49 38.656 1144.73 41.2471 1139.94 46.365L1141.4 47.731ZM1157.18 40.656C1163.64 40.656 1168.55 42.8851 1172.05 47.2861L1173.61 46.0419C1169.69 41.0989 1164.16 38.656 1157.18 38.656V40.656ZM1149.28 75.4991C1151.98 78.2001 1155.41 79.536 1159.49 79.536V77.536C1155.89 77.536 1152.98 76.3759 1150.69 74.0849L1149.28 75.4991ZM1159.49 79.536C1163.57 79.536 1167 78.2001 1169.7 75.4991L1168.28 74.0849C1165.99 76.3759 1163.09 77.536 1159.49 77.536V79.536ZM1169.7 75.4991C1172.47 72.7327 1173.83 69.2052 1173.83 65H1171.83C1171.83 68.7308 1170.64 71.7313 1168.28 74.0849L1169.7 75.4991ZM1173.83 65C1173.83 60.795 1172.46 57.2938 1169.69 54.588L1168.29 56.02C1170.64 58.3062 1171.83 61.269 1171.83 65H1173.83ZM1169.71 54.6059C1167.01 51.8376 1163.57 50.464 1159.49 50.464V52.464C1163.08 52.464 1165.98 53.6504 1168.28 56.0021L1169.71 54.6059ZM1159.49 50.464C1155.4 50.464 1151.97 51.8376 1149.27 54.6059L1150.7 56.0021C1152.99 53.6504 1155.89 52.464 1159.49 52.464V50.464ZM1149.28 54.5969C1146.57 57.3044 1145.24 60.8027 1145.24 65H1147.24C1147.24 61.2613 1148.41 58.2956 1150.69 56.0111L1149.28 54.5969ZM1145.24 65C1145.24 69.1976 1146.57 72.7221 1149.27 75.4901L1150.7 74.0939C1148.41 71.7419 1147.24 68.7384 1147.24 65H1145.24ZM1240.89 47.048L1240.16 47.7259L1240.16 47.731L1240.89 47.048ZM1240.89 83.048L1240.17 82.3602L1240.16 82.3705L1240.89 83.048ZM1208.83 83.336L1209.62 82.7206L1207.83 80.4304V83.336H1208.83ZM1208.83 108.2V109.2H1209.83V108.2H1208.83ZM1196.45 108.2H1195.45V109.2H1196.45V108.2ZM1196.45 41V40H1195.45V41H1196.45ZM1208.83 41H1209.83V40H1208.83V41ZM1208.83 46.664H1207.83V49.5696L1209.62 47.2794L1208.83 46.664ZM1212.57 74.792L1211.86 75.4902L1211.87 75.4991L1212.57 74.792ZM1231.58 74.792L1230.87 74.0849L1231.58 74.792ZM1231.58 55.304L1230.87 56.0021L1230.87 56.0112L1230.88 56.02L1231.58 55.304ZM1212.57 55.304L1213.28 56.0112L1213.29 56.0021L1212.57 55.304ZM1224.38 40.656C1230.55 40.656 1235.8 42.9946 1240.16 47.7259L1241.63 46.3701C1236.9 41.2454 1231.14 38.656 1224.38 38.656V40.656ZM1240.16 47.731C1244.59 52.4651 1246.81 58.2015 1246.81 65H1248.81C1248.81 57.7185 1246.41 51.4869 1241.62 46.365L1240.16 47.731ZM1246.81 65C1246.81 71.9317 1244.59 77.6958 1240.17 82.3603L1241.62 83.7357C1246.42 78.6722 1248.81 72.4043 1248.81 65H1246.81ZM1240.16 82.3705C1235.86 87.032 1230.63 89.344 1224.38 89.344V91.344C1231.19 91.344 1236.96 88.792 1241.63 83.7255L1240.16 82.3705ZM1224.38 89.344C1217.92 89.344 1213.05 87.1152 1209.62 82.7206L1208.04 83.9514C1211.91 88.9007 1217.4 91.344 1224.38 91.344V89.344ZM1207.83 83.336V108.2H1209.83V83.336H1207.83ZM1208.83 107.2H1196.45V109.2H1208.83V107.2ZM1197.45 108.2V41H1195.45V108.2H1197.45ZM1196.45 42H1208.83V40H1196.45V42ZM1207.83 41V46.664H1209.83V41H1207.83ZM1209.62 47.2794C1213.05 42.8848 1217.92 40.656 1224.38 40.656V38.656C1217.4 38.656 1211.91 41.0993 1208.04 46.0486L1209.62 47.2794ZM1211.87 75.4991C1214.57 78.2001 1218 79.536 1222.08 79.536V77.536C1218.48 77.536 1215.57 76.3759 1213.28 74.0849L1211.87 75.4991ZM1222.08 79.536C1226.16 79.536 1229.59 78.2001 1232.29 75.4991L1230.87 74.0849C1228.58 76.3759 1225.68 77.536 1222.08 77.536V79.536ZM1232.29 75.4991C1235.05 72.7327 1236.42 69.2052 1236.42 65H1234.42C1234.42 68.7308 1233.23 71.7313 1230.87 74.0849L1232.29 75.4991ZM1236.42 65C1236.42 60.795 1235.05 57.2938 1232.28 54.588L1230.88 56.02C1233.23 58.3062 1234.42 61.269 1234.42 65H1236.42ZM1232.3 54.6059C1229.6 51.8376 1226.16 50.464 1222.08 50.464V52.464C1225.67 52.464 1228.57 53.6504 1230.87 56.0021L1232.3 54.6059ZM1222.08 50.464C1217.99 50.464 1214.56 51.8376 1211.86 54.6059L1213.29 56.0021C1215.58 53.6504 1218.48 52.464 1222.08 52.464V50.464ZM1211.87 54.5969C1209.16 57.3044 1207.83 60.8027 1207.83 65H1209.83C1209.83 61.2613 1211 58.2956 1213.28 56.0111L1211.87 54.5969ZM1207.83 65C1207.83 69.1976 1209.16 72.7221 1211.86 75.4901L1213.29 74.0939C1211 71.7419 1209.83 68.7384 1209.83 65H1207.83ZM1280.92 64.712L1280.15 64.0808L1279.63 64.7137L1280.15 65.3452L1280.92 64.712ZM1300.8 89V90H1302.91L1301.57 88.3668L1300.8 89ZM1286.39 89L1285.61 89.6255L1285.92 90H1286.39V89ZM1268.92 67.208L1269.7 66.5825L1267.92 64.3621V67.208H1268.92ZM1268.92 89V90H1269.92V89H1268.92ZM1256.54 89H1255.54V90H1256.54V89ZM1256.54 41V40H1255.54V41H1256.54ZM1268.92 41H1269.92V40H1268.92V41ZM1268.92 62.12H1267.92V65.0227L1269.71 62.7359L1268.92 62.12ZM1285.43 41V40H1284.95L1284.65 40.3841L1285.43 41ZM1300.22 41L1300.99 41.6312L1302.32 40H1300.22V41ZM1280.15 65.3452L1300.02 89.6332L1301.57 88.3668L1281.7 64.0788L1280.15 65.3452ZM1300.8 88H1286.39V90H1300.8V88ZM1287.18 88.3745L1269.7 66.5825L1268.14 67.8335L1285.61 89.6255L1287.18 88.3745ZM1267.92 67.208V89H1269.92V67.208H1267.92ZM1268.92 88H1256.54V90H1268.92V88ZM1257.54 89V41H1255.54V89H1257.54ZM1256.54 42H1268.92V40H1256.54V42ZM1267.92 41V62.12H1269.92V41H1267.92ZM1269.71 62.7359L1286.22 41.6159L1284.65 40.3841L1268.14 61.5041L1269.71 62.7359ZM1285.43 42H1300.22V40H1285.43V42ZM1299.44 40.3688L1280.15 64.0808L1281.7 65.3432L1300.99 41.6312L1299.44 40.3688Z" fill="#FF5C00"/>
<path d="M42.144 46.664L41.361 47.2861L43.144 49.5301V46.664H42.144ZM42.144 41V40H41.144V41H42.144ZM54.528 41H55.528V40H54.528V41ZM54.528 89V90H55.528V89H54.528ZM42.144 89H41.144V90H42.144V89ZM42.144 83.336H43.144V80.4699L41.361 82.7139L42.144 83.336ZM9.984 83.048L9.24876 83.7259L9.25805 83.7357L9.984 83.048ZM9.984 47.048L9.25356 46.365L9.24883 46.3701L9.984 47.048ZM19.296 74.792L18.5799 75.4902L18.5889 75.4991L19.296 74.792ZM38.304 74.792L39.0111 75.4991L38.304 74.792ZM38.304 55.304L37.588 56.0021L37.5968 56.0112L37.6059 56.02L38.304 55.304ZM19.296 55.304L20.0032 56.0112L20.012 56.0021L19.296 55.304ZM43.144 46.664V41H41.144V46.664H43.144ZM42.144 42H54.528V40H42.144V42ZM53.528 41V89H55.528V41H53.528ZM54.528 88H42.144V90H54.528V88ZM43.144 89V83.336H41.144V89H43.144ZM41.361 82.7139C37.8643 87.115 32.9547 89.344 26.496 89.344V91.344C33.4773 91.344 38.9997 88.901 42.927 83.9581L41.361 82.7139ZM26.496 89.344C20.3847 89.344 15.1391 87.0354 10.71 82.3603L9.25805 83.7357C14.0449 88.7886 19.8073 91.344 26.496 91.344V89.344ZM10.7192 82.3701C6.3563 77.6385 4.168 71.8693 4.168 65H2.168C2.168 72.3387 4.5237 78.6014 9.24883 83.7259L10.7192 82.3701ZM4.168 65C4.168 58.1973 6.35463 52.4593 10.7192 47.7259L9.24883 46.3701C4.52537 51.4927 2.168 57.7227 2.168 65H4.168ZM10.7144 47.731C15.1448 42.9929 20.3893 40.656 26.496 40.656V38.656C19.8027 38.656 14.0392 41.2471 9.25358 46.365L10.7144 47.731ZM26.496 40.656C32.9547 40.656 37.8643 42.8851 41.361 47.2861L42.927 46.0419C38.9997 41.0989 33.4773 38.656 26.496 38.656V40.656ZM18.5889 75.4991C21.2898 78.2001 24.7205 79.536 28.8 79.536V77.536C25.1995 77.536 22.2942 76.3759 20.0031 74.0849L18.5889 75.4991ZM28.8 79.536C32.8795 79.536 36.3102 78.2001 39.0111 75.4991L37.5969 74.0849C35.3058 76.3759 32.4005 77.536 28.8 77.536V79.536ZM39.0111 75.4991C41.7776 72.7327 43.144 69.2052 43.144 65H41.144C41.144 68.7308 39.9504 71.7313 37.5969 74.0849L39.0111 75.4991ZM43.144 65C43.144 60.795 41.7773 57.2938 39.0021 54.588L37.6059 56.02C39.9507 58.3062 41.144 61.269 41.144 65H43.144ZM39.02 54.6059C36.3209 51.8376 32.8875 50.464 28.8 50.464V52.464C32.3926 52.464 35.2951 53.6504 37.588 56.0021L39.02 54.6059ZM28.8 50.464C24.7126 50.464 21.2791 51.8376 18.58 54.6059L20.012 56.0021C22.3049 53.6504 25.2075 52.464 28.8 52.464V50.464ZM18.5889 54.5969C15.8814 57.3044 14.552 60.8027 14.552 65H16.552C16.552 61.2613 17.7186 58.2956 20.0031 56.0111L18.5889 54.5969ZM14.552 65C14.552 69.1976 15.8812 72.7221 18.58 75.4901L20.012 74.0939C17.7188 71.7419 16.552 68.7384 16.552 65H14.552ZM100.318 64.424L99.7151 63.626L98.4119 64.61L99.8809 65.3235L100.318 64.424ZM65.7578 89H64.7578V90H65.7578V89ZM65.7578 41V40H64.7578V41H65.7578ZM100.798 44.744L100.134 45.4924L100.144 45.5008L100.798 44.744ZM77.3737 51.176V50.176H76.3737V51.176H77.3737ZM77.3737 59.816H76.3737V60.816H77.3737V59.816ZM77.3737 78.536H76.3737V79.536H77.3737V78.536ZM93.5018 70.76L94.1264 69.9791V69.9791L93.5018 70.76ZM77.3737 69.608V68.608H76.3737V69.608H77.3737ZM99.8809 65.3235C101.978 66.3421 103.501 67.6788 104.506 69.3153C105.511 70.9534 106.038 72.9562 106.038 75.368H108.038C108.038 72.6598 107.444 70.2786 106.21 68.2687C104.975 66.2572 103.138 64.6819 100.755 63.5245L99.8809 65.3235ZM106.038 75.368C106.038 79.2063 104.732 82.2195 102.15 84.5077L103.477 86.0043C106.528 83.3005 108.038 79.7217 108.038 75.368H106.038ZM102.15 84.5077C99.5723 86.7928 95.9023 88 91.0058 88V90C96.2212 90 100.423 88.7112 103.477 86.0043L102.15 84.5077ZM91.0058 88H65.7578V90H91.0058V88ZM66.7578 89V41H64.7578V89H66.7578ZM65.7578 42H89.0858V40H65.7578V42ZM89.0858 42C93.9145 42 97.5541 43.2053 100.134 45.4923L101.461 43.9957C98.4094 41.2907 94.241 40 89.0858 40V42ZM100.144 45.5008C102.716 47.7223 104.022 50.6976 104.022 54.536H106.022C106.022 50.1824 104.511 46.6297 101.451 43.9872L100.144 45.5008ZM104.022 54.536C104.022 58.4736 102.58 61.4628 99.7151 63.626L100.92 65.222C104.328 62.6492 106.022 59.0464 106.022 54.536H104.022ZM87.9338 50.176H77.3737V52.176H87.9338V50.176ZM76.3737 51.176V59.816H78.3737V51.176H76.3737ZM77.3737 60.816H87.9338V58.816H77.3737V60.816ZM87.9338 60.816C89.8046 60.816 91.3935 60.4374 92.527 59.51C93.6989 58.5511 94.2138 57.149 94.2138 55.496H92.2138C92.2138 56.723 91.8486 57.4809 91.2605 57.962C90.634 58.4746 89.5829 58.816 87.9338 58.816V60.816ZM94.2138 55.496C94.2138 53.843 93.6989 52.4409 92.527 51.482C91.3935 50.5546 89.8046 50.176 87.9338 50.176V52.176C89.5829 52.176 90.634 52.5174 91.2605 53.03C91.8486 53.5111 92.2138 54.269 92.2138 55.496H94.2138ZM77.3737 79.536H89.5658V77.536H77.3737V79.536ZM89.5658 79.536C91.4774 79.536 93.0978 79.1296 94.2485 78.1433C95.4288 77.1316 95.9417 75.6619 95.9417 73.928H93.9417C93.9417 75.2661 93.5587 76.1004 92.947 76.6247C92.3057 77.1744 91.2381 77.536 89.5658 77.536V79.536ZM95.9417 73.928C95.9417 72.3126 95.3478 70.9562 94.1264 69.9791L92.8771 71.5409C93.5757 72.0998 93.9417 72.8554 93.9417 73.928H95.9417ZM94.1264 69.9791C92.9354 69.0263 91.3769 68.608 89.5658 68.608V70.608C91.0826 70.608 92.1481 70.9577 92.8771 71.5409L94.1264 69.9791ZM89.5658 68.608H77.3737V70.608H89.5658V68.608ZM76.3737 69.608V78.536H78.3737V69.608H76.3737ZM108.866 41V40H107.866V41H108.866ZM151.394 41H152.394V40H151.394V41ZM151.394 52.904V53.904H152.394V52.904H151.394ZM136.418 52.904V51.904H135.418V52.904H136.418ZM136.418 89V90H137.418V89H136.418ZM124.034 89H123.034V90H124.034V89ZM124.034 52.904H125.034V51.904H124.034V52.904ZM108.866 52.904H107.866V53.904H108.866V52.904ZM108.866 42H151.394V40H108.866V42ZM150.394 41V52.904H152.394V41H150.394ZM151.394 51.904H136.418V53.904H151.394V51.904ZM135.418 52.904V89H137.418V52.904H135.418ZM136.418 88H124.034V90H136.418V88ZM125.034 89V52.904H123.034V89H125.034ZM124.034 51.904H108.866V53.904H124.034V51.904ZM109.866 52.904V41H107.866V52.904H109.866ZM197.029 83.048L196.322 82.3409L197.029 83.048ZM160.933 83.048L161.64 82.3409L160.933 83.048ZM160.933 47.048L161.64 47.7551L160.933 47.048ZM197.029 47.048L196.322 47.7551L197.029 47.048ZM169.669 74.504L168.944 75.1927L168.953 75.202L168.962 75.2111L169.669 74.504ZM169.669 55.496L168.962 54.7889L168.953 54.798L168.944 54.8073L169.669 55.496ZM196.322 82.3409C191.654 87.0087 185.896 89.344 178.981 89.344V91.344C186.402 91.344 192.676 88.8153 197.736 83.7551L196.322 82.3409ZM178.981 89.344C172.066 89.344 166.308 87.0087 161.64 82.3409L160.226 83.7551C165.286 88.8153 171.56 91.344 178.981 91.344V89.344ZM161.64 82.3409C156.972 77.673 154.637 71.9152 154.637 65H152.637C152.637 72.4208 155.165 78.695 160.226 83.7551L161.64 82.3409ZM154.637 65C154.637 58.1515 156.97 52.4248 161.64 47.7551L160.226 46.3409C155.167 51.3992 152.637 57.6405 152.637 65H154.637ZM161.64 47.7551C166.376 43.0187 172.136 40.656 178.981 40.656V38.656C171.617 38.656 165.345 41.2213 160.226 46.3409L161.64 47.7551ZM178.981 40.656C185.825 40.656 191.585 43.0187 196.322 47.7551L197.736 46.3409C192.616 41.2213 186.344 38.656 178.981 38.656V40.656ZM196.322 47.7551C201.06 52.4934 203.421 58.2222 203.421 65H205.421C205.421 57.6978 202.854 51.4586 197.736 46.3409L196.322 47.7551ZM203.421 65C203.421 71.8445 201.058 77.6045 196.322 82.3409L197.736 83.7551C202.855 78.6355 205.421 72.3635 205.421 65H203.421ZM168.962 75.2111C171.656 77.9051 175.019 79.248 178.981 79.248V77.248C175.519 77.248 172.674 76.0949 170.376 73.7969L168.962 75.2111ZM178.981 79.248C182.943 79.248 186.306 77.9051 189 75.2111L187.586 73.7969C185.288 76.0949 182.443 77.248 178.981 77.248V79.248ZM189 75.2111C191.701 72.5102 193.037 69.0795 193.037 65H191.037C191.037 68.6005 189.877 71.5058 187.586 73.7969L189 75.2111ZM193.037 65C193.037 60.9205 191.701 57.4898 189 54.7889L187.586 56.2031C189.877 58.4942 191.037 61.3995 191.037 65H193.037ZM189 54.7889C186.306 52.0949 182.943 50.752 178.981 50.752V52.752C182.443 52.752 185.288 53.9051 187.586 56.2031L189 54.7889ZM178.981 50.752C175.019 50.752 171.656 52.0949 168.962 54.7889L170.376 56.2031C172.674 53.9051 175.519 52.752 178.981 52.752V50.752ZM168.944 54.8073C166.322 57.5668 165.021 60.9872 165.021 65H167.021C167.021 61.4608 168.151 58.5452 170.394 56.1847L168.944 54.8073ZM165.021 65C165.021 69.0128 166.322 72.4332 168.944 75.1927L170.394 73.8152C168.151 71.4548 167.021 68.5392 167.021 65H165.021ZM213.133 41V40H212.133V41H213.133ZM257.005 41H258.005V40H257.005V41ZM257.005 89V90H258.005V89H257.005ZM244.621 89H243.621V90H244.621V89ZM244.621 52.616H245.621V51.616H244.621V52.616ZM225.517 52.616V51.616H224.517V52.616H225.517ZM225.517 89V90H226.517V89H225.517ZM213.133 89H212.133V90H213.133V89ZM213.133 42H257.005V40H213.133V42ZM256.005 41V89H258.005V41H256.005ZM257.005 88H244.621V90H257.005V88ZM245.621 89V52.616H243.621V89H245.621ZM244.621 51.616H225.517V53.616H244.621V51.616ZM224.517 52.616V89H226.517V52.616H224.517ZM225.517 88H213.133V90H225.517V88ZM214.133 89V41H212.133V89H214.133ZM304.832 46.664L304.049 47.2861L305.832 49.5301V46.664H304.832ZM304.832 41V40H303.832V41H304.832ZM317.216 41H318.216V40H317.216V41ZM317.216 89V90H318.216V89H317.216ZM304.832 89H303.832V90H304.832V89ZM304.832 83.336H305.832V80.4699L304.049 82.7139L304.832 83.336ZM272.672 83.048L271.936 83.7259L271.946 83.7357L272.672 83.048ZM272.672 47.048L271.941 46.365L271.936 46.3701L272.672 47.048ZM281.983 74.792L281.267 75.4902L281.276 75.4991L281.983 74.792ZM300.992 74.792L301.699 75.4991L300.992 74.792ZM300.992 55.304L300.276 56.0021L300.284 56.0112L300.293 56.02L300.992 55.304ZM281.983 55.304L282.691 56.0112L282.699 56.0021L281.983 55.304ZM305.832 46.664V41H303.832V46.664H305.832ZM304.832 42H317.216V40H304.832V42ZM316.216 41V89H318.216V41H316.216ZM317.216 88H304.832V90H317.216V88ZM305.832 89V83.336H303.832V89H305.832ZM304.049 82.7139C300.552 87.115 295.642 89.344 289.184 89.344V91.344C296.165 91.344 301.687 88.901 305.614 83.9581L304.049 82.7139ZM289.184 89.344C283.072 89.344 277.827 87.0354 273.397 82.3603L271.946 83.7357C276.732 88.7886 282.495 91.344 289.184 91.344V89.344ZM273.407 82.3701C269.044 77.6385 266.855 71.8693 266.855 65H264.855C264.855 72.3387 267.211 78.6014 271.936 83.7259L273.407 82.3701ZM266.855 65C266.855 58.1973 269.042 52.4593 273.407 47.7259L271.936 46.3701C267.213 51.4927 264.855 57.7227 264.855 65H266.855ZM273.402 47.731C277.832 42.9929 283.077 40.656 289.184 40.656V38.656C282.49 38.656 276.727 41.2471 271.941 46.365L273.402 47.731ZM289.184 40.656C295.642 40.656 300.552 42.8851 304.049 47.2861L305.614 46.0419C301.687 41.0989 296.165 38.656 289.184 38.656V40.656ZM281.276 75.4991C283.977 78.2001 287.408 79.536 291.487 79.536V77.536C287.887 77.536 284.982 76.3759 282.691 74.0849L281.276 75.4991ZM291.487 79.536C295.567 79.536 298.998 78.2001 301.699 75.4991L300.284 74.0849C297.993 76.3759 295.088 77.536 291.487 77.536V79.536ZM301.699 75.4991C304.465 72.7327 305.832 69.2052 305.832 65H303.832C303.832 68.7308 302.638 71.7313 300.284 74.0849L301.699 75.4991ZM305.832 65C305.832 60.795 304.465 57.2938 301.69 54.588L300.293 56.02C302.638 58.3062 303.832 61.269 303.832 65H305.832ZM301.707 54.6059C299.008 51.8376 295.575 50.464 291.487 50.464V52.464C295.08 52.464 297.983 53.6504 300.276 56.0021L301.707 54.6059ZM291.487 50.464C287.4 50.464 283.967 51.8376 281.267 54.6059L282.699 56.0021C284.992 53.6504 287.895 52.464 291.487 52.464V50.464ZM281.276 54.5969C278.569 57.3044 277.24 60.8027 277.24 65H279.24C279.24 61.2613 280.406 58.2956 282.691 56.0111L281.276 54.5969ZM277.24 65C277.24 69.1976 278.569 72.7221 281.267 75.4901L282.699 74.0939C280.406 71.7419 279.24 68.7384 279.24 65H277.24ZM372.893 47.048L372.158 47.7259L372.163 47.731L372.893 47.048ZM372.893 83.048L372.167 82.3602L372.158 82.3705L372.893 83.048ZM340.829 83.336L341.617 82.7206L339.829 80.4304V83.336H340.829ZM340.829 108.2V109.2H341.829V108.2H340.829ZM328.445 108.2H327.445V109.2H328.445V108.2ZM328.445 41V40H327.445V41H328.445ZM340.829 41H341.829V40H340.829V41ZM340.829 46.664H339.829V49.5696L341.617 47.2794L340.829 46.664ZM344.573 74.792L343.857 75.4902L343.866 75.4991L344.573 74.792ZM363.581 74.792L362.874 74.0849L363.581 74.792ZM363.581 55.304L362.865 56.0021L362.874 56.0112L362.883 56.02L363.581 55.304ZM344.573 55.304L345.28 56.0112L345.289 56.0021L344.573 55.304ZM356.381 40.656C362.554 40.656 367.795 42.9946 372.158 47.7259L373.628 46.3701C368.903 41.2454 363.136 38.656 356.381 38.656V40.656ZM372.163 47.731C376.589 52.4651 378.805 58.2015 378.805 65H380.805C380.805 57.7185 378.413 51.4869 373.624 46.365L372.163 47.731ZM378.805 65C378.805 71.9317 376.586 77.6958 372.167 82.3603L373.619 83.7357C378.416 78.6722 380.805 72.4043 380.805 65H378.805ZM372.158 82.3705C367.864 87.032 362.626 89.344 356.381 89.344V91.344C363.193 91.344 368.962 88.792 373.629 83.7255L372.158 82.3705ZM356.381 89.344C349.922 89.344 345.049 87.1152 341.617 82.7206L340.041 83.9514C343.906 88.9007 349.4 91.344 356.381 91.344V89.344ZM339.829 83.336V108.2H341.829V83.336H339.829ZM340.829 107.2H328.445V109.2H340.829V107.2ZM329.445 108.2V41H327.445V108.2H329.445ZM328.445 42H340.829V40H328.445V42ZM339.829 41V46.664H341.829V41H339.829ZM341.617 47.2794C345.049 42.8848 349.922 40.656 356.381 40.656V38.656C349.4 38.656 343.906 41.0993 340.041 46.0486L341.617 47.2794ZM343.866 75.4991C346.567 78.2001 349.998 79.536 354.077 79.536V77.536C350.477 77.536 347.571 76.3759 345.28 74.0849L343.866 75.4991ZM354.077 79.536C358.157 79.536 361.587 78.2001 364.288 75.4991L362.874 74.0849C360.583 76.3759 357.678 77.536 354.077 77.536V79.536ZM364.288 75.4991C367.055 72.7327 368.421 69.2052 368.421 65H366.421C366.421 68.7308 365.228 71.7313 362.874 74.0849L364.288 75.4991ZM368.421 65C368.421 60.795 367.055 57.2938 364.279 54.588L362.883 56.02C365.228 58.3062 366.421 61.269 366.421 65H368.421ZM364.297 54.6059C361.598 51.8376 358.165 50.464 354.077 50.464V52.464C357.67 52.464 360.572 53.6504 362.865 56.0021L364.297 54.6059ZM354.077 50.464C349.99 50.464 346.556 51.8376 343.857 54.6059L345.289 56.0021C347.582 53.6504 350.485 52.464 354.077 52.464V50.464ZM343.866 54.5969C341.159 57.3044 339.829 60.8027 339.829 65H341.829C341.829 61.2613 342.996 58.2956 345.28 56.0111L343.866 54.5969ZM339.829 65C339.829 69.1976 341.158 72.7221 343.857 75.4901L345.289 74.0939C342.996 71.7419 341.829 68.7384 341.829 65H339.829ZM412.923 64.712L412.147 64.0808L411.632 64.7137L412.149 65.3452L412.923 64.712ZM432.795 89V90H434.905L433.569 88.3668L432.795 89ZM418.395 89L417.615 89.6255L417.915 90H418.395V89ZM400.923 67.208L401.703 66.5825L399.923 64.3621V67.208H400.923ZM400.923 89V90H401.923V89H400.923ZM388.539 89H387.539V90H388.539V89ZM388.539 41V40H387.539V41H388.539ZM400.923 41H401.923V40H400.923V41ZM400.923 62.12H399.923V65.0227L401.711 62.7359L400.923 62.12ZM417.435 41V40H416.947L416.647 40.3841L417.435 41ZM432.219 41L432.995 41.6312L434.322 40H432.219V41ZM412.149 65.3452L432.021 89.6332L433.569 88.3668L413.697 64.0788L412.149 65.3452ZM432.795 88H418.395V90H432.795V88ZM419.175 88.3745L401.703 66.5825L400.143 67.8335L417.615 89.6255L419.175 88.3745ZM399.923 67.208V89H401.923V67.208H399.923ZM400.923 88H388.539V90H400.923V88ZM389.539 89V41H387.539V89H389.539ZM388.539 42H400.923V40H388.539V42ZM399.923 41V62.12H401.923V41H399.923ZM401.711 62.7359L418.223 41.6159L416.647 40.3841L400.135 61.5041L401.711 62.7359ZM417.435 42H432.219V40H417.435V42ZM431.443 40.3688L412.147 64.0808L413.699 65.3432L432.995 41.6312L431.443 40.3688Z" fill="#FF5C00"/>
<path d="M1777.14 46.664L1776.36 47.2861L1778.14 49.5301V46.664H1777.14ZM1777.14 41V40H1776.14V41H1777.14ZM1789.53 41H1790.53V40H1789.53V41ZM1789.53 89V90H1790.53V89H1789.53ZM1777.14 89H1776.14V90H1777.14V89ZM1777.14 83.336H1778.14V80.4699L1776.36 82.7139L1777.14 83.336ZM1744.98 83.048L1744.25 83.7259L1744.26 83.7357L1744.98 83.048ZM1744.98 47.048L1744.25 46.365L1744.25 46.3701L1744.98 47.048ZM1754.3 74.792L1753.58 75.4902L1753.59 75.4991L1754.3 74.792ZM1773.3 74.792L1774.01 75.4991L1773.3 74.792ZM1773.3 55.304L1772.59 56.0021L1772.6 56.0112L1772.61 56.02L1773.3 55.304ZM1754.3 55.304L1755 56.0112L1755.01 56.0021L1754.3 55.304ZM1778.14 46.664V41H1776.14V46.664H1778.14ZM1777.14 42H1789.53V40H1777.14V42ZM1788.53 41V89H1790.53V41H1788.53ZM1789.53 88H1777.14V90H1789.53V88ZM1778.14 89V83.336H1776.14V89H1778.14ZM1776.36 82.7139C1772.86 87.115 1767.95 89.344 1761.5 89.344V91.344C1768.48 91.344 1774 88.901 1777.93 83.9581L1776.36 82.7139ZM1761.5 89.344C1755.38 89.344 1750.14 87.0354 1745.71 82.3603L1744.26 83.7357C1749.04 88.7886 1754.81 91.344 1761.5 91.344V89.344ZM1745.72 82.3701C1741.36 77.6385 1739.17 71.8693 1739.17 65H1737.17C1737.17 72.3387 1739.52 78.6014 1744.25 83.7259L1745.72 82.3701ZM1739.17 65C1739.17 58.1973 1741.35 52.4593 1745.72 47.7259L1744.25 46.3701C1739.53 51.4927 1737.17 57.7227 1737.17 65H1739.17ZM1745.71 47.731C1750.14 42.9929 1755.39 40.656 1761.5 40.656V38.656C1754.8 38.656 1749.04 41.2471 1744.25 46.365L1745.71 47.731ZM1761.5 40.656C1767.95 40.656 1772.86 42.8851 1776.36 47.2861L1777.93 46.0419C1774 41.0989 1768.48 38.656 1761.5 38.656V40.656ZM1753.59 75.4991C1756.29 78.2001 1759.72 79.536 1763.8 79.536V77.536C1760.2 77.536 1757.29 76.3759 1755 74.0849L1753.59 75.4991ZM1763.8 79.536C1767.88 79.536 1771.31 78.2001 1774.01 75.4991L1772.6 74.0849C1770.31 76.3759 1767.4 77.536 1763.8 77.536V79.536ZM1774.01 75.4991C1776.78 72.7327 1778.14 69.2052 1778.14 65H1776.14C1776.14 68.7308 1774.95 71.7313 1772.6 74.0849L1774.01 75.4991ZM1778.14 65C1778.14 60.795 1776.78 57.2938 1774 54.588L1772.61 56.02C1774.95 58.3062 1776.14 61.269 1776.14 65H1778.14ZM1774.02 54.6059C1771.32 51.8376 1767.89 50.464 1763.8 50.464V52.464C1767.39 52.464 1770.3 53.6504 1772.59 56.0021L1774.02 54.6059ZM1763.8 50.464C1759.71 50.464 1756.28 51.8376 1753.58 54.6059L1755.01 56.0021C1757.3 53.6504 1760.21 52.464 1763.8 52.464V50.464ZM1753.59 54.5969C1750.88 57.3044 1749.55 60.8027 1749.55 65H1751.55C1751.55 61.2613 1752.72 58.2956 1755 56.0111L1753.59 54.5969ZM1749.55 65C1749.55 69.1976 1750.88 72.7221 1753.58 75.4901L1755.01 74.0939C1752.72 71.7419 1751.55 68.7384 1751.55 65H1749.55ZM1835.32 64.424L1834.72 63.626L1833.41 64.61L1834.88 65.3235L1835.32 64.424ZM1800.76 89H1799.76V90H1800.76V89ZM1800.76 41V40H1799.76V41H1800.76ZM1835.8 44.744L1835.13 45.4924L1835.14 45.5008L1835.8 44.744ZM1812.37 51.176V50.176H1811.37V51.176H1812.37ZM1812.37 59.816H1811.37V60.816H1812.37V59.816ZM1812.37 78.536H1811.37V79.536H1812.37V78.536ZM1828.5 70.76L1829.13 69.9791V69.9791L1828.5 70.76ZM1812.37 69.608V68.608H1811.37V69.608H1812.37ZM1834.88 65.3235C1836.98 66.3421 1838.5 67.6788 1839.51 69.3153C1840.51 70.9534 1841.04 72.9562 1841.04 75.368H1843.04C1843.04 72.6598 1842.44 70.2786 1841.21 68.2687C1839.97 66.2572 1838.14 64.6819 1835.75 63.5245L1834.88 65.3235ZM1841.04 75.368C1841.04 79.2063 1839.73 82.2195 1837.15 84.5077L1838.48 86.0043C1841.53 83.3005 1843.04 79.7217 1843.04 75.368H1841.04ZM1837.15 84.5077C1834.57 86.7928 1830.9 88 1826.01 88V90C1831.22 90 1835.42 88.7112 1838.48 86.0043L1837.15 84.5077ZM1826.01 88H1800.76V90H1826.01V88ZM1801.76 89V41H1799.76V89H1801.76ZM1800.76 42H1824.09V40H1800.76V42ZM1824.09 42C1828.91 42 1832.55 43.2053 1835.13 45.4923L1836.46 43.9957C1833.41 41.2907 1829.24 40 1824.09 40V42ZM1835.14 45.5008C1837.72 47.7223 1839.02 50.6976 1839.02 54.536H1841.02C1841.02 50.1824 1839.51 46.6297 1836.45 43.9872L1835.14 45.5008ZM1839.02 54.536C1839.02 58.4736 1837.58 61.4628 1834.72 63.626L1835.92 65.222C1839.33 62.6492 1841.02 59.0464 1841.02 54.536H1839.02ZM1822.93 50.176H1812.37V52.176H1822.93V50.176ZM1811.37 51.176V59.816H1813.37V51.176H1811.37ZM1812.37 60.816H1822.93V58.816H1812.37V60.816ZM1822.93 60.816C1824.8 60.816 1826.39 60.4374 1827.53 59.51C1828.7 58.5511 1829.21 57.149 1829.21 55.496H1827.21C1827.21 56.723 1826.85 57.4809 1826.26 57.962C1825.63 58.4746 1824.58 58.816 1822.93 58.816V60.816ZM1829.21 55.496C1829.21 53.843 1828.7 52.4409 1827.53 51.482C1826.39 50.5546 1824.8 50.176 1822.93 50.176V52.176C1824.58 52.176 1825.63 52.5174 1826.26 53.03C1826.85 53.5111 1827.21 54.269 1827.21 55.496H1829.21ZM1812.37 79.536H1824.57V77.536H1812.37V79.536ZM1824.57 79.536C1826.48 79.536 1828.1 79.1296 1829.25 78.1433C1830.43 77.1316 1830.94 75.6619 1830.94 73.928H1828.94C1828.94 75.2661 1828.56 76.1004 1827.95 76.6247C1827.31 77.1744 1826.24 77.536 1824.57 77.536V79.536ZM1830.94 73.928C1830.94 72.3126 1830.35 70.9562 1829.13 69.9791L1827.88 71.5409C1828.58 72.0998 1828.94 72.8554 1828.94 73.928H1830.94ZM1829.13 69.9791C1827.94 69.0263 1826.38 68.608 1824.57 68.608V70.608C1826.08 70.608 1827.15 70.9577 1827.88 71.5409L1829.13 69.9791ZM1824.57 68.608H1812.37V70.608H1824.57V68.608ZM1811.37 69.608V78.536H1813.37V69.608H1811.37ZM1843.87 41V40H1842.87V41H1843.87ZM1886.39 41H1887.39V40H1886.39V41ZM1886.39 52.904V53.904H1887.39V52.904H1886.39ZM1871.42 52.904V51.904H1870.42V52.904H1871.42ZM1871.42 89V90H1872.42V89H1871.42ZM1859.03 89H1858.03V90H1859.03V89ZM1859.03 52.904H1860.03V51.904H1859.03V52.904ZM1843.87 52.904H1842.87V53.904H1843.87V52.904ZM1843.87 42H1886.39V40H1843.87V42ZM1885.39 41V52.904H1887.39V41H1885.39ZM1886.39 51.904H1871.42V53.904H1886.39V51.904ZM1870.42 52.904V89H1872.42V52.904H1870.42ZM1871.42 88H1859.03V90H1871.42V88ZM1860.03 89V52.904H1858.03V89H1860.03ZM1859.03 51.904H1843.87V53.904H1859.03V51.904ZM1844.87 52.904V41H1842.87V52.904H1844.87ZM1932.03 83.048L1931.32 82.3409L1932.03 83.048ZM1895.93 83.048L1896.64 82.3409L1895.93 83.048ZM1895.93 47.048L1896.64 47.7551L1895.93 47.048ZM1932.03 47.048L1931.32 47.7551L1932.03 47.048ZM1904.67 74.504L1903.94 75.1927L1903.95 75.202L1903.96 75.2111L1904.67 74.504ZM1904.67 55.496L1903.96 54.7889L1903.95 54.798L1903.94 54.8073L1904.67 55.496ZM1931.32 82.3409C1926.65 87.0087 1920.9 89.344 1913.98 89.344V91.344C1921.4 91.344 1927.68 88.8153 1932.74 83.7551L1931.32 82.3409ZM1913.98 89.344C1907.07 89.344 1901.31 87.0087 1896.64 82.3409L1895.23 83.7551C1900.29 88.8153 1906.56 91.344 1913.98 91.344V89.344ZM1896.64 82.3409C1891.97 77.673 1889.64 71.9152 1889.64 65H1887.64C1887.64 72.4208 1890.17 78.695 1895.23 83.7551L1896.64 82.3409ZM1889.64 65C1889.64 58.1515 1891.97 52.4248 1896.64 47.7551L1895.23 46.3409C1890.17 51.3992 1887.64 57.6405 1887.64 65H1889.64ZM1896.64 47.7551C1901.38 43.0187 1907.14 40.656 1913.98 40.656V38.656C1906.62 38.656 1900.35 41.2213 1895.23 46.3409L1896.64 47.7551ZM1913.98 40.656C1920.83 40.656 1926.59 43.0187 1931.32 47.7551L1932.74 46.3409C1927.62 41.2213 1921.34 38.656 1913.98 38.656V40.656ZM1931.32 47.7551C1936.06 52.4934 1938.42 58.2222 1938.42 65H1940.42C1940.42 57.6978 1937.85 51.4586 1932.74 46.3409L1931.32 47.7551ZM1938.42 65C1938.42 71.8445 1936.06 77.6045 1931.32 82.3409L1932.74 83.7551C1937.86 78.6355 1940.42 72.3635 1940.42 65H1938.42ZM1903.96 75.2111C1906.66 77.9051 1910.02 79.248 1913.98 79.248V77.248C1910.52 77.248 1907.67 76.0949 1905.38 73.7969L1903.96 75.2111ZM1913.98 79.248C1917.94 79.248 1921.31 77.9051 1924 75.2111L1922.59 73.7969C1920.29 76.0949 1917.44 77.248 1913.98 77.248V79.248ZM1924 75.2111C1926.7 72.5102 1928.04 69.0795 1928.04 65H1926.04C1926.04 68.6005 1924.88 71.5058 1922.59 73.7969L1924 75.2111ZM1928.04 65C1928.04 60.9205 1926.7 57.4898 1924 54.7889L1922.59 56.2031C1924.88 58.4942 1926.04 61.3995 1926.04 65H1928.04ZM1924 54.7889C1921.31 52.0949 1917.94 50.752 1913.98 50.752V52.752C1917.44 52.752 1920.29 53.9051 1922.59 56.2031L1924 54.7889ZM1913.98 50.752C1910.02 50.752 1906.66 52.0949 1903.96 54.7889L1905.38 56.2031C1907.67 53.9051 1910.52 52.752 1913.98 52.752V50.752ZM1903.94 54.8073C1901.32 57.5668 1900.02 60.9872 1900.02 65H1902.02C1902.02 61.4608 1903.15 58.5452 1905.39 56.1847L1903.94 54.8073ZM1900.02 65C1900.02 69.0128 1901.32 72.4332 1903.94 75.1927L1905.39 73.8152C1903.15 71.4548 1902.02 68.5392 1902.02 65H1900.02ZM1948.13 41V40H1947.13V41H1948.13ZM1992 41H1993V40H1992V41ZM1992 89V90H1993V89H1992ZM1979.62 89H1978.62V90H1979.62V89ZM1979.62 52.616H1980.62V51.616H1979.62V52.616ZM1960.52 52.616V51.616H1959.52V52.616H1960.52ZM1960.52 89V90H1961.52V89H1960.52ZM1948.13 89H1947.13V90H1948.13V89ZM1948.13 42H1992V40H1948.13V42ZM1991 41V89H1993V41H1991ZM1992 88H1979.62V90H1992V88ZM1980.62 89V52.616H1978.62V89H1980.62ZM1979.62 51.616H1960.52V53.616H1979.62V51.616ZM1959.52 52.616V89H1961.52V52.616H1959.52ZM1960.52 88H1948.13V90H1960.52V88ZM1949.13 89V41H1947.13V89H1949.13ZM2039.83 46.664L2039.05 47.2861L2040.83 49.5301V46.664H2039.83ZM2039.83 41V40H2038.83V41H2039.83ZM2052.22 41H2053.22V40H2052.22V41ZM2052.22 89V90H2053.22V89H2052.22ZM2039.83 89H2038.83V90H2039.83V89ZM2039.83 83.336H2040.83V80.4699L2039.05 82.7139L2039.83 83.336ZM2007.67 83.048L2006.94 83.7259L2006.95 83.7357L2007.67 83.048ZM2007.67 47.048L2006.94 46.365L2006.94 46.3701L2007.67 47.048ZM2016.98 74.792L2016.27 75.4902L2016.28 75.4991L2016.98 74.792ZM2035.99 74.792L2036.7 75.4991L2035.99 74.792ZM2035.99 55.304L2035.28 56.0021L2035.28 56.0112L2035.29 56.02L2035.99 55.304ZM2016.98 55.304L2017.69 56.0112L2017.7 56.0021L2016.98 55.304ZM2040.83 46.664V41H2038.83V46.664H2040.83ZM2039.83 42H2052.22V40H2039.83V42ZM2051.22 41V89H2053.22V41H2051.22ZM2052.22 88H2039.83V90H2052.22V88ZM2040.83 89V83.336H2038.83V89H2040.83ZM2039.05 82.7139C2035.55 87.115 2030.64 89.344 2024.18 89.344V91.344C2031.16 91.344 2036.69 88.901 2040.61 83.9581L2039.05 82.7139ZM2024.18 89.344C2018.07 89.344 2012.83 87.0354 2008.4 82.3603L2006.95 83.7357C2011.73 88.7886 2017.49 91.344 2024.18 91.344V89.344ZM2008.41 82.3701C2004.04 77.6385 2001.86 71.8693 2001.86 65H1999.86C1999.86 72.3387 2002.21 78.6014 2006.94 83.7259L2008.41 82.3701ZM2001.86 65C2001.86 58.1973 2004.04 52.4593 2008.41 47.7259L2006.94 46.3701C2002.21 51.4927 1999.86 57.7227 1999.86 65H2001.86ZM2008.4 47.731C2012.83 42.9929 2018.08 40.656 2024.18 40.656V38.656C2017.49 38.656 2011.73 41.2471 2006.94 46.365L2008.4 47.731ZM2024.18 40.656C2030.64 40.656 2035.55 42.8851 2039.05 47.2861L2040.61 46.0419C2036.69 41.0989 2031.16 38.656 2024.18 38.656V40.656ZM2016.28 75.4991C2018.98 78.2001 2022.41 79.536 2026.49 79.536V77.536C2022.89 77.536 2019.98 76.3759 2017.69 74.0849L2016.28 75.4991ZM2026.49 79.536C2030.57 79.536 2034 78.2001 2036.7 75.4991L2035.28 74.0849C2032.99 76.3759 2030.09 77.536 2026.49 77.536V79.536ZM2036.7 75.4991C2039.47 72.7327 2040.83 69.2052 2040.83 65H2038.83C2038.83 68.7308 2037.64 71.7313 2035.28 74.0849L2036.7 75.4991ZM2040.83 65C2040.83 60.795 2039.46 57.2938 2036.69 54.588L2035.29 56.02C2037.64 58.3062 2038.83 61.269 2038.83 65H2040.83ZM2036.71 54.6059C2034.01 51.8376 2030.57 50.464 2026.49 50.464V52.464C2030.08 52.464 2032.98 53.6504 2035.28 56.0021L2036.71 54.6059ZM2026.49 50.464C2022.4 50.464 2018.97 51.8376 2016.27 54.6059L2017.7 56.0021C2019.99 53.6504 2022.89 52.464 2026.49 52.464V50.464ZM2016.28 54.5969C2013.57 57.3044 2012.24 60.8027 2012.24 65H2014.24C2014.24 61.2613 2015.41 58.2956 2017.69 56.0111L2016.28 54.5969ZM2012.24 65C2012.24 69.1976 2013.57 72.7221 2016.27 75.4901L2017.7 74.0939C2015.41 71.7419 2014.24 68.7384 2014.24 65H2012.24ZM2107.89 47.048L2107.16 47.7259L2107.16 47.731L2107.89 47.048ZM2107.89 83.048L2107.17 82.3602L2107.16 82.3705L2107.89 83.048ZM2075.83 83.336L2076.62 82.7206L2074.83 80.4304V83.336H2075.83ZM2075.83 108.2V109.2H2076.83V108.2H2075.83ZM2063.45 108.2H2062.45V109.2H2063.45V108.2ZM2063.45 41V40H2062.45V41H2063.45ZM2075.83 41H2076.83V40H2075.83V41ZM2075.83 46.664H2074.83V49.5696L2076.62 47.2794L2075.83 46.664ZM2079.57 74.792L2078.86 75.4902L2078.87 75.4991L2079.57 74.792ZM2098.58 74.792L2097.87 74.0849L2098.58 74.792ZM2098.58 55.304L2097.87 56.0021L2097.87 56.0112L2097.88 56.02L2098.58 55.304ZM2079.57 55.304L2080.28 56.0112L2080.29 56.0021L2079.57 55.304ZM2091.38 40.656C2097.55 40.656 2102.8 42.9946 2107.16 47.7259L2108.63 46.3701C2103.9 41.2454 2098.14 38.656 2091.38 38.656V40.656ZM2107.16 47.731C2111.59 52.4651 2113.81 58.2015 2113.81 65H2115.81C2115.81 57.7185 2113.41 51.4869 2108.62 46.365L2107.16 47.731ZM2113.81 65C2113.81 71.9317 2111.59 77.6958 2107.17 82.3603L2108.62 83.7357C2113.42 78.6722 2115.81 72.4043 2115.81 65H2113.81ZM2107.16 82.3705C2102.86 87.032 2097.63 89.344 2091.38 89.344V91.344C2098.19 91.344 2103.96 88.792 2108.63 83.7255L2107.16 82.3705ZM2091.38 89.344C2084.92 89.344 2080.05 87.1152 2076.62 82.7206L2075.04 83.9514C2078.91 88.9007 2084.4 91.344 2091.38 91.344V89.344ZM2074.83 83.336V108.2H2076.83V83.336H2074.83ZM2075.83 107.2H2063.45V109.2H2075.83V107.2ZM2064.45 108.2V41H2062.45V108.2H2064.45ZM2063.45 42H2075.83V40H2063.45V42ZM2074.83 41V46.664H2076.83V41H2074.83ZM2076.62 47.2794C2080.05 42.8848 2084.92 40.656 2091.38 40.656V38.656C2084.4 38.656 2078.91 41.0993 2075.04 46.0486L2076.62 47.2794ZM2078.87 75.4991C2081.57 78.2001 2085 79.536 2089.08 79.536V77.536C2085.48 77.536 2082.57 76.3759 2080.28 74.0849L2078.87 75.4991ZM2089.08 79.536C2093.16 79.536 2096.59 78.2001 2099.29 75.4991L2097.87 74.0849C2095.58 76.3759 2092.68 77.536 2089.08 77.536V79.536ZM2099.29 75.4991C2102.05 72.7327 2103.42 69.2052 2103.42 65H2101.42C2101.42 68.7308 2100.23 71.7313 2097.87 74.0849L2099.29 75.4991ZM2103.42 65C2103.42 60.795 2102.05 57.2938 2099.28 54.588L2097.88 56.02C2100.23 58.3062 2101.42 61.269 2101.42 65H2103.42ZM2099.3 54.6059C2096.6 51.8376 2093.16 50.464 2089.08 50.464V52.464C2092.67 52.464 2095.57 53.6504 2097.87 56.0021L2099.3 54.6059ZM2089.08 50.464C2084.99 50.464 2081.56 51.8376 2078.86 54.6059L2080.29 56.0021C2082.58 53.6504 2085.48 52.464 2089.08 52.464V50.464ZM2078.87 54.5969C2076.16 57.3044 2074.83 60.8027 2074.83 65H2076.83C2076.83 61.2613 2078 58.2956 2080.28 56.0111L2078.87 54.5969ZM2074.83 65C2074.83 69.1976 2076.16 72.7221 2078.86 75.4901L2080.29 74.0939C2078 71.7419 2076.83 68.7384 2076.83 65H2074.83ZM2147.92 64.712L2147.15 64.0808L2146.63 64.7137L2147.15 65.3452L2147.92 64.712ZM2167.8 89V90H2169.91L2168.57 88.3668L2167.8 89ZM2153.39 89L2152.61 89.6255L2152.92 90H2153.39V89ZM2135.92 67.208L2136.7 66.5825L2134.92 64.3621V67.208H2135.92ZM2135.92 89V90H2136.92V89H2135.92ZM2123.54 89H2122.54V90H2123.54V89ZM2123.54 41V40H2122.54V41H2123.54ZM2135.92 41H2136.92V40H2135.92V41ZM2135.92 62.12H2134.92V65.0227L2136.71 62.7359L2135.92 62.12ZM2152.43 41V40H2151.95L2151.65 40.3841L2152.43 41ZM2167.22 41L2167.99 41.6312L2169.32 40H2167.22V41ZM2147.15 65.3452L2167.02 89.6332L2168.57 88.3668L2148.7 64.0788L2147.15 65.3452ZM2167.8 88H2153.39V90H2167.8V88ZM2154.18 88.3745L2136.7 66.5825L2135.14 67.8335L2152.61 89.6255L2154.18 88.3745ZM2134.92 67.208V89H2136.92V67.208H2134.92ZM2135.92 88H2123.54V90H2135.92V88ZM2124.54 89V41H2122.54V89H2124.54ZM2123.54 42H2135.92V40H2123.54V42ZM2134.92 41V62.12H2136.92V41H2134.92ZM2136.71 62.7359L2153.22 41.6159L2151.65 40.3841L2135.14 61.5041L2136.71 62.7359ZM2152.43 42H2167.22V40H2152.43V42ZM2166.44 40.3688L2147.15 64.0808L2148.7 65.3432L2167.99 41.6312L2166.44 40.3688Z" fill="#FF5C00"/>
</svg>
