<svg width="41" height="28" viewBox="0 0 41 28" fill="none" xmlns="http://www.w3.org/2000/svg">
<path fill-rule="evenodd" clip-rule="evenodd" d="M20.5 0C16.8866 0 13.9574 2.8491 13.9574 6.36364C13.9574 9.87818 16.8866 12.7273 20.5 12.7273C24.1134 12.7273 27.0426 9.87818 27.0426 6.36364C27.0426 2.8491 24.1134 0 20.5 0ZM16.5745 6.36364C16.5745 4.25491 18.332 2.54545 20.5 2.54545C22.668 2.54545 24.4255 4.25491 24.4255 6.36364C24.4255 8.47236 22.668 10.1818 20.5 10.1818C18.332 10.1818 16.5745 8.47236 16.5745 6.36364Z" fill="#282828"/>
<path fill-rule="evenodd" clip-rule="evenodd" d="M15.266 15.2727C11.6526 15.2727 8.7234 18.1218 8.7234 21.6364C8.7234 25.1509 11.6526 28 15.266 28H25.734C29.3474 28 32.2766 25.1509 32.2766 21.6364C32.2766 18.1218 29.3474 15.2727 25.734 15.2727H15.266ZM11.3404 21.6364C11.3404 19.5276 13.0979 17.8182 15.266 17.8182H25.734C27.9021 17.8182 29.6596 19.5276 29.6596 21.6364C29.6596 23.7451 27.9021 25.4545 25.734 25.4545H15.266C13.0979 25.4545 11.3404 23.7451 11.3404 21.6364Z" fill="#282828"/>
<path d="M13.0888 10.8414C12.8137 10.4114 12.2973 10.1818 11.7766 10.1818C9.60858 10.1818 7.85106 8.47236 7.85106 6.36364C7.85106 4.25491 9.60858 2.54545 11.7766 2.54545C12.2973 2.54545 12.8137 2.3159 13.0888 1.88592C13.101 1.8669 13.1133 1.84794 13.1256 1.82902C13.5837 1.12561 13.3516 0.129649 12.5006 0.0385267C12.2629 0.0130684 12.0213 0 11.7766 0C8.16324 0 5.23404 2.8491 5.23404 6.36364C5.23404 9.87818 8.16324 12.7273 11.7766 12.7273C12.0213 12.7273 12.2629 12.7142 12.5006 12.6887C13.3516 12.5976 13.5837 11.6017 13.1256 10.8983C13.1133 10.8793 13.101 10.8604 13.0888 10.8414Z" fill="#282828"/>
<path d="M7.77829 24.2953C7.58024 23.9739 7.23065 23.7576 6.84541 23.7576H6.54255C4.37454 23.7576 2.61702 22.0481 2.61702 19.9394C2.61702 17.8307 4.37454 16.1212 6.54255 16.1212H6.84541C7.23065 16.1212 7.58024 15.9049 7.77829 15.5835C8.26174 14.799 7.73711 13.5758 6.79674 13.5758H6.54255C2.9292 13.5758 0 16.4249 0 19.9394C0 23.4539 2.9292 26.303 6.54255 26.303H6.79674C7.73711 26.303 8.26174 25.0798 7.77829 24.2953Z" fill="#282828"/>
<path d="M27.8744 10.8983C27.4163 11.6017 27.6484 12.5976 28.4994 12.6887C28.7371 12.7142 28.9787 12.7273 29.2234 12.7273C32.8368 12.7273 35.766 9.87818 35.766 6.36364C35.766 2.8491 32.8368 0 29.2234 0C28.9787 0 28.7371 0.0130684 28.4994 0.038527C27.6484 0.12965 27.4163 1.12561 27.8744 1.82902C27.8867 1.84794 27.899 1.8669 27.9112 1.88592C28.1863 2.3159 28.7027 2.54545 29.2234 2.54545C31.3914 2.54545 33.1489 4.25491 33.1489 6.36364C33.1489 8.47236 31.3914 10.1818 29.2234 10.1818C28.7027 10.1818 28.1863 10.4114 27.9112 10.8414C27.899 10.8604 27.8867 10.8793 27.8744 10.8983Z" fill="#282828"/>
<path d="M33.2217 24.2953C32.7383 25.0798 33.2629 26.303 34.2033 26.303H34.4574C38.0708 26.303 41 23.4539 41 19.9394C41 16.4249 38.0708 13.5758 34.4574 13.5758H34.2033C33.2629 13.5758 32.7383 14.799 33.2217 15.5835C33.4198 15.9049 33.7694 16.1212 34.1546 16.1212H34.4574C36.6255 16.1212 38.383 17.8307 38.383 19.9394C38.383 22.0481 36.6255 23.7576 34.4574 23.7576H34.1546C33.7694 23.7576 33.4198 23.9739 33.2217 24.2953Z" fill="#282828"/>
</svg>
